%FSLAX34Y34*%
%MOMM*%
%LNSMDMASK_TOP*%
G71*
G01*
%ADD10R,5.380X3.300*%
%ADD11R,0.500X1.800*%
%ADD12R,1.400X1.300*%
%ADD13R,1.300X1.400*%
%ADD14R,1.700X1.900*%
%ADD15R,1.700X1.500*%
%ADD16R,0.600X1.000*%
%ADD17R,1.300X0.900*%
%ADD18R,1.800X1.820*%
%ADD19R,10.200X10.000*%
%ADD20R,1.800X4.200*%
%ADD21R,2.000X7.000*%
%ADD22R,2.600X3.200*%
%ADD23R,2.740X1.200*%
%ADD24R,1.100X1.100*%
%ADD25R,0.450X1.550*%
%ADD26R,0.650X1.550*%
%ADD27R,8.100X3.300*%
%ADD28R,1.600X2.000*%
%ADD29R,2.100X2.900*%
%LPD*%
X301600Y222400D02*
G54D10*
D03*
X259350Y194400D02*
G54D11*
D03*
X265850Y194400D02*
G54D11*
D03*
X272350Y194400D02*
G54D11*
D03*
X278850Y194400D02*
G54D11*
D03*
X285350Y194400D02*
G54D11*
D03*
X291850Y194400D02*
G54D11*
D03*
X298350Y194400D02*
G54D11*
D03*
X304850Y194400D02*
G54D11*
D03*
X311350Y194400D02*
G54D11*
D03*
X317850Y194400D02*
G54D11*
D03*
X324350Y194400D02*
G54D11*
D03*
X330850Y194400D02*
G54D11*
D03*
X337350Y194400D02*
G54D11*
D03*
X343850Y194400D02*
G54D11*
D03*
X343850Y250400D02*
G54D11*
D03*
X337350Y250400D02*
G54D11*
D03*
X330850Y250400D02*
G54D11*
D03*
X324350Y250400D02*
G54D11*
D03*
X317850Y250400D02*
G54D11*
D03*
X311350Y250400D02*
G54D11*
D03*
X304850Y250400D02*
G54D11*
D03*
X298350Y250400D02*
G54D11*
D03*
X291850Y250400D02*
G54D11*
D03*
X285350Y250400D02*
G54D11*
D03*
X278850Y250400D02*
G54D11*
D03*
X272350Y250400D02*
G54D11*
D03*
X265850Y250400D02*
G54D11*
D03*
X259350Y250400D02*
G54D11*
D03*
X232210Y184147D02*
G54D12*
D03*
X232210Y167147D02*
G54D12*
D03*
X274364Y156597D02*
G54D13*
D03*
X257364Y156597D02*
G54D13*
D03*
X368100Y260347D02*
G54D12*
D03*
X368100Y243347D02*
G54D12*
D03*
X993227Y474163D02*
G54D14*
D03*
X1017358Y475113D02*
G54D15*
D03*
X993994Y454372D02*
G54D15*
D03*
X1017758Y454113D02*
G54D15*
D03*
X819150Y438150D02*
G54D13*
D03*
X836150Y438150D02*
G54D13*
D03*
G36*
X812650Y413400D02*
X825650Y413400D01*
X825650Y399400D01*
X812650Y399400D01*
X812650Y413400D01*
G37*
X836150Y406400D02*
G54D13*
D03*
X1281112Y973773D02*
G54D16*
D03*
X1268095Y973773D02*
G54D16*
D03*
X1255078Y973773D02*
G54D16*
D03*
X1242378Y973773D02*
G54D16*
D03*
X1281112Y14923D02*
G54D16*
D03*
X1268095Y14923D02*
G54D16*
D03*
X1255078Y14923D02*
G54D16*
D03*
X1242378Y14923D02*
G54D16*
D03*
X55562Y14923D02*
G54D16*
D03*
X42545Y14923D02*
G54D16*
D03*
X29528Y14923D02*
G54D16*
D03*
X16828Y14923D02*
G54D16*
D03*
X55562Y973773D02*
G54D16*
D03*
X42545Y973773D02*
G54D16*
D03*
X29528Y973773D02*
G54D16*
D03*
X16828Y973773D02*
G54D16*
D03*
X501625Y222400D02*
G54D10*
D03*
X459375Y194400D02*
G54D11*
D03*
X465875Y194400D02*
G54D11*
D03*
X472375Y194400D02*
G54D11*
D03*
X478875Y194400D02*
G54D11*
D03*
X485375Y194400D02*
G54D11*
D03*
X491875Y194400D02*
G54D11*
D03*
X498375Y194400D02*
G54D11*
D03*
X504875Y194400D02*
G54D11*
D03*
X511375Y194400D02*
G54D11*
D03*
X517875Y194400D02*
G54D11*
D03*
X524375Y194400D02*
G54D11*
D03*
X530875Y194400D02*
G54D11*
D03*
X537375Y194400D02*
G54D11*
D03*
X543875Y194400D02*
G54D11*
D03*
X543875Y250400D02*
G54D11*
D03*
X537375Y250400D02*
G54D11*
D03*
X530875Y250400D02*
G54D11*
D03*
X524375Y250400D02*
G54D11*
D03*
X517875Y250400D02*
G54D11*
D03*
X511375Y250400D02*
G54D11*
D03*
X504875Y250400D02*
G54D11*
D03*
X498375Y250400D02*
G54D11*
D03*
X491875Y250400D02*
G54D11*
D03*
X485375Y250400D02*
G54D11*
D03*
X478875Y250400D02*
G54D11*
D03*
X472375Y250400D02*
G54D11*
D03*
X465875Y250400D02*
G54D11*
D03*
X459375Y250400D02*
G54D11*
D03*
X432234Y184147D02*
G54D12*
D03*
X432235Y167147D02*
G54D12*
D03*
X474390Y156597D02*
G54D13*
D03*
X457390Y156597D02*
G54D13*
D03*
X568124Y260347D02*
G54D12*
D03*
X568124Y243347D02*
G54D12*
D03*
X701650Y222400D02*
G54D10*
D03*
X659400Y194400D02*
G54D11*
D03*
X665900Y194400D02*
G54D11*
D03*
X672400Y194400D02*
G54D11*
D03*
X678900Y194400D02*
G54D11*
D03*
X685400Y194400D02*
G54D11*
D03*
X691900Y194400D02*
G54D11*
D03*
X698400Y194400D02*
G54D11*
D03*
X704900Y194400D02*
G54D11*
D03*
X711400Y194400D02*
G54D11*
D03*
X717900Y194400D02*
G54D11*
D03*
X724400Y194400D02*
G54D11*
D03*
X730900Y194400D02*
G54D11*
D03*
X737400Y194400D02*
G54D11*
D03*
X743900Y194400D02*
G54D11*
D03*
X743900Y250400D02*
G54D11*
D03*
X737400Y250400D02*
G54D11*
D03*
X730900Y250400D02*
G54D11*
D03*
X724400Y250400D02*
G54D11*
D03*
X717900Y250400D02*
G54D11*
D03*
X711400Y250400D02*
G54D11*
D03*
X704900Y250400D02*
G54D11*
D03*
X698400Y250400D02*
G54D11*
D03*
X691900Y250400D02*
G54D11*
D03*
X685400Y250400D02*
G54D11*
D03*
X678900Y250400D02*
G54D11*
D03*
X672400Y250400D02*
G54D11*
D03*
X665900Y250400D02*
G54D11*
D03*
X659400Y250400D02*
G54D11*
D03*
X632260Y184147D02*
G54D12*
D03*
X632260Y167147D02*
G54D12*
D03*
X674414Y156597D02*
G54D13*
D03*
X657414Y156597D02*
G54D13*
D03*
X768150Y260347D02*
G54D12*
D03*
X768150Y243347D02*
G54D12*
D03*
X936600Y197000D02*
G54D17*
D03*
X936600Y178000D02*
G54D17*
D03*
X909600Y197000D02*
G54D17*
D03*
X909600Y178000D02*
G54D17*
D03*
X909600Y187500D02*
G54D17*
D03*
X936600Y187500D02*
G54D17*
D03*
X1025520Y120751D02*
G54D18*
D03*
X974720Y120751D02*
G54D18*
D03*
G36*
X889499Y129900D02*
X907499Y129900D01*
X907500Y111700D01*
X889500Y111700D01*
X889499Y129900D01*
G37*
X949300Y120800D02*
G54D18*
D03*
X987400Y298600D02*
G54D19*
D03*
X1012800Y213510D02*
G54D20*
D03*
X962000Y213510D02*
G54D20*
D03*
X815550Y168700D02*
G54D21*
D03*
X860850Y168700D02*
G54D21*
D03*
X898500Y308760D02*
G54D22*
D03*
X898500Y265760D02*
G54D22*
D03*
X710350Y774797D02*
G54D10*
D03*
X752600Y802797D02*
G54D11*
D03*
X746100Y802797D02*
G54D11*
D03*
X739600Y802797D02*
G54D11*
D03*
X733100Y802797D02*
G54D11*
D03*
X726600Y802797D02*
G54D11*
D03*
X720099Y802797D02*
G54D11*
D03*
X713600Y802797D02*
G54D11*
D03*
X707100Y802797D02*
G54D11*
D03*
X700600Y802797D02*
G54D11*
D03*
X694100Y802797D02*
G54D11*
D03*
X687600Y802797D02*
G54D11*
D03*
X681100Y802797D02*
G54D11*
D03*
X674600Y802797D02*
G54D11*
D03*
X668100Y802797D02*
G54D11*
D03*
X668100Y746797D02*
G54D11*
D03*
X674600Y746797D02*
G54D11*
D03*
X681100Y746797D02*
G54D11*
D03*
X687600Y746797D02*
G54D11*
D03*
X694100Y746797D02*
G54D11*
D03*
X700600Y746797D02*
G54D11*
D03*
X707100Y746797D02*
G54D11*
D03*
X713600Y746797D02*
G54D11*
D03*
X720100Y746797D02*
G54D11*
D03*
X726600Y746797D02*
G54D11*
D03*
X733100Y746797D02*
G54D11*
D03*
X739600Y746797D02*
G54D11*
D03*
X746100Y746797D02*
G54D11*
D03*
X752600Y746797D02*
G54D11*
D03*
X779740Y813050D02*
G54D12*
D03*
X779740Y830050D02*
G54D12*
D03*
X737585Y840600D02*
G54D13*
D03*
G36*
X748085Y847600D02*
X761085Y847600D01*
X761085Y833600D01*
X748085Y833600D01*
X748085Y847600D01*
G37*
X643850Y736850D02*
G54D12*
D03*
X643850Y753850D02*
G54D12*
D03*
X510324Y774797D02*
G54D10*
D03*
X552575Y802797D02*
G54D11*
D03*
X546074Y802797D02*
G54D11*
D03*
X539574Y802797D02*
G54D11*
D03*
X533075Y802797D02*
G54D11*
D03*
X526574Y802797D02*
G54D11*
D03*
X520074Y802797D02*
G54D11*
D03*
X513574Y802797D02*
G54D11*
D03*
X507074Y802797D02*
G54D11*
D03*
X500574Y802797D02*
G54D11*
D03*
X494074Y802797D02*
G54D11*
D03*
X487574Y802797D02*
G54D11*
D03*
X481074Y802797D02*
G54D11*
D03*
X474574Y802797D02*
G54D11*
D03*
X468074Y802797D02*
G54D11*
D03*
X468074Y746797D02*
G54D11*
D03*
X474574Y746797D02*
G54D11*
D03*
X481074Y746797D02*
G54D11*
D03*
X487574Y746797D02*
G54D11*
D03*
X494074Y746797D02*
G54D11*
D03*
X500575Y746797D02*
G54D11*
D03*
X507074Y746797D02*
G54D11*
D03*
X513574Y746797D02*
G54D11*
D03*
X520074Y746797D02*
G54D11*
D03*
X526574Y746797D02*
G54D11*
D03*
X533074Y746797D02*
G54D11*
D03*
X539575Y746797D02*
G54D11*
D03*
X546074Y746797D02*
G54D11*
D03*
X552574Y746797D02*
G54D11*
D03*
X579715Y813050D02*
G54D12*
D03*
X579715Y830050D02*
G54D12*
D03*
G36*
X531060Y847600D02*
X544060Y847600D01*
X544060Y833600D01*
X531060Y833600D01*
X531060Y847600D01*
G37*
G36*
X548060Y847600D02*
X561060Y847600D01*
X561060Y833600D01*
X548060Y833600D01*
X548060Y847600D01*
G37*
X443825Y736850D02*
G54D12*
D03*
X443825Y753850D02*
G54D12*
D03*
X310300Y774797D02*
G54D10*
D03*
X352550Y802797D02*
G54D11*
D03*
X346050Y802797D02*
G54D11*
D03*
X339550Y802797D02*
G54D11*
D03*
X333050Y802797D02*
G54D11*
D03*
X326550Y802797D02*
G54D11*
D03*
X320049Y802797D02*
G54D11*
D03*
X313550Y802797D02*
G54D11*
D03*
X307050Y802797D02*
G54D11*
D03*
X300550Y802797D02*
G54D11*
D03*
X294050Y802797D02*
G54D11*
D03*
X287550Y802797D02*
G54D11*
D03*
X281050Y802797D02*
G54D11*
D03*
X274550Y802797D02*
G54D11*
D03*
X268050Y802797D02*
G54D11*
D03*
X268050Y746797D02*
G54D11*
D03*
X274550Y746797D02*
G54D11*
D03*
X281050Y746797D02*
G54D11*
D03*
X287550Y746797D02*
G54D11*
D03*
X294050Y746797D02*
G54D11*
D03*
X300550Y746797D02*
G54D11*
D03*
X307050Y746797D02*
G54D11*
D03*
X313550Y746797D02*
G54D11*
D03*
X320050Y746797D02*
G54D11*
D03*
X326550Y746797D02*
G54D11*
D03*
X333049Y746797D02*
G54D11*
D03*
X339550Y746797D02*
G54D11*
D03*
X346050Y746797D02*
G54D11*
D03*
X352550Y746797D02*
G54D11*
D03*
X379690Y813050D02*
G54D12*
D03*
X379690Y830050D02*
G54D12*
D03*
X337535Y840600D02*
G54D13*
D03*
X354535Y840600D02*
G54D13*
D03*
X243800Y736850D02*
G54D12*
D03*
X243800Y753850D02*
G54D12*
D03*
X835660Y554356D02*
G54D23*
D03*
X835660Y582930D02*
G54D23*
D03*
X660400Y622300D02*
G54D23*
D03*
X660400Y650875D02*
G54D23*
D03*
X701675Y622300D02*
G54D23*
D03*
X701675Y650875D02*
G54D23*
D03*
X701675Y682625D02*
G54D24*
D03*
X701575Y665925D02*
G54D24*
D03*
X742950Y622300D02*
G54D23*
D03*
X742950Y650875D02*
G54D23*
D03*
X742950Y682625D02*
G54D24*
D03*
X742850Y665925D02*
G54D24*
D03*
X784225Y622300D02*
G54D23*
D03*
X784225Y650875D02*
G54D23*
D03*
X605765Y524629D02*
G54D25*
D03*
X599781Y524629D02*
G54D26*
D03*
X610686Y524629D02*
G54D25*
D03*
X615766Y524629D02*
G54D25*
D03*
X620706Y524623D02*
G54D25*
D03*
X625783Y524623D02*
G54D25*
D03*
X630704Y524623D02*
G54D25*
D03*
X635784Y524623D02*
G54D25*
D03*
X640724Y524617D02*
G54D25*
D03*
X645794Y524623D02*
G54D25*
D03*
X650716Y524623D02*
G54D25*
D03*
X655796Y524623D02*
G54D25*
D03*
X660736Y524617D02*
G54D25*
D03*
X665806Y524682D02*
G54D25*
D03*
X670728Y524682D02*
G54D25*
D03*
X675808Y524682D02*
G54D25*
D03*
X680748Y524676D02*
G54D25*
D03*
X685700Y524623D02*
G54D25*
D03*
X691721Y524623D02*
G54D26*
D03*
X605748Y463570D02*
G54D25*
D03*
X599764Y463569D02*
G54D26*
D03*
X610669Y463570D02*
G54D25*
D03*
X615749Y463570D02*
G54D25*
D03*
X620689Y463564D02*
G54D25*
D03*
X625765Y463564D02*
G54D25*
D03*
X630687Y463564D02*
G54D25*
D03*
X635767Y463564D02*
G54D25*
D03*
X640706Y463558D02*
G54D25*
D03*
X645777Y463564D02*
G54D25*
D03*
X650698Y463564D02*
G54D25*
D03*
X655778Y463564D02*
G54D25*
D03*
X660718Y463558D02*
G54D25*
D03*
X665789Y463623D02*
G54D25*
D03*
X670710Y463623D02*
G54D25*
D03*
X675790Y463623D02*
G54D25*
D03*
X680730Y463617D02*
G54D25*
D03*
X685683Y463564D02*
G54D25*
D03*
X691704Y463564D02*
G54D26*
D03*
X644820Y494197D02*
G54D27*
D03*
X460375Y622300D02*
G54D23*
D03*
X460375Y650875D02*
G54D23*
D03*
X501650Y622300D02*
G54D23*
D03*
X501650Y650875D02*
G54D23*
D03*
X501650Y682625D02*
G54D24*
D03*
X501550Y665925D02*
G54D24*
D03*
X542925Y622300D02*
G54D23*
D03*
X542925Y650875D02*
G54D23*
D03*
X542925Y682625D02*
G54D24*
D03*
X542825Y665925D02*
G54D24*
D03*
X584200Y622300D02*
G54D23*
D03*
X584200Y650875D02*
G54D23*
D03*
X260350Y622300D02*
G54D23*
D03*
X260350Y650875D02*
G54D23*
D03*
X301625Y622300D02*
G54D23*
D03*
X301625Y650875D02*
G54D23*
D03*
X301625Y682625D02*
G54D24*
D03*
X301525Y665925D02*
G54D24*
D03*
X342900Y622300D02*
G54D23*
D03*
X342900Y650875D02*
G54D23*
D03*
X342900Y682625D02*
G54D24*
D03*
X342800Y665925D02*
G54D24*
D03*
X384175Y622300D02*
G54D23*
D03*
X384175Y650875D02*
G54D23*
D03*
X384175Y682625D02*
G54D24*
D03*
X384075Y665925D02*
G54D24*
D03*
X351818Y374702D02*
G54D23*
D03*
X351818Y346127D02*
G54D23*
D03*
X310543Y374702D02*
G54D23*
D03*
X310543Y346127D02*
G54D23*
D03*
X269268Y374702D02*
G54D23*
D03*
X269268Y346127D02*
G54D23*
D03*
X269268Y314377D02*
G54D24*
D03*
X269368Y331077D02*
G54D24*
D03*
X227993Y374702D02*
G54D23*
D03*
X227993Y346127D02*
G54D23*
D03*
X551843Y374702D02*
G54D23*
D03*
X551843Y346127D02*
G54D23*
D03*
X510568Y374702D02*
G54D23*
D03*
X510568Y346127D02*
G54D23*
D03*
X469293Y374702D02*
G54D23*
D03*
X469293Y346127D02*
G54D23*
D03*
X469293Y314377D02*
G54D24*
D03*
X469393Y331077D02*
G54D24*
D03*
X428018Y374702D02*
G54D23*
D03*
X428018Y346127D02*
G54D23*
D03*
X751868Y374702D02*
G54D23*
D03*
X751868Y346127D02*
G54D23*
D03*
X710593Y374702D02*
G54D23*
D03*
X710593Y346127D02*
G54D23*
D03*
X669318Y374702D02*
G54D23*
D03*
X669318Y346127D02*
G54D23*
D03*
X628043Y374702D02*
G54D23*
D03*
X628043Y346127D02*
G54D23*
D03*
X796318Y421692D02*
G54D24*
D03*
X796418Y438392D02*
G54D24*
D03*
X777268Y405182D02*
G54D24*
D03*
X777368Y421882D02*
G54D24*
D03*
X815468Y570472D02*
G54D24*
D03*
X815368Y553772D02*
G54D24*
D03*
X796418Y393307D02*
G54D24*
D03*
X796318Y376607D02*
G54D24*
D03*
G36*
X852392Y734740D02*
X829765Y757368D01*
X873606Y801208D01*
X896233Y778580D01*
X852392Y734740D01*
G37*
G36*
X910764Y793112D02*
X888137Y815740D01*
X931978Y859580D01*
X954605Y836952D01*
X910764Y793112D01*
G37*
X736600Y460375D02*
G54D28*
D03*
X763600Y460375D02*
G54D28*
D03*
X750100Y503025D02*
G54D29*
D03*
G36*
X907900Y464200D02*
X920900Y464200D01*
X920900Y450200D01*
X907900Y450200D01*
X907900Y464200D01*
G37*
X931400Y457200D02*
G54D13*
D03*
X428018Y314377D02*
G54D24*
D03*
X428118Y331077D02*
G54D24*
D03*
X510568Y314377D02*
G54D24*
D03*
X510668Y331077D02*
G54D24*
D03*
X628043Y314377D02*
G54D24*
D03*
X628143Y331077D02*
G54D24*
D03*
X669318Y314377D02*
G54D24*
D03*
X669418Y331077D02*
G54D24*
D03*
X710593Y314377D02*
G54D24*
D03*
X710693Y331077D02*
G54D24*
D03*
X751868Y314377D02*
G54D24*
D03*
X751968Y331077D02*
G54D24*
D03*
X551843Y314377D02*
G54D24*
D03*
X551943Y331077D02*
G54D24*
D03*
X227993Y314377D02*
G54D24*
D03*
X228093Y331077D02*
G54D24*
D03*
X311150Y314325D02*
G54D24*
D03*
X311250Y331025D02*
G54D24*
D03*
X351818Y314377D02*
G54D24*
D03*
X351918Y331077D02*
G54D24*
D03*
X260350Y682625D02*
G54D24*
D03*
X260250Y665925D02*
G54D24*
D03*
X460375Y682625D02*
G54D24*
D03*
X460275Y665925D02*
G54D24*
D03*
X584200Y688975D02*
G54D24*
D03*
X584100Y672275D02*
G54D24*
D03*
X660400Y682625D02*
G54D24*
D03*
X660300Y665925D02*
G54D24*
D03*
X784225Y682625D02*
G54D24*
D03*
X784125Y665925D02*
G54D24*
D03*
X772160Y554356D02*
G54D23*
D03*
X772160Y582931D02*
G54D23*
D03*
X793243Y570472D02*
G54D24*
D03*
X793143Y553772D02*
G54D24*
D03*
G36*
X979392Y674415D02*
X956765Y697043D01*
X1000606Y740883D01*
X1023233Y718255D01*
X979392Y674415D01*
G37*
G36*
X1037764Y732787D02*
X1015137Y755415D01*
X1058978Y799255D01*
X1081605Y776627D01*
X1037764Y732787D01*
G37*
M02*
