%FSLAX34Y34*%
%MOMM*%
%LNCOPPER_BOTTOM*%
G71*
G01*
%ADD10C,3.800*%
%ADD11C,0.900*%
%ADD12C,2.100*%
%ADD13C,4.400*%
%ADD14C,4.200*%
%ADD15C,4.000*%
%ADD16C,4.600*%
%ADD17C,3.000*%
%ADD18C,0.397*%
%ADD19C,1.200*%
%ADD20C,1.000*%
%ADD21C,1.600*%
%ADD22C,1.400*%
%ADD23C,2.100*%
%ADD24C,1.200*%
%ADD25C,1.100*%
%ADD26C,0.800*%
%ADD27C,3.000*%
%ADD28C,4.000*%
%ADD29C,4.000*%
%ADD30C,3.000*%
%ADD31C,2.000*%
%ADD32C,0.238*%
%ADD33C,2.500*%
%ADD34C,2.400*%
%ADD35C,2.200*%
%ADD36C,1.120*%
%ADD37C,0.865*%
%ADD38C,1.753*%
%ADD39C,1.013*%
%ADD40C,2.600*%
%ADD41C,0.600*%
%ADD42C,1.400*%
%ADD43C,0.882*%
%ADD44C,2.800*%
%ADD45C,0.600*%
%ADD46C,0.300*%
%ADD47C,1.500*%
%ADD48C,3.800*%
%ADD49C,2.400*%
%ADD50C,2.000*%
%ADD51C,3.000*%
%ADD52C,0.400*%
%ADD53C,1.000*%
%ADD54C,0.800*%
%ADD55C,1.500*%
%ADD56C,0.900*%
%ADD57C,2.000*%
%ADD58C,2.600*%
%ADD59C,1.500*%
%ADD60C,1.400*%
%LPD*%
G36*
X-203200Y1193800D02*
X1496800Y1193800D01*
X1496800Y-206200D01*
X-203200Y-206200D01*
X-203200Y1193800D01*
G37*
%LPC*%
X579890Y49750D02*
G54D10*
D03*
X529890Y49750D02*
G54D10*
D03*
X479890Y49750D02*
G54D10*
D03*
X429890Y49750D02*
G54D10*
D03*
X379890Y49750D02*
G54D10*
D03*
X329890Y49750D02*
G54D10*
D03*
X279890Y49750D02*
G54D10*
D03*
X229890Y49750D02*
G54D10*
D03*
X779890Y49750D02*
G54D10*
D03*
X729890Y49750D02*
G54D10*
D03*
X679890Y49750D02*
G54D10*
D03*
X629890Y49750D02*
G54D10*
D03*
G36*
X354600Y188050D02*
X354600Y264249D01*
X249825Y264250D01*
X249825Y188050D01*
X354600Y188050D01*
G37*
G54D11*
X354600Y188050D02*
X354600Y264249D01*
X249825Y264250D01*
X249825Y188050D01*
X354600Y188050D01*
G36*
X1178900Y899500D02*
X1178900Y878500D01*
X1157900Y878500D01*
X1157900Y899500D01*
X1178900Y899500D01*
G37*
X1193800Y889000D02*
G54D12*
D03*
X1168400Y863600D02*
G54D12*
D03*
X1193800Y863600D02*
G54D12*
D03*
X1168400Y838200D02*
G54D12*
D03*
X1193800Y838200D02*
G54D12*
D03*
X1168400Y812800D02*
G54D12*
D03*
X1193800Y812800D02*
G54D12*
D03*
X1168400Y787400D02*
G54D12*
D03*
X1193800Y787400D02*
G54D12*
D03*
X1168400Y762000D02*
G54D12*
D03*
X1193800Y762000D02*
G54D12*
D03*
X1168400Y736600D02*
G54D12*
D03*
X1193800Y736600D02*
G54D12*
D03*
X1168400Y711200D02*
G54D12*
D03*
X1193800Y711200D02*
G54D12*
D03*
X1168400Y685800D02*
G54D12*
D03*
X1193800Y685800D02*
G54D12*
D03*
X1168400Y660400D02*
G54D12*
D03*
X1193800Y660400D02*
G54D12*
D03*
X1168400Y635000D02*
G54D12*
D03*
X1193800Y635000D02*
G54D12*
D03*
X1168400Y609600D02*
G54D12*
D03*
X1193800Y609600D02*
G54D12*
D03*
X1168400Y584200D02*
G54D12*
D03*
X1193800Y584200D02*
G54D12*
D03*
X1193800Y558800D02*
G54D12*
D03*
X1168400Y533400D02*
G54D12*
D03*
X1193800Y533400D02*
G54D12*
D03*
X1168400Y508000D02*
G54D12*
D03*
X1193800Y508000D02*
G54D12*
D03*
X1168400Y482600D02*
G54D12*
D03*
X1193800Y482600D02*
G54D12*
D03*
X1168400Y457200D02*
G54D12*
D03*
X1193800Y457200D02*
G54D12*
D03*
X1168400Y431800D02*
G54D12*
D03*
X1193800Y431800D02*
G54D12*
D03*
X1168400Y406400D02*
G54D12*
D03*
X1193800Y406400D02*
G54D12*
D03*
X1168400Y381000D02*
G54D12*
D03*
X1193800Y381000D02*
G54D12*
D03*
X1168400Y355600D02*
G54D12*
D03*
X1193800Y355600D02*
G54D12*
D03*
X1168400Y330200D02*
G54D12*
D03*
X1193800Y330200D02*
G54D12*
D03*
X1168400Y304800D02*
G54D12*
D03*
X1193800Y304800D02*
G54D12*
D03*
X1168400Y279400D02*
G54D12*
D03*
X1193800Y279400D02*
G54D12*
D03*
X1168400Y254000D02*
G54D12*
D03*
X1193800Y254000D02*
G54D12*
D03*
X1168400Y558800D02*
G54D12*
D03*
X1168400Y228600D02*
G54D12*
D03*
X1193800Y228600D02*
G54D12*
D03*
X1168400Y203200D02*
G54D12*
D03*
X1193800Y203200D02*
G54D12*
D03*
X1168400Y177800D02*
G54D12*
D03*
X1193800Y177800D02*
G54D12*
D03*
X1168400Y152400D02*
G54D12*
D03*
X1193800Y152400D02*
G54D12*
D03*
X1193800Y127000D02*
G54D12*
D03*
X1168400Y101600D02*
G54D12*
D03*
X1193800Y101600D02*
G54D12*
D03*
X1168400Y76200D02*
G54D12*
D03*
X1193800Y76200D02*
G54D12*
D03*
X1168400Y50800D02*
G54D12*
D03*
X1193800Y50800D02*
G54D12*
D03*
X1168400Y25400D02*
G54D12*
D03*
X1193800Y25400D02*
G54D12*
D03*
X1168400Y127000D02*
G54D12*
D03*
X1245088Y920171D02*
G54D13*
D03*
X1257788Y164521D02*
G54D13*
D03*
G36*
X137500Y899500D02*
X137500Y878500D01*
X116500Y878500D01*
X116500Y899500D01*
X137500Y899500D01*
G37*
X101600Y889000D02*
G54D12*
D03*
X127000Y863600D02*
G54D12*
D03*
X101600Y863600D02*
G54D12*
D03*
X127000Y838200D02*
G54D12*
D03*
X101600Y838200D02*
G54D12*
D03*
X127000Y812800D02*
G54D12*
D03*
X101600Y812800D02*
G54D12*
D03*
X127000Y787400D02*
G54D12*
D03*
X101600Y787400D02*
G54D12*
D03*
X127000Y762000D02*
G54D12*
D03*
X101600Y762000D02*
G54D12*
D03*
X127000Y736600D02*
G54D12*
D03*
X101600Y736600D02*
G54D12*
D03*
X127000Y711200D02*
G54D12*
D03*
X101600Y711200D02*
G54D12*
D03*
X127000Y685800D02*
G54D12*
D03*
X101600Y685800D02*
G54D12*
D03*
X127000Y660400D02*
G54D12*
D03*
X101600Y660400D02*
G54D12*
D03*
X127000Y635000D02*
G54D12*
D03*
X101600Y635000D02*
G54D12*
D03*
X127000Y609600D02*
G54D12*
D03*
X101600Y609600D02*
G54D12*
D03*
X127000Y584200D02*
G54D12*
D03*
X101600Y584200D02*
G54D12*
D03*
X101600Y558800D02*
G54D12*
D03*
X127000Y533400D02*
G54D12*
D03*
X101600Y533400D02*
G54D12*
D03*
X127000Y508000D02*
G54D12*
D03*
X101600Y508000D02*
G54D12*
D03*
X127000Y482600D02*
G54D12*
D03*
X101600Y482600D02*
G54D12*
D03*
X127000Y457200D02*
G54D12*
D03*
X101600Y457200D02*
G54D12*
D03*
X127000Y431800D02*
G54D12*
D03*
X101600Y431800D02*
G54D12*
D03*
X127000Y406400D02*
G54D12*
D03*
X101600Y406400D02*
G54D12*
D03*
X127000Y381000D02*
G54D12*
D03*
X101600Y381000D02*
G54D12*
D03*
X127000Y355600D02*
G54D12*
D03*
X101600Y355600D02*
G54D12*
D03*
X127000Y330200D02*
G54D12*
D03*
X101600Y330200D02*
G54D12*
D03*
X127000Y304800D02*
G54D12*
D03*
X101600Y304800D02*
G54D12*
D03*
X127000Y279400D02*
G54D12*
D03*
X101600Y279400D02*
G54D12*
D03*
X127000Y254000D02*
G54D12*
D03*
X101600Y254000D02*
G54D12*
D03*
X127000Y558800D02*
G54D12*
D03*
X127000Y228600D02*
G54D12*
D03*
X101600Y228600D02*
G54D12*
D03*
X127000Y203200D02*
G54D12*
D03*
X101600Y203200D02*
G54D12*
D03*
X127000Y177800D02*
G54D12*
D03*
X101600Y177800D02*
G54D12*
D03*
X127000Y152400D02*
G54D12*
D03*
X101600Y152400D02*
G54D12*
D03*
X101600Y127000D02*
G54D12*
D03*
X127000Y101600D02*
G54D12*
D03*
X101600Y101600D02*
G54D12*
D03*
X127000Y76200D02*
G54D12*
D03*
X101600Y76200D02*
G54D12*
D03*
X127000Y50800D02*
G54D12*
D03*
X101600Y50800D02*
G54D12*
D03*
X127000Y25400D02*
G54D12*
D03*
X101600Y25400D02*
G54D12*
D03*
X127000Y127000D02*
G54D12*
D03*
X50312Y920171D02*
G54D13*
D03*
X37612Y164521D02*
G54D13*
D03*
X579890Y949750D02*
G54D10*
D03*
X529890Y949750D02*
G54D10*
D03*
X479890Y949750D02*
G54D10*
D03*
X429890Y949750D02*
G54D10*
D03*
X379890Y949750D02*
G54D10*
D03*
X329890Y949750D02*
G54D10*
D03*
X279890Y949750D02*
G54D10*
D03*
X229890Y949750D02*
G54D10*
D03*
X779890Y949750D02*
G54D10*
D03*
X729890Y949750D02*
G54D10*
D03*
X679890Y949750D02*
G54D10*
D03*
X629890Y949750D02*
G54D10*
D03*
X962000Y57300D02*
G54D14*
D03*
X988579Y915425D02*
G54D15*
D03*
X950479Y915425D02*
G54D15*
D03*
X988579Y915425D02*
G54D15*
D03*
X950479Y915425D02*
G54D15*
D03*
X1026679Y915425D02*
G54D15*
D03*
X912379Y915425D02*
G54D15*
D03*
X1071652Y915424D02*
G54D16*
D03*
X867420Y915423D02*
G54D16*
D03*
X1026679Y915425D02*
G54D14*
D03*
X988579Y915425D02*
G54D14*
D03*
X950479Y915425D02*
G54D14*
D03*
X912379Y915425D02*
G54D14*
D03*
X962000Y57300D02*
G54D17*
D03*
X1000100Y57300D02*
G54D17*
D03*
X962000Y57300D02*
G54D17*
D03*
X1000100Y57300D02*
G54D17*
D03*
X923900Y57300D02*
G54D17*
D03*
G54D18*
X36102Y824197D02*
X44435Y835308D01*
X22213Y835308D01*
G54D18*
X22213Y860863D02*
X22213Y843086D01*
X23602Y843086D01*
X26379Y845308D01*
X34713Y858641D01*
X37490Y860863D01*
X40268Y860863D01*
X43046Y858641D01*
X44435Y854197D01*
X44435Y849752D01*
X43046Y845308D01*
X40268Y843086D01*
G54D18*
X44435Y868642D02*
X22213Y879753D01*
X44435Y890864D01*
G54D18*
X1266120Y878100D02*
X1257787Y866988D01*
X1280009Y866988D01*
G54D18*
X1280009Y841433D02*
X1280009Y859211D01*
X1278620Y859211D01*
X1275842Y856988D01*
X1267509Y843655D01*
X1264731Y841433D01*
X1261953Y841433D01*
X1259176Y843655D01*
X1257787Y848100D01*
X1257787Y852544D01*
X1259176Y856988D01*
X1261953Y859211D01*
G54D18*
X1257787Y833655D02*
X1280009Y822544D01*
X1257787Y811432D01*
X291710Y178022D02*
G54D19*
D03*
X311460Y178022D02*
G54D19*
D03*
G36*
X256754Y277097D02*
X381537Y277090D01*
X381532Y264397D01*
X250397Y264450D01*
X250404Y270747D01*
X256754Y277097D01*
G37*
G54D20*
X256754Y277097D02*
X381537Y277090D01*
X381532Y264397D01*
X250397Y264450D01*
X250404Y270747D01*
X256754Y277097D01*
X781050Y501650D02*
G54D21*
D03*
X831850Y463550D02*
G54D19*
D03*
X828675Y482600D02*
G54D19*
D03*
X825500Y533400D02*
G54D19*
D03*
X831850Y539750D02*
G54D19*
D03*
G54D11*
X828675Y482600D02*
X828675Y530225D01*
X825500Y533400D01*
G54D11*
X831850Y463550D02*
X835025Y466725D01*
X835025Y536575D01*
X831850Y539750D01*
X993227Y493212D02*
G54D21*
D03*
X869950Y406400D02*
G54D22*
D03*
X933450Y438150D02*
G54D22*
D03*
X127000Y228600D02*
G54D23*
D03*
X101600Y101600D02*
G54D23*
D03*
X101600Y406400D02*
G54D23*
D03*
X1168400Y660400D02*
G54D23*
D03*
X1193800Y660400D02*
G54D23*
D03*
X1193800Y635000D02*
G54D23*
D03*
X1193800Y152400D02*
G54D23*
D03*
X1168400Y279400D02*
G54D23*
D03*
X1193800Y812800D02*
G54D23*
D03*
X677195Y558450D02*
G54D19*
D03*
X127000Y660400D02*
G54D23*
D03*
G54D24*
X993994Y454372D02*
X977900Y438150D01*
X933450Y438150D01*
G36*
X592325Y527398D02*
X592325Y460723D01*
X697100Y460723D01*
X697100Y527398D01*
X592325Y527398D01*
G37*
G54D25*
X592325Y527398D02*
X592325Y460723D01*
X697100Y460723D01*
X697100Y527398D01*
X592325Y527398D01*
X358820Y270897D02*
G54D26*
D03*
X368344Y274072D02*
G54D26*
D03*
G36*
X373570Y191522D02*
X367220Y201047D01*
X379920Y201047D01*
X373570Y191522D01*
G37*
G54D11*
X373570Y191522D02*
X367220Y201047D01*
X379920Y201047D01*
X373570Y191522D01*
G36*
X373617Y216957D02*
X379967Y207432D01*
X367267Y207432D01*
X373617Y216957D01*
G37*
G54D11*
X373617Y216957D02*
X379967Y207432D01*
X367267Y207432D01*
X373617Y216957D01*
G36*
X389444Y172472D02*
X383094Y181997D01*
X395794Y181997D01*
X389444Y172472D01*
G37*
G54D11*
X389444Y172472D02*
X383094Y181997D01*
X395794Y181997D01*
X389444Y172472D01*
G36*
X389492Y197907D02*
X395842Y188382D01*
X383142Y188382D01*
X389492Y197907D01*
G37*
G54D11*
X389492Y197907D02*
X395842Y188382D01*
X383142Y188382D01*
X389492Y197907D01*
G54D20*
X311460Y178022D02*
X311460Y176672D01*
X317998Y170133D01*
X368056Y170133D01*
X373570Y175647D01*
X373570Y194697D01*
G54D20*
X373570Y213747D02*
X373570Y220097D01*
X367220Y226447D01*
X354520Y226447D01*
G54D20*
X389492Y194732D02*
X389444Y220097D01*
X383094Y226447D01*
X367220Y226447D01*
G54D20*
X291710Y178022D02*
X291020Y177332D01*
X291020Y169297D01*
X297370Y162947D01*
X383094Y162947D01*
X389444Y169297D01*
X389444Y175647D01*
G36*
X554625Y188050D02*
X554625Y264249D01*
X449850Y264250D01*
X449850Y188050D01*
X554625Y188050D01*
G37*
G54D11*
X554625Y188050D02*
X554625Y264249D01*
X449850Y264250D01*
X449850Y188050D01*
X554625Y188050D01*
X491734Y178022D02*
G54D19*
D03*
X511484Y178022D02*
G54D19*
D03*
G36*
X456780Y277097D02*
X581562Y277090D01*
X581557Y264397D01*
X450422Y264450D01*
X450430Y270747D01*
X456780Y277097D01*
G37*
G54D20*
X456780Y277097D02*
X581562Y277090D01*
X581557Y264397D01*
X450422Y264450D01*
X450430Y270747D01*
X456780Y277097D01*
X558844Y270897D02*
G54D26*
D03*
X568370Y274072D02*
G54D26*
D03*
G36*
X573594Y191522D02*
X567244Y201047D01*
X579944Y201047D01*
X573594Y191522D01*
G37*
G54D11*
X573594Y191522D02*
X567244Y201047D01*
X579944Y201047D01*
X573594Y191522D01*
G36*
X573642Y216957D02*
X579992Y207432D01*
X567292Y207432D01*
X573642Y216957D01*
G37*
G54D11*
X573642Y216957D02*
X579992Y207432D01*
X567292Y207432D01*
X573642Y216957D01*
G36*
X589470Y172472D02*
X583120Y181997D01*
X595820Y181997D01*
X589470Y172472D01*
G37*
G54D11*
X589470Y172472D02*
X583120Y181997D01*
X595820Y181997D01*
X589470Y172472D01*
G36*
X589517Y197907D02*
X595867Y188382D01*
X583167Y188382D01*
X589517Y197907D01*
G37*
G54D11*
X589517Y197907D02*
X595867Y188382D01*
X583167Y188382D01*
X589517Y197907D01*
G54D20*
X511484Y178022D02*
X511484Y176672D01*
X518023Y170133D01*
X568081Y170133D01*
X573594Y175647D01*
X573594Y194697D01*
G54D20*
X573594Y213747D02*
X573594Y220097D01*
X567244Y226447D01*
X554544Y226447D01*
G54D20*
X589517Y194732D02*
X589470Y220097D01*
X583120Y226447D01*
X567244Y226447D01*
G54D20*
X491734Y178022D02*
X491044Y177332D01*
X491044Y169297D01*
X497394Y162947D01*
X583120Y162947D01*
X589470Y169297D01*
X589470Y175647D01*
G36*
X754650Y188050D02*
X754650Y264249D01*
X649875Y264250D01*
X649875Y188050D01*
X754650Y188050D01*
G37*
G54D11*
X754650Y188050D02*
X754650Y264249D01*
X649875Y264250D01*
X649875Y188050D01*
X754650Y188050D01*
X691760Y178022D02*
G54D19*
D03*
X711510Y178022D02*
G54D19*
D03*
G36*
X656804Y277097D02*
X781587Y277090D01*
X781582Y264397D01*
X650447Y264450D01*
X650454Y270747D01*
X656804Y277097D01*
G37*
G54D20*
X656804Y277097D02*
X781587Y277090D01*
X781582Y264397D01*
X650447Y264450D01*
X650454Y270747D01*
X656804Y277097D01*
X758870Y270897D02*
G54D26*
D03*
X768394Y274072D02*
G54D26*
D03*
G36*
X773620Y191522D02*
X767270Y201047D01*
X779970Y201047D01*
X773620Y191522D01*
G37*
G54D11*
X773620Y191522D02*
X767270Y201047D01*
X779970Y201047D01*
X773620Y191522D01*
G36*
X773667Y216957D02*
X780017Y207432D01*
X767317Y207432D01*
X773667Y216957D01*
G37*
G54D11*
X773667Y216957D02*
X780017Y207432D01*
X767317Y207432D01*
X773667Y216957D01*
G36*
X789494Y172472D02*
X783144Y181997D01*
X795844Y181997D01*
X789494Y172472D01*
G37*
G54D11*
X789494Y172472D02*
X783144Y181997D01*
X795844Y181997D01*
X789494Y172472D01*
G36*
X789542Y197907D02*
X795892Y188382D01*
X783192Y188382D01*
X789542Y197907D01*
G37*
G54D11*
X789542Y197907D02*
X795892Y188382D01*
X783192Y188382D01*
X789542Y197907D01*
G54D20*
X711510Y178022D02*
X711510Y176672D01*
X718048Y170133D01*
X768106Y170133D01*
X773620Y175647D01*
X773620Y194697D01*
G54D20*
X773620Y213747D02*
X773620Y220097D01*
X767270Y226447D01*
X754570Y226447D01*
G54D20*
X789542Y194732D02*
X789494Y220097D01*
X783144Y226447D01*
X767270Y226447D01*
G54D20*
X691760Y178022D02*
X691070Y177332D01*
X691070Y169297D01*
X697420Y162947D01*
X783144Y162947D01*
X789494Y169297D01*
X789494Y175647D01*
X993994Y454372D02*
G54D19*
D03*
X1041400Y558800D02*
G54D17*
D03*
X1041400Y533400D02*
G54D17*
D03*
X1041400Y508000D02*
G54D17*
D03*
X1041400Y533400D02*
G54D17*
D03*
X1041400Y558800D02*
G54D27*
D03*
X1017758Y454113D02*
G54D19*
D03*
G54D24*
X1017758Y454113D02*
X1017758Y420858D01*
X1003300Y406400D01*
X836150Y406400D01*
X898500Y308760D02*
G54D28*
D03*
X896675Y828591D02*
G54D29*
D03*
X819150Y254000D02*
G54D17*
D03*
X793750Y742950D02*
G54D17*
D03*
G36*
X657350Y809147D02*
X657349Y732948D01*
X762124Y732947D01*
X762124Y809147D01*
X657350Y809147D01*
G37*
G54D11*
X657350Y809147D02*
X657349Y732948D01*
X762124Y732947D01*
X762124Y809147D01*
X657350Y809147D01*
X720240Y819175D02*
G54D19*
D03*
X700490Y819175D02*
G54D19*
D03*
G36*
X755195Y720100D02*
X630413Y720106D01*
X630418Y732800D01*
X761552Y732747D01*
X761545Y726450D01*
X755195Y720100D01*
G37*
G54D20*
X755195Y720100D02*
X630413Y720106D01*
X630418Y732800D01*
X761552Y732747D01*
X761545Y726450D01*
X755195Y720100D01*
X653130Y726300D02*
G54D26*
D03*
X643605Y723125D02*
G54D26*
D03*
G36*
X638380Y805675D02*
X644730Y796150D01*
X632030Y796150D01*
X638380Y805675D01*
G37*
G54D11*
X638380Y805675D02*
X644730Y796150D01*
X632030Y796150D01*
X638380Y805675D01*
G36*
X638332Y780240D02*
X631982Y789765D01*
X644683Y789765D01*
X638332Y780240D01*
G37*
G54D11*
X638332Y780240D02*
X631982Y789765D01*
X644683Y789765D01*
X638332Y780240D01*
G36*
X622505Y824725D02*
X628855Y815200D01*
X616155Y815200D01*
X622505Y824725D01*
G37*
G54D11*
X622505Y824725D02*
X628855Y815200D01*
X616155Y815200D01*
X622505Y824725D01*
G36*
X622458Y799290D02*
X616107Y808815D01*
X628808Y808815D01*
X622458Y799290D01*
G37*
G54D11*
X622458Y799290D02*
X616107Y808815D01*
X628808Y808815D01*
X622458Y799290D01*
G54D20*
X700490Y819175D02*
X700490Y820525D01*
X693952Y827064D01*
X643894Y827064D01*
X638380Y821550D01*
X638380Y802500D01*
G54D20*
X638380Y783450D02*
X638380Y777100D01*
X644730Y770750D01*
X657430Y770750D01*
G54D20*
X622458Y802465D02*
X622505Y777100D01*
X628855Y770750D01*
X644730Y770750D01*
G54D20*
X720240Y819175D02*
X720930Y819865D01*
X720930Y827900D01*
X714580Y834250D01*
X628855Y834250D01*
X622505Y827900D01*
X622505Y821550D01*
G36*
X457324Y809147D02*
X457324Y732948D01*
X562100Y732947D01*
X562100Y809147D01*
X457324Y809147D01*
G37*
G54D11*
X457324Y809147D02*
X457324Y732948D01*
X562100Y732947D01*
X562100Y809147D01*
X457324Y809147D01*
X520215Y819175D02*
G54D19*
D03*
X500465Y819175D02*
G54D19*
D03*
G36*
X555170Y720100D02*
X430388Y720106D01*
X430393Y732800D01*
X561527Y732747D01*
X561520Y726450D01*
X555170Y720100D01*
G37*
G54D20*
X555170Y720100D02*
X430388Y720106D01*
X430393Y732800D01*
X561527Y732747D01*
X561520Y726450D01*
X555170Y720100D01*
X453105Y726300D02*
G54D26*
D03*
X443580Y723125D02*
G54D26*
D03*
G36*
X438355Y805675D02*
X444705Y796150D01*
X432005Y796150D01*
X438355Y805675D01*
G37*
G54D11*
X438355Y805675D02*
X444705Y796150D01*
X432005Y796150D01*
X438355Y805675D01*
G36*
X438308Y780240D02*
X431957Y789765D01*
X444658Y789765D01*
X438308Y780240D01*
G37*
G54D11*
X438308Y780240D02*
X431957Y789765D01*
X444658Y789765D01*
X438308Y780240D01*
G36*
X422480Y824725D02*
X428830Y815200D01*
X416130Y815200D01*
X422480Y824725D01*
G37*
G54D11*
X422480Y824725D02*
X428830Y815200D01*
X416130Y815200D01*
X422480Y824725D01*
G36*
X422432Y799290D02*
X416082Y808815D01*
X428782Y808815D01*
X422432Y799290D01*
G37*
G54D11*
X422432Y799290D02*
X416082Y808815D01*
X428782Y808815D01*
X422432Y799290D01*
G54D20*
X500465Y819175D02*
X500465Y820525D01*
X493926Y827064D01*
X443868Y827064D01*
X438355Y821550D01*
X438355Y802500D01*
G54D20*
X438355Y783450D02*
X438355Y777100D01*
X444705Y770750D01*
X457405Y770750D01*
G54D20*
X422432Y802465D02*
X422480Y777100D01*
X428830Y770750D01*
X444705Y770750D01*
G54D20*
X520215Y819175D02*
X520905Y819865D01*
X520905Y827900D01*
X514555Y834250D01*
X428830Y834250D01*
X422480Y827900D01*
X422480Y821550D01*
G36*
X257300Y809147D02*
X257299Y732948D01*
X362074Y732947D01*
X362074Y809147D01*
X257300Y809147D01*
G37*
G54D11*
X257300Y809147D02*
X257299Y732948D01*
X362074Y732947D01*
X362074Y809147D01*
X257300Y809147D01*
X320190Y819175D02*
G54D19*
D03*
X300440Y819175D02*
G54D19*
D03*
G36*
X355145Y720100D02*
X230362Y720106D01*
X230368Y732800D01*
X361502Y732747D01*
X361495Y726450D01*
X355145Y720100D01*
G37*
G54D20*
X355145Y720100D02*
X230362Y720106D01*
X230368Y732800D01*
X361502Y732747D01*
X361495Y726450D01*
X355145Y720100D01*
X253080Y726300D02*
G54D26*
D03*
X243555Y723125D02*
G54D26*
D03*
G36*
X238330Y805675D02*
X244680Y796150D01*
X231980Y796150D01*
X238330Y805675D01*
G37*
G54D11*
X238330Y805675D02*
X244680Y796150D01*
X231980Y796150D01*
X238330Y805675D01*
G36*
X238282Y780240D02*
X231932Y789765D01*
X244633Y789765D01*
X238282Y780240D01*
G37*
G54D11*
X238282Y780240D02*
X231932Y789765D01*
X244633Y789765D01*
X238282Y780240D01*
G36*
X222455Y824725D02*
X228805Y815200D01*
X216105Y815200D01*
X222455Y824725D01*
G37*
G54D11*
X222455Y824725D02*
X228805Y815200D01*
X216105Y815200D01*
X222455Y824725D01*
G36*
X222408Y799290D02*
X216057Y808815D01*
X228758Y808815D01*
X222408Y799290D01*
G37*
G54D11*
X222408Y799290D02*
X216057Y808815D01*
X228758Y808815D01*
X222408Y799290D01*
G54D20*
X300440Y819175D02*
X300440Y820525D01*
X293902Y827064D01*
X243844Y827064D01*
X238330Y821550D01*
X238330Y802500D01*
G54D20*
X238330Y783450D02*
X238330Y777100D01*
X244680Y770750D01*
X257380Y770750D01*
G54D20*
X222408Y802465D02*
X222455Y777100D01*
X228805Y770750D01*
X244680Y770750D01*
G54D20*
X320190Y819175D02*
X320880Y819865D01*
X320880Y827900D01*
X314530Y834250D01*
X228805Y834250D01*
X222455Y827900D01*
X222455Y821550D01*
X838834Y582930D02*
G54D21*
D03*
X245045Y396175D02*
G54D19*
D03*
X287272Y389825D02*
G54D19*
D03*
X328865Y383475D02*
G54D19*
D03*
X371727Y365695D02*
G54D19*
D03*
X444500Y358775D02*
G54D19*
D03*
X487045Y352425D02*
G54D19*
D03*
X528955Y346075D02*
G54D19*
D03*
X571500Y339725D02*
G54D19*
D03*
X650875Y333375D02*
G54D19*
D03*
X692150Y327025D02*
G54D19*
D03*
X730250Y320675D02*
G54D19*
D03*
X765175Y314325D02*
G54D19*
D03*
X739775Y711200D02*
G54D19*
D03*
X727075Y704850D02*
G54D19*
D03*
X708025Y698500D02*
G54D19*
D03*
X679450Y692150D02*
G54D19*
D03*
X565150Y685800D02*
G54D19*
D03*
X520700Y679450D02*
G54D19*
D03*
X482600Y673100D02*
G54D19*
D03*
X444500Y666750D02*
G54D19*
D03*
X368300Y660400D02*
G54D19*
D03*
X330200Y609600D02*
G54D19*
D03*
X284480Y603250D02*
G54D19*
D03*
X238125Y596900D02*
G54D19*
D03*
G54D30*
X353615Y729939D02*
X366626Y742950D01*
X793750Y742950D01*
G54D30*
X349250Y254038D02*
X819150Y254000D01*
G54D24*
X127000Y279400D02*
X209550Y279400D01*
X234950Y304800D01*
X768350Y304800D01*
G54D20*
X222250Y317500D02*
X819150Y317500D01*
X939800Y438150D01*
X939800Y654050D01*
X914400Y679450D01*
X222250Y679450D01*
X196850Y654050D01*
X196850Y342900D01*
X222250Y317500D01*
G54D31*
X1030738Y475113D02*
X1041400Y485775D01*
X1041400Y508000D01*
G54D32*
X208917Y503683D02*
X208917Y514350D01*
X214750Y514350D01*
X214750Y513017D01*
X213917Y510350D01*
X213917Y507683D01*
X214750Y505017D01*
X216417Y503683D01*
X219750Y503683D01*
X221417Y505017D01*
X222250Y507683D01*
X222250Y510350D01*
X221417Y513017D01*
X219750Y514350D01*
G54D32*
X208917Y499016D02*
X222250Y492349D01*
X208917Y485683D01*
X1017358Y475113D02*
G54D19*
D03*
X889000Y463549D02*
G54D21*
D03*
X815468Y570472D02*
G54D19*
D03*
X777368Y421882D02*
G54D19*
D03*
X796318Y421692D02*
G54D19*
D03*
X698500Y447675D02*
G54D19*
D03*
X784225Y622300D02*
G54D19*
D03*
X742950Y622300D02*
G54D19*
D03*
X701675Y622300D02*
G54D19*
D03*
X660400Y622300D02*
G54D19*
D03*
X584200Y622300D02*
G54D19*
D03*
X542925Y622300D02*
G54D19*
D03*
X501650Y622300D02*
G54D19*
D03*
X460375Y622300D02*
G54D19*
D03*
X384175Y622300D02*
G54D19*
D03*
X342900Y622300D02*
G54D19*
D03*
X301625Y622300D02*
G54D19*
D03*
X260350Y622300D02*
G54D19*
D03*
X751868Y374702D02*
G54D19*
D03*
X796318Y376607D02*
G54D19*
D03*
X845609Y394759D02*
G54D19*
D03*
X1053041Y394759D02*
G54D19*
D03*
G54D11*
X845609Y394759D02*
X1053041Y394759D01*
G54D11*
X127000Y254000D02*
X200025Y254000D01*
X243192Y297167D01*
X775594Y297167D01*
G54D11*
X775594Y297167D02*
X784225Y305435D01*
X873125Y394335D02*
G54D19*
D03*
X1009650Y511175D02*
G54D19*
D03*
G54D11*
X677195Y558450D02*
X717900Y558450D01*
X730250Y546100D01*
X838200Y546100D01*
X881062Y517525D02*
G54D19*
D03*
G54D11*
X838200Y546100D02*
X841375Y542925D01*
X841375Y523875D01*
G54D11*
X841375Y523875D02*
X847725Y517525D01*
X881062Y517525D01*
G54D11*
X677195Y558450D02*
X658495Y539750D01*
X590550Y539750D01*
X584200Y533400D01*
X584200Y444500D01*
X584200Y444500D02*
G54D19*
D03*
X896675Y828591D02*
G54D29*
D03*
X860754Y792670D02*
G54D29*
D03*
X1023675Y768266D02*
G54D29*
D03*
G54D11*
X101600Y38100D02*
X190500Y38100D01*
G54D11*
X190500Y38100D02*
X203200Y50800D01*
X203200Y82550D01*
X222250Y101600D01*
X390525Y133350D02*
G54D19*
D03*
X400050Y127000D02*
G54D19*
D03*
X590550Y133350D02*
G54D19*
D03*
X600075Y127000D02*
G54D19*
D03*
X790575Y152400D02*
G54D19*
D03*
X800100Y146050D02*
G54D19*
D03*
G54D11*
X127000Y50800D02*
X114300Y63500D01*
X82550Y63500D01*
X76200Y69850D01*
X76200Y457200D01*
G54D11*
X76200Y933450D02*
X88900Y946150D01*
X114300Y946150D01*
G54D11*
X114300Y946150D02*
X184150Y946150D01*
G54D11*
X184150Y946150D02*
X203200Y927100D01*
X203200Y908050D01*
X222250Y889000D01*
G54D11*
X777875Y898525D02*
X838200Y958850D01*
G54D11*
X1212850Y850900D02*
X1231900Y831850D01*
X1231900Y279400D01*
X222250Y876300D02*
G54D19*
D03*
X422275Y876300D02*
G54D19*
D03*
X622300Y876300D02*
G54D19*
D03*
G54D11*
X101600Y889000D02*
X101600Y933450D01*
X107950Y939800D01*
X177800Y939800D01*
X196850Y920750D01*
X196850Y904875D01*
X212725Y889000D01*
X612775Y869950D02*
G54D19*
D03*
X412900Y869800D02*
G54D19*
D03*
X212725Y869950D02*
G54D19*
D03*
G54D11*
X765175Y314325D02*
X234394Y314325D01*
X215952Y301677D02*
G54D19*
D03*
G54D11*
X234394Y314325D02*
X228600Y314325D01*
X215952Y301677D01*
X215952Y311202D02*
G54D19*
D03*
G54D11*
X215952Y311202D02*
X225425Y320675D01*
X730250Y320675D01*
G54D11*
X692150Y327025D02*
X222250Y327025D01*
X206375Y311150D01*
X206375Y311150D02*
G54D19*
D03*
X206427Y320727D02*
G54D19*
D03*
G54D11*
X206427Y320727D02*
X219075Y333375D01*
X650875Y333375D01*
X196902Y320727D02*
G54D19*
D03*
X196902Y330252D02*
G54D19*
D03*
X187377Y330252D02*
G54D19*
D03*
X187377Y339777D02*
G54D19*
D03*
G54D11*
X571500Y339725D02*
X215900Y339725D01*
X196902Y320727D01*
G54D11*
X528955Y346075D02*
X212725Y346075D01*
X196902Y330252D01*
G54D11*
X487045Y352425D02*
X209550Y352425D01*
X187377Y330252D01*
X177852Y339777D02*
G54D19*
D03*
G54D11*
X444500Y358775D02*
X206375Y358775D01*
X187377Y339777D01*
G54D11*
X371727Y364425D02*
X202500Y364425D01*
X177852Y339777D01*
X177852Y349302D02*
G54D19*
D03*
X168327Y349302D02*
G54D19*
D03*
X168327Y358827D02*
G54D19*
D03*
G54D11*
X328865Y383475D02*
X212025Y383475D01*
X177852Y349302D01*
G54D11*
X287272Y389825D02*
X208850Y389825D01*
X168327Y349302D01*
G54D11*
X245045Y396175D02*
X205675Y396175D01*
X168327Y358827D01*
G54D11*
X765175Y314325D02*
X822325Y314325D01*
G54D11*
X730250Y320675D02*
X828675Y320675D01*
G54D11*
X692150Y327025D02*
X835025Y327025D01*
G54D11*
X650875Y333375D02*
X841375Y333375D01*
G54D11*
X571500Y339725D02*
X847725Y339725D01*
G54D11*
X528955Y346075D02*
X854075Y346075D01*
G54D11*
X487045Y352425D02*
X860425Y352425D01*
G54D11*
X444500Y358775D02*
X866775Y358775D01*
G54D11*
X371727Y364425D02*
X372428Y365125D01*
X873125Y365125D01*
G54D11*
X328865Y383475D02*
X810325Y383475D01*
X822325Y371475D01*
X879475Y371475D01*
G54D11*
X287272Y389825D02*
X813500Y389825D01*
X825500Y377825D01*
X885825Y377825D01*
G54D11*
X245045Y396175D02*
X816675Y396175D01*
X828675Y384175D01*
X892175Y384175D01*
X800100Y304800D02*
G54D22*
D03*
X768350Y304800D02*
G54D22*
D03*
G54D24*
X127000Y152400D02*
X212725Y152400D01*
X234950Y174625D01*
X234950Y272784D01*
X251143Y288977D01*
X784277Y288977D01*
X800100Y304800D01*
X784225Y305435D02*
G54D19*
D03*
X836150Y406400D02*
G54D22*
D03*
X247650Y438150D02*
G54D19*
D03*
G54D11*
X127000Y330200D02*
X203200Y406400D01*
G54D11*
X203200Y406400D02*
X241300Y406400D01*
X247650Y412750D01*
X247650Y438150D01*
X215900Y419100D02*
G54D23*
D03*
X710593Y374702D02*
G54D19*
D03*
X669318Y374702D02*
G54D19*
D03*
X628043Y374702D02*
G54D19*
D03*
X551843Y374702D02*
G54D19*
D03*
X510568Y374702D02*
G54D19*
D03*
X469293Y374702D02*
G54D19*
D03*
X428018Y374702D02*
G54D19*
D03*
X351818Y374702D02*
G54D19*
D03*
X310543Y374702D02*
G54D19*
D03*
X269268Y374702D02*
G54D19*
D03*
X227993Y374702D02*
G54D19*
D03*
G54D11*
X822325Y314325D02*
X825500Y311150D01*
X825500Y273050D01*
X838200Y260350D01*
X838200Y107950D01*
X844550Y101600D01*
X1168400Y101600D01*
G54D11*
X828675Y320675D02*
X831850Y317500D01*
X831850Y276225D01*
X844550Y263525D01*
X844550Y114300D01*
X850900Y107950D01*
X1149350Y107950D01*
X1155700Y114300D01*
X1181100Y114300D01*
X1193800Y101600D01*
G54D11*
X835025Y327025D02*
X838200Y323850D01*
X838200Y279400D01*
X850900Y266700D01*
X850900Y136525D01*
X860425Y127000D01*
X1168400Y127000D01*
G54D11*
X841375Y333375D02*
X844550Y330200D01*
X844550Y282575D01*
X857250Y269875D01*
X857175Y158900D01*
X863600Y152400D01*
X1168400Y152400D01*
G54D11*
X847725Y339725D02*
X850900Y336550D01*
X850900Y285750D01*
X863600Y273050D01*
X863600Y184150D01*
X869950Y177800D01*
X1168400Y177800D01*
G54D11*
X854075Y346075D02*
X857250Y342900D01*
X857250Y288925D01*
X869950Y276225D01*
X869950Y196850D01*
G54D11*
X869950Y196850D02*
X876300Y190500D01*
X1181100Y190500D01*
X1193800Y177800D01*
G54D11*
X860425Y352425D02*
X863600Y349250D01*
X863600Y292100D01*
X876300Y279400D01*
X876300Y222250D01*
X882650Y215900D01*
X1168400Y215900D01*
G54D11*
X866775Y358775D02*
X869950Y355600D01*
X869950Y295275D01*
X882650Y282575D01*
X882650Y234950D01*
X889000Y228600D01*
X1136650Y228600D01*
X1149350Y241300D01*
G54D11*
X739775Y711200D02*
X828675Y711200D01*
G54D11*
X727075Y704850D02*
X831850Y704850D01*
G54D11*
X708025Y698500D02*
X835025Y698500D01*
G54D11*
X679450Y692150D02*
X838200Y692150D01*
G54D11*
X565150Y685800D02*
X850900Y685800D01*
G54D11*
X520700Y679450D02*
X857250Y679450D01*
G54D11*
X482600Y673100D02*
X863600Y673100D01*
G54D11*
X444500Y666750D02*
X869950Y666750D01*
G54D11*
X828675Y711200D02*
X981075Y863600D01*
X1117600Y863600D01*
X1143000Y889000D01*
X1168400Y889000D01*
G54D11*
X831850Y704850D02*
X984250Y857250D01*
X1123950Y857250D01*
G54D11*
X1123950Y857250D02*
X1130300Y863600D01*
X1168400Y863600D01*
G54D11*
X835025Y698500D02*
X987425Y850900D01*
X1181100Y850900D01*
X1193800Y863600D01*
G54D11*
X838200Y692150D02*
X952500Y806450D01*
X1149350Y806450D01*
X1168400Y787400D01*
G54D11*
X850900Y685800D02*
X1041400Y685800D01*
X1117600Y762000D01*
X1168400Y762000D01*
G54D11*
X857250Y679450D02*
X1162050Y679450D01*
X1168400Y685800D01*
G54D11*
X863600Y673100D02*
X1041400Y673100D01*
X1143000Y571500D01*
X1181100Y571500D01*
X1193800Y558800D01*
G54D11*
X869950Y666750D02*
X1035050Y666750D01*
X1143000Y558800D01*
X1143000Y533400D01*
G54D11*
X368300Y660400D02*
X1028700Y660400D01*
X1133475Y555625D01*
X1133475Y466725D01*
X1143000Y457200D01*
X1168400Y457200D01*
G54D11*
X330200Y609600D02*
X1066800Y609600D01*
X1123950Y552450D01*
X1123950Y450850D01*
G54D11*
X1123950Y450850D02*
X1130300Y444500D01*
X1181100Y444500D01*
X1193800Y431800D01*
G54D11*
X284480Y603250D02*
X1060450Y603250D01*
X1114425Y549275D01*
X1114425Y444500D01*
X1127125Y431800D01*
X1168400Y431800D01*
G54D11*
X238125Y596900D02*
X1054100Y596900D01*
X1104900Y546100D01*
X1104900Y425450D01*
G54D11*
X1104900Y425450D02*
X1111250Y419100D01*
X1181100Y419100D01*
X1193800Y406400D01*
G54D11*
X739775Y711200D02*
X209550Y711200D01*
X203200Y717550D01*
X203200Y869950D01*
X184150Y889000D01*
X127000Y889000D01*
G54D11*
X727075Y704850D02*
X203200Y704850D01*
X196850Y711200D01*
X196850Y857250D01*
X190500Y863600D01*
X127000Y863600D01*
G54D11*
X708025Y698500D02*
X196850Y698500D01*
X190500Y704850D01*
X190500Y844550D01*
X184150Y850900D01*
X114300Y850900D01*
X101600Y863600D01*
G54D11*
X679450Y692150D02*
X190500Y692150D01*
X184150Y698500D01*
X184150Y819150D01*
X177800Y825500D01*
X114300Y825500D01*
X101600Y838200D01*
G54D11*
X565150Y685800D02*
X184150Y685800D01*
X177800Y692150D01*
X177800Y742950D01*
X171450Y749300D01*
X114300Y749300D01*
X101600Y762000D01*
G54D11*
X520700Y679450D02*
X177800Y679450D01*
X171450Y685800D01*
X171450Y704850D01*
X165100Y711200D01*
X127000Y711200D01*
G54D11*
X482600Y673100D02*
X171450Y673100D01*
X158750Y685800D01*
X127000Y685800D01*
G54D11*
X444500Y666750D02*
X165100Y666750D01*
X158750Y673100D01*
X114300Y673100D01*
X101600Y685800D01*
G54D11*
X368300Y660400D02*
X165100Y660400D01*
X152400Y647700D01*
X114300Y647700D01*
X101600Y660400D01*
G54D11*
X330200Y609600D02*
X165100Y609600D01*
X139700Y635000D01*
X127000Y635000D01*
G54D11*
X284480Y603250D02*
X133350Y603250D01*
X127000Y609600D01*
G54D11*
X238125Y596900D02*
X114300Y596900D01*
X101600Y584200D01*
X805180Y584200D02*
G54D23*
D03*
G54D11*
X892175Y384175D02*
X1101725Y384175D01*
X1123950Y406400D01*
X1168400Y406400D01*
G54D11*
X885825Y377825D02*
X1104900Y377825D01*
X1120775Y393700D01*
X1174750Y393700D01*
G54D11*
X879475Y371475D02*
X1108075Y371475D01*
X1117600Y381000D01*
X1168400Y381000D01*
G54D11*
X873125Y365125D02*
X1111250Y365125D01*
X1114425Y368300D01*
X1155700Y368300D01*
X1168400Y355600D01*
X1047750Y422275D02*
G54D17*
D03*
X838200Y958850D02*
G54D19*
D03*
X844550Y952500D02*
G54D19*
D03*
X1212850Y946150D02*
G54D19*
D03*
G54D11*
X1212850Y850900D02*
X1212850Y946150D01*
X1219200Y939800D02*
G54D19*
D03*
X1206500Y546100D02*
G54D21*
D03*
G54D24*
X1193800Y838200D02*
X1206500Y838200D01*
X1219200Y825500D01*
X1219200Y558800D01*
X1206500Y546100D01*
G54D11*
X825500Y98425D02*
X835025Y88900D01*
X1123950Y88900D01*
X1149350Y63500D01*
X1219200Y63500D01*
X1117600Y38100D02*
G54D17*
D03*
G54D11*
X127000Y50800D02*
X190500Y50800D01*
X196850Y57150D01*
X196850Y88900D01*
X215900Y107950D01*
G54D11*
X831850Y101600D02*
X838200Y95250D01*
X1130300Y95250D01*
X1149350Y76200D01*
X1168400Y76200D01*
X809200Y102025D02*
G54D17*
D03*
G54D33*
X1000100Y57300D02*
X1000100Y44425D01*
X987425Y31750D01*
X866775Y31750D01*
X809625Y88900D01*
X809200Y102025D01*
G54D11*
X774700Y107950D02*
X790575Y123825D01*
X790575Y152400D01*
X796925Y158750D01*
X825500Y158750D01*
X831850Y152400D01*
X831850Y101600D01*
G54D11*
X774700Y101600D02*
X777875Y101600D01*
X800100Y123825D01*
X800100Y146050D01*
X806450Y152400D01*
X819150Y152400D01*
X825500Y146050D01*
X825500Y98425D01*
X604520Y19050D02*
G54D34*
D03*
X405130Y19050D02*
G54D34*
D03*
X628650Y133350D02*
G54D34*
D03*
X431800Y133350D02*
G54D34*
D03*
X404867Y977002D02*
G54D34*
D03*
X604257Y977002D02*
G54D34*
D03*
X380737Y862702D02*
G54D34*
D03*
X577587Y862702D02*
G54D34*
D03*
X76200Y457200D02*
G54D21*
D03*
X76200Y933450D02*
G54D21*
D03*
G54D31*
X1030738Y475113D02*
X1017358Y475113D01*
X986288Y475113D01*
X965200Y454025D01*
X942975Y454025D01*
X901700Y482600D02*
G54D21*
D03*
G54D31*
X901700Y482600D02*
X939800Y482600D01*
X950412Y493212D01*
X993227Y493212D01*
G54D11*
X1009650Y511175D02*
X942975Y511175D01*
X936625Y517525D01*
X936625Y517525D02*
G54D19*
D03*
G54D11*
X222250Y101600D02*
X393700Y101600D01*
X400050Y107950D01*
X400050Y127000D01*
G54D11*
X400050Y107950D02*
X406400Y101600D01*
X593725Y101600D01*
X600075Y107950D01*
X600075Y127000D01*
G54D11*
X600075Y107950D02*
X606425Y101600D01*
X777875Y101600D01*
G54D11*
X215900Y107950D02*
X384175Y107950D01*
X390525Y114300D01*
X390525Y133350D01*
G54D11*
X390525Y133350D02*
X406400Y133350D01*
X409575Y130175D01*
X409575Y114300D01*
X415925Y107950D01*
X584200Y107950D01*
X590550Y114300D01*
X590550Y133350D01*
X603250Y133350D01*
X609600Y127000D01*
X609600Y114300D01*
X615950Y107950D01*
X774700Y107950D01*
X354330Y19050D02*
G54D34*
D03*
X391795Y88900D02*
G54D35*
D03*
G54D31*
X354330Y19050D02*
X354330Y68580D01*
X374650Y88900D01*
X391795Y88900D01*
X554355Y19050D02*
G54D34*
D03*
X591820Y88900D02*
G54D35*
D03*
G54D31*
X554355Y19050D02*
X554355Y68580D01*
X574675Y88900D01*
X591820Y88900D01*
X656398Y976611D02*
G54D34*
D03*
X618933Y906761D02*
G54D35*
D03*
G54D31*
X656398Y976611D02*
X656398Y927081D01*
X636078Y906761D01*
X618933Y906761D01*
G54D11*
X844550Y952500D02*
X784225Y892175D01*
G54D11*
X777875Y898525D02*
X635000Y898525D01*
X622300Y885825D01*
X622300Y876300D01*
G54D11*
X622300Y876300D02*
X622300Y885825D01*
X609600Y898525D01*
X434975Y898525D01*
X422275Y885825D01*
X422275Y876300D01*
G54D11*
X422275Y876300D02*
X422275Y885825D01*
X409575Y898525D01*
X231775Y898525D01*
X222250Y889000D01*
X222250Y876300D01*
G54D11*
X212725Y889000D02*
X212725Y869950D01*
G54D11*
X212725Y869950D02*
X225425Y869950D01*
X231775Y876300D01*
X231775Y885825D01*
X238125Y892175D01*
X406400Y892175D01*
X412750Y885825D01*
X412750Y869950D01*
X412900Y869800D01*
X425300Y869800D01*
X431800Y876300D01*
X431800Y885825D01*
X438150Y892175D01*
X606425Y892175D01*
X612775Y885825D01*
X612775Y869950D01*
X625475Y869950D01*
X631825Y876300D01*
X631825Y885825D01*
X638175Y892175D01*
X784225Y892175D01*
X455103Y976611D02*
G54D34*
D03*
X419543Y906761D02*
G54D35*
D03*
G54D31*
X455103Y976611D02*
X455103Y927081D01*
X434783Y906761D01*
X419543Y906761D01*
X66675Y425450D02*
G54D21*
D03*
G54D11*
X66675Y425450D02*
X66675Y47625D01*
X76200Y38100D01*
X101600Y38100D01*
G54D11*
X1219200Y939800D02*
X1219200Y854075D01*
X1238250Y835025D01*
X1238250Y254000D01*
X1225550Y241300D01*
X1225550Y69850D01*
X1219200Y63500D01*
G54D11*
X1174750Y393700D02*
X1181100Y387350D01*
X1181100Y368300D01*
X1193800Y355600D01*
G54D11*
X1231900Y279400D02*
X1231900Y257175D01*
X1219200Y244475D01*
X1219200Y95250D01*
X1212850Y88900D01*
X1181100Y88900D01*
X1168400Y76200D01*
G54D11*
X1168400Y215900D02*
X1174750Y215900D01*
X1181100Y222250D01*
X1181100Y241300D01*
X1193800Y254000D01*
G54D11*
X1149350Y241300D02*
X1149350Y298450D01*
X1155700Y304800D01*
X1168400Y304800D01*
G54D11*
X1143000Y533400D02*
X1143000Y476250D01*
X1149350Y469900D01*
X1200150Y469900D01*
X1206500Y463550D01*
X1206500Y311150D01*
X1200150Y304800D01*
X1193800Y304800D01*
G54D11*
X85725Y577850D02*
X92075Y571500D01*
X127000Y571500D01*
G54D11*
X127000Y571500D02*
X139700Y571500D01*
X158750Y590550D01*
X190500Y590550D01*
X85725Y577850D02*
G54D19*
D03*
G54D11*
X190500Y590550D02*
X768350Y590550D01*
X793243Y570472D02*
G54D19*
D03*
G54D11*
X768350Y590550D02*
X772160Y586740D01*
X772160Y582931D01*
X772160Y582931D02*
G54D19*
D03*
X1023675Y768266D02*
G54D29*
D03*
X987754Y732345D02*
G54D29*
D03*
%LPD*%
G54D36*
G54D36*
G54D36*
G54D36*
G54D36*
G54D20*
G54D20*
G54D37*
G54D37*
G54D37*
G54D37*
G54D37*
G54D37*
G54D37*
G54D37*
G54D37*
G54D37*
G54D38*
G54D39*
G36*
X1037818Y562383D02*
X1048778Y573343D01*
X1055943Y566177D01*
X1044983Y555217D01*
X1037818Y562383D01*
G37*
G36*
X1041400Y563867D02*
X1056900Y563867D01*
X1056900Y553733D01*
X1041400Y553733D01*
X1041400Y563867D01*
G37*
G36*
X1041400Y553733D02*
X1025900Y553733D01*
X1025900Y563867D01*
X1041400Y563867D01*
X1041400Y553733D01*
G37*
G36*
X1037818Y555217D02*
X1026857Y566177D01*
X1034023Y573343D01*
X1044983Y562383D01*
X1037818Y555217D01*
G37*
G36*
X1036334Y558800D02*
X1036334Y574300D01*
X1046467Y574300D01*
X1046467Y558800D01*
X1036334Y558800D01*
G37*
G54D31*
G36*
X891429Y315831D02*
X905925Y330327D01*
X920067Y316185D01*
X905571Y301689D01*
X891429Y315831D01*
G37*
G36*
X898500Y318760D02*
X919000Y318760D01*
X919000Y298760D01*
X898500Y298760D01*
X898500Y318760D01*
G37*
G36*
X905571Y315831D02*
X920067Y301335D01*
X905925Y287193D01*
X891429Y301689D01*
X905571Y315831D01*
G37*
G36*
X908500Y308760D02*
X908500Y288260D01*
X888500Y288260D01*
X888500Y308760D01*
X908500Y308760D01*
G37*
G36*
X905571Y301689D02*
X891075Y287193D01*
X876933Y301335D01*
X891429Y315831D01*
X905571Y301689D01*
G37*
G36*
X898500Y298760D02*
X878000Y298760D01*
X878000Y318760D01*
X898500Y318760D01*
X898500Y298760D01*
G37*
G36*
X891429Y301689D02*
X876933Y316185D01*
X891075Y330327D01*
X905571Y315831D01*
X891429Y301689D01*
G37*
G36*
X888500Y308760D02*
X888500Y329260D01*
X908500Y329260D01*
X908500Y308760D01*
X888500Y308760D01*
G37*
G54D40*
G36*
X887483Y837783D02*
X901979Y852279D01*
X920363Y833894D01*
X905868Y819398D01*
X887483Y837783D01*
G37*
G36*
X896675Y841591D02*
X917175Y841591D01*
X917175Y815591D01*
X896675Y815591D01*
X896675Y841591D01*
G37*
G36*
X905868Y837783D02*
X920363Y823287D01*
X901979Y804903D01*
X887483Y819398D01*
X905868Y837783D01*
G37*
G36*
X909675Y828591D02*
X909675Y808091D01*
X883675Y808091D01*
X883675Y828591D01*
X909675Y828591D01*
G37*
G36*
X905868Y819398D02*
X891372Y804903D01*
X872987Y823287D01*
X887483Y837783D01*
X905868Y819398D01*
G37*
G36*
X896675Y815591D02*
X876175Y815591D01*
X876175Y841591D01*
X896675Y841591D01*
X896675Y815591D01*
G37*
G36*
X887483Y819398D02*
X872987Y833894D01*
X891372Y852279D01*
X905868Y837783D01*
X887483Y819398D01*
G37*
G36*
X883675Y828591D02*
X883675Y849091D01*
X909675Y849091D01*
X909675Y828591D01*
X883675Y828591D01*
G37*
G54D20*
G54D20*
G36*
X889000Y468549D02*
X897500Y468549D01*
X897500Y458549D01*
X889000Y458549D01*
X889000Y468549D01*
G37*
G36*
X892536Y467085D02*
X898546Y461074D01*
X891475Y454003D01*
X885464Y460013D01*
X892536Y467085D01*
G37*
G36*
X894000Y463549D02*
X894000Y455049D01*
X884000Y455049D01*
X884000Y463549D01*
X894000Y463549D01*
G37*
G36*
X892536Y460013D02*
X886525Y454003D01*
X879454Y461074D01*
X885464Y467085D01*
X892536Y460013D01*
G37*
G36*
X889000Y458549D02*
X880500Y458549D01*
X880500Y468549D01*
X889000Y468549D01*
X889000Y458549D01*
G37*
G36*
X885464Y460013D02*
X879454Y466024D01*
X886525Y473095D01*
X892536Y467085D01*
X885464Y460013D01*
G37*
G36*
X884000Y463549D02*
X884000Y472049D01*
X894000Y472049D01*
X894000Y463549D01*
X884000Y463549D01*
G37*
G36*
X885464Y467085D02*
X891475Y473095D01*
X898546Y466024D01*
X892536Y460013D01*
X885464Y467085D01*
G37*
G54D41*
G36*
X815468Y567472D02*
X808968Y567472D01*
X808968Y573472D01*
X815468Y573472D01*
X815468Y567472D01*
G37*
G36*
X813347Y568351D02*
X808750Y572947D01*
X812993Y577190D01*
X817589Y572593D01*
X813347Y568351D01*
G37*
G36*
X812468Y570472D02*
X812468Y576972D01*
X818468Y576972D01*
X818468Y570472D01*
X812468Y570472D01*
G37*
G36*
X813347Y572593D02*
X817943Y577190D01*
X822186Y572947D01*
X817589Y568351D01*
X813347Y572593D01*
G37*
G36*
X815468Y573472D02*
X821968Y573472D01*
X821968Y567472D01*
X815468Y567472D01*
X815468Y573472D01*
G37*
G36*
X817589Y572593D02*
X822186Y567997D01*
X817943Y563754D01*
X813347Y568351D01*
X817589Y572593D01*
G37*
G36*
X818468Y570472D02*
X818468Y563972D01*
X812468Y563972D01*
X812468Y570472D01*
X818468Y570472D01*
G37*
G36*
X817589Y568351D02*
X812993Y563754D01*
X808750Y567997D01*
X813347Y572593D01*
X817589Y568351D01*
G37*
G54D41*
G36*
X777368Y424882D02*
X783868Y424882D01*
X783868Y418882D01*
X777368Y418882D01*
X777368Y424882D01*
G37*
G36*
X779489Y424003D02*
X784085Y419407D01*
X779843Y415164D01*
X775246Y419761D01*
X779489Y424003D01*
G37*
G36*
X780368Y421882D02*
X780368Y415382D01*
X774368Y415382D01*
X774368Y421882D01*
X780368Y421882D01*
G37*
G36*
X779489Y419761D02*
X774893Y415164D01*
X770650Y419407D01*
X775246Y424003D01*
X779489Y419761D01*
G37*
G36*
X777368Y418882D02*
X770868Y418882D01*
X770868Y424882D01*
X777368Y424882D01*
X777368Y418882D01*
G37*
G36*
X775246Y419761D02*
X770650Y424357D01*
X774893Y428600D01*
X779489Y424003D01*
X775246Y419761D01*
G37*
G36*
X774368Y421882D02*
X774368Y428382D01*
X780368Y428382D01*
X780368Y421882D01*
X774368Y421882D01*
G37*
G36*
X775246Y424003D02*
X779843Y428600D01*
X784085Y424357D01*
X779489Y419761D01*
X775246Y424003D01*
G37*
G54D41*
G36*
X796318Y424692D02*
X802818Y424692D01*
X802818Y418692D01*
X796318Y418692D01*
X796318Y424692D01*
G37*
G36*
X798439Y423813D02*
X803035Y419217D01*
X798793Y414974D01*
X794196Y419571D01*
X798439Y423813D01*
G37*
G36*
X799318Y421692D02*
X799318Y415192D01*
X793318Y415192D01*
X793318Y421692D01*
X799318Y421692D01*
G37*
G36*
X798439Y419571D02*
X793843Y414974D01*
X789600Y419217D01*
X794196Y423813D01*
X798439Y419571D01*
G37*
G36*
X796318Y418692D02*
X789818Y418692D01*
X789818Y424692D01*
X796318Y424692D01*
X796318Y418692D01*
G37*
G36*
X794196Y419571D02*
X789600Y424167D01*
X793843Y428409D01*
X798439Y423813D01*
X794196Y419571D01*
G37*
G36*
X793318Y421692D02*
X793318Y428192D01*
X799318Y428192D01*
X799318Y421692D01*
X793318Y421692D01*
G37*
G36*
X794196Y423813D02*
X798793Y428409D01*
X803035Y424167D01*
X798439Y419571D01*
X794196Y423813D01*
G37*
G54D41*
G36*
X698500Y450675D02*
X705000Y450675D01*
X705000Y444675D01*
X698500Y444675D01*
X698500Y450675D01*
G37*
G36*
X700621Y449796D02*
X705218Y445200D01*
X700975Y440958D01*
X696379Y445554D01*
X700621Y449796D01*
G37*
G36*
X701500Y447675D02*
X701500Y441175D01*
X695500Y441175D01*
X695500Y447675D01*
X701500Y447675D01*
G37*
G36*
X700621Y445554D02*
X696025Y440958D01*
X691782Y445200D01*
X696379Y449796D01*
X700621Y445554D01*
G37*
G36*
X698500Y444675D02*
X692000Y444675D01*
X692000Y450675D01*
X698500Y450675D01*
X698500Y444675D01*
G37*
G36*
X696379Y445554D02*
X691782Y450150D01*
X696025Y454392D01*
X700621Y449796D01*
X696379Y445554D01*
G37*
G36*
X695500Y447675D02*
X695500Y454175D01*
X701500Y454175D01*
X701500Y447675D01*
X695500Y447675D01*
G37*
G36*
X696379Y449796D02*
X700975Y454392D01*
X705218Y450150D01*
X700621Y445554D01*
X696379Y449796D01*
G37*
G54D41*
G36*
X784225Y625300D02*
X790725Y625300D01*
X790725Y619300D01*
X784225Y619300D01*
X784225Y625300D01*
G37*
G36*
X786346Y624421D02*
X790942Y619825D01*
X786700Y615582D01*
X782104Y620179D01*
X786346Y624421D01*
G37*
G36*
X787225Y622300D02*
X787225Y615800D01*
X781225Y615800D01*
X781225Y622300D01*
X787225Y622300D01*
G37*
G36*
X786346Y620179D02*
X781750Y615582D01*
X777508Y619825D01*
X782104Y624421D01*
X786346Y620179D01*
G37*
G36*
X784225Y619300D02*
X777725Y619300D01*
X777725Y625300D01*
X784225Y625300D01*
X784225Y619300D01*
G37*
G36*
X782104Y620179D02*
X777508Y624775D01*
X781750Y629018D01*
X786346Y624421D01*
X782104Y620179D01*
G37*
G36*
X781225Y622300D02*
X781225Y628800D01*
X787225Y628800D01*
X787225Y622300D01*
X781225Y622300D01*
G37*
G36*
X782104Y624421D02*
X786700Y629018D01*
X790942Y624775D01*
X786346Y620179D01*
X782104Y624421D01*
G37*
G54D41*
G36*
X742950Y625300D02*
X749450Y625300D01*
X749450Y619300D01*
X742950Y619300D01*
X742950Y625300D01*
G37*
G36*
X745071Y624421D02*
X749668Y619825D01*
X745425Y615582D01*
X740829Y620179D01*
X745071Y624421D01*
G37*
G36*
X745950Y622300D02*
X745950Y615800D01*
X739950Y615800D01*
X739950Y622300D01*
X745950Y622300D01*
G37*
G36*
X745071Y620179D02*
X740475Y615582D01*
X736232Y619825D01*
X740829Y624421D01*
X745071Y620179D01*
G37*
G36*
X742950Y619300D02*
X736450Y619300D01*
X736450Y625300D01*
X742950Y625300D01*
X742950Y619300D01*
G37*
G36*
X740829Y620179D02*
X736232Y624775D01*
X740475Y629018D01*
X745071Y624421D01*
X740829Y620179D01*
G37*
G36*
X739950Y622300D02*
X739950Y628800D01*
X745950Y628800D01*
X745950Y622300D01*
X739950Y622300D01*
G37*
G36*
X740829Y624421D02*
X745425Y629018D01*
X749668Y624775D01*
X745071Y620179D01*
X740829Y624421D01*
G37*
G54D41*
G36*
X701675Y625300D02*
X708175Y625300D01*
X708175Y619300D01*
X701675Y619300D01*
X701675Y625300D01*
G37*
G36*
X703796Y624421D02*
X708392Y619825D01*
X704150Y615582D01*
X699554Y620179D01*
X703796Y624421D01*
G37*
G36*
X704675Y622300D02*
X704675Y615800D01*
X698675Y615800D01*
X698675Y622300D01*
X704675Y622300D01*
G37*
G36*
X703796Y620179D02*
X699200Y615582D01*
X694958Y619825D01*
X699554Y624421D01*
X703796Y620179D01*
G37*
G36*
X701675Y619300D02*
X695175Y619300D01*
X695175Y625300D01*
X701675Y625300D01*
X701675Y619300D01*
G37*
G36*
X699554Y620179D02*
X694958Y624775D01*
X699200Y629018D01*
X703796Y624421D01*
X699554Y620179D01*
G37*
G36*
X698675Y622300D02*
X698675Y628800D01*
X704675Y628800D01*
X704675Y622300D01*
X698675Y622300D01*
G37*
G36*
X699554Y624421D02*
X704150Y629018D01*
X708392Y624775D01*
X703796Y620179D01*
X699554Y624421D01*
G37*
G54D41*
G36*
X660400Y625300D02*
X666900Y625300D01*
X666900Y619300D01*
X660400Y619300D01*
X660400Y625300D01*
G37*
G36*
X662521Y624421D02*
X667118Y619825D01*
X662875Y615582D01*
X658279Y620179D01*
X662521Y624421D01*
G37*
G36*
X663400Y622300D02*
X663400Y615800D01*
X657400Y615800D01*
X657400Y622300D01*
X663400Y622300D01*
G37*
G36*
X662521Y620179D02*
X657925Y615582D01*
X653682Y619825D01*
X658279Y624421D01*
X662521Y620179D01*
G37*
G36*
X660400Y619300D02*
X653900Y619300D01*
X653900Y625300D01*
X660400Y625300D01*
X660400Y619300D01*
G37*
G36*
X658279Y620179D02*
X653682Y624775D01*
X657925Y629018D01*
X662521Y624421D01*
X658279Y620179D01*
G37*
G36*
X657400Y622300D02*
X657400Y628800D01*
X663400Y628800D01*
X663400Y622300D01*
X657400Y622300D01*
G37*
G36*
X658279Y624421D02*
X662875Y629018D01*
X667118Y624775D01*
X662521Y620179D01*
X658279Y624421D01*
G37*
G54D41*
G36*
X584200Y625300D02*
X590700Y625300D01*
X590700Y619300D01*
X584200Y619300D01*
X584200Y625300D01*
G37*
G36*
X586321Y624421D02*
X590918Y619825D01*
X586675Y615582D01*
X582079Y620179D01*
X586321Y624421D01*
G37*
G36*
X587200Y622300D02*
X587200Y615800D01*
X581200Y615800D01*
X581200Y622300D01*
X587200Y622300D01*
G37*
G36*
X586321Y620179D02*
X581725Y615582D01*
X577482Y619825D01*
X582079Y624421D01*
X586321Y620179D01*
G37*
G36*
X584200Y619300D02*
X577700Y619300D01*
X577700Y625300D01*
X584200Y625300D01*
X584200Y619300D01*
G37*
G36*
X582079Y620179D02*
X577482Y624775D01*
X581725Y629018D01*
X586321Y624421D01*
X582079Y620179D01*
G37*
G36*
X581200Y622300D02*
X581200Y628800D01*
X587200Y628800D01*
X587200Y622300D01*
X581200Y622300D01*
G37*
G36*
X582079Y624421D02*
X586675Y629018D01*
X590918Y624775D01*
X586321Y620179D01*
X582079Y624421D01*
G37*
G54D41*
G36*
X542925Y625300D02*
X549425Y625300D01*
X549425Y619300D01*
X542925Y619300D01*
X542925Y625300D01*
G37*
G36*
X545046Y624421D02*
X549642Y619825D01*
X545400Y615582D01*
X540804Y620179D01*
X545046Y624421D01*
G37*
G36*
X545925Y622300D02*
X545925Y615800D01*
X539925Y615800D01*
X539925Y622300D01*
X545925Y622300D01*
G37*
G36*
X545046Y620179D02*
X540450Y615582D01*
X536208Y619825D01*
X540804Y624421D01*
X545046Y620179D01*
G37*
G36*
X542925Y619300D02*
X536425Y619300D01*
X536425Y625300D01*
X542925Y625300D01*
X542925Y619300D01*
G37*
G36*
X540804Y620179D02*
X536208Y624775D01*
X540450Y629018D01*
X545046Y624421D01*
X540804Y620179D01*
G37*
G36*
X539925Y622300D02*
X539925Y628800D01*
X545925Y628800D01*
X545925Y622300D01*
X539925Y622300D01*
G37*
G36*
X540804Y624421D02*
X545400Y629018D01*
X549642Y624775D01*
X545046Y620179D01*
X540804Y624421D01*
G37*
G54D41*
G36*
X501650Y625300D02*
X508150Y625300D01*
X508150Y619300D01*
X501650Y619300D01*
X501650Y625300D01*
G37*
G36*
X503771Y624421D02*
X508368Y619825D01*
X504125Y615582D01*
X499529Y620179D01*
X503771Y624421D01*
G37*
G36*
X504650Y622300D02*
X504650Y615800D01*
X498650Y615800D01*
X498650Y622300D01*
X504650Y622300D01*
G37*
G36*
X503771Y620179D02*
X499175Y615582D01*
X494932Y619825D01*
X499529Y624421D01*
X503771Y620179D01*
G37*
G36*
X501650Y619300D02*
X495150Y619300D01*
X495150Y625300D01*
X501650Y625300D01*
X501650Y619300D01*
G37*
G36*
X499529Y620179D02*
X494932Y624775D01*
X499175Y629018D01*
X503771Y624421D01*
X499529Y620179D01*
G37*
G36*
X498650Y622300D02*
X498650Y628800D01*
X504650Y628800D01*
X504650Y622300D01*
X498650Y622300D01*
G37*
G36*
X499529Y624421D02*
X504125Y629018D01*
X508368Y624775D01*
X503771Y620179D01*
X499529Y624421D01*
G37*
G54D41*
G36*
X460375Y625300D02*
X466875Y625300D01*
X466875Y619300D01*
X460375Y619300D01*
X460375Y625300D01*
G37*
G36*
X462496Y624421D02*
X467092Y619825D01*
X462850Y615582D01*
X458254Y620179D01*
X462496Y624421D01*
G37*
G36*
X463375Y622300D02*
X463375Y615800D01*
X457375Y615800D01*
X457375Y622300D01*
X463375Y622300D01*
G37*
G36*
X462496Y620179D02*
X457900Y615582D01*
X453658Y619825D01*
X458254Y624421D01*
X462496Y620179D01*
G37*
G36*
X460375Y619300D02*
X453875Y619300D01*
X453875Y625300D01*
X460375Y625300D01*
X460375Y619300D01*
G37*
G36*
X458254Y620179D02*
X453658Y624775D01*
X457900Y629018D01*
X462496Y624421D01*
X458254Y620179D01*
G37*
G36*
X457375Y622300D02*
X457375Y628800D01*
X463375Y628800D01*
X463375Y622300D01*
X457375Y622300D01*
G37*
G36*
X458254Y624421D02*
X462850Y629018D01*
X467092Y624775D01*
X462496Y620179D01*
X458254Y624421D01*
G37*
G54D41*
G36*
X384175Y625300D02*
X390675Y625300D01*
X390675Y619300D01*
X384175Y619300D01*
X384175Y625300D01*
G37*
G36*
X386296Y624421D02*
X390892Y619825D01*
X386650Y615582D01*
X382054Y620179D01*
X386296Y624421D01*
G37*
G36*
X387175Y622300D02*
X387175Y615800D01*
X381175Y615800D01*
X381175Y622300D01*
X387175Y622300D01*
G37*
G36*
X386296Y620179D02*
X381700Y615582D01*
X377458Y619825D01*
X382054Y624421D01*
X386296Y620179D01*
G37*
G36*
X384175Y619300D02*
X377675Y619300D01*
X377675Y625300D01*
X384175Y625300D01*
X384175Y619300D01*
G37*
G36*
X382054Y620179D02*
X377458Y624775D01*
X381700Y629018D01*
X386296Y624421D01*
X382054Y620179D01*
G37*
G36*
X381175Y622300D02*
X381175Y628800D01*
X387175Y628800D01*
X387175Y622300D01*
X381175Y622300D01*
G37*
G36*
X382054Y624421D02*
X386650Y629018D01*
X390892Y624775D01*
X386296Y620179D01*
X382054Y624421D01*
G37*
G54D41*
G36*
X342900Y625300D02*
X349400Y625300D01*
X349400Y619300D01*
X342900Y619300D01*
X342900Y625300D01*
G37*
G36*
X345021Y624421D02*
X349618Y619825D01*
X345375Y615582D01*
X340779Y620179D01*
X345021Y624421D01*
G37*
G36*
X345900Y622300D02*
X345900Y615800D01*
X339900Y615800D01*
X339900Y622300D01*
X345900Y622300D01*
G37*
G36*
X345021Y620179D02*
X340425Y615582D01*
X336182Y619825D01*
X340779Y624421D01*
X345021Y620179D01*
G37*
G36*
X342900Y619300D02*
X336400Y619300D01*
X336400Y625300D01*
X342900Y625300D01*
X342900Y619300D01*
G37*
G36*
X340779Y620179D02*
X336182Y624775D01*
X340425Y629018D01*
X345021Y624421D01*
X340779Y620179D01*
G37*
G36*
X339900Y622300D02*
X339900Y628800D01*
X345900Y628800D01*
X345900Y622300D01*
X339900Y622300D01*
G37*
G36*
X340779Y624421D02*
X345375Y629018D01*
X349618Y624775D01*
X345021Y620179D01*
X340779Y624421D01*
G37*
G54D41*
G36*
X301625Y625300D02*
X308125Y625300D01*
X308125Y619300D01*
X301625Y619300D01*
X301625Y625300D01*
G37*
G36*
X303746Y624421D02*
X308342Y619825D01*
X304100Y615582D01*
X299504Y620179D01*
X303746Y624421D01*
G37*
G36*
X304625Y622300D02*
X304625Y615800D01*
X298625Y615800D01*
X298625Y622300D01*
X304625Y622300D01*
G37*
G36*
X303746Y620179D02*
X299150Y615582D01*
X294908Y619825D01*
X299504Y624421D01*
X303746Y620179D01*
G37*
G36*
X301625Y619300D02*
X295125Y619300D01*
X295125Y625300D01*
X301625Y625300D01*
X301625Y619300D01*
G37*
G36*
X299504Y620179D02*
X294908Y624775D01*
X299150Y629018D01*
X303746Y624421D01*
X299504Y620179D01*
G37*
G36*
X298625Y622300D02*
X298625Y628800D01*
X304625Y628800D01*
X304625Y622300D01*
X298625Y622300D01*
G37*
G36*
X299504Y624421D02*
X304100Y629018D01*
X308342Y624775D01*
X303746Y620179D01*
X299504Y624421D01*
G37*
G54D41*
G36*
X260350Y625300D02*
X266850Y625300D01*
X266850Y619300D01*
X260350Y619300D01*
X260350Y625300D01*
G37*
G36*
X262471Y624421D02*
X267068Y619825D01*
X262825Y615582D01*
X258229Y620179D01*
X262471Y624421D01*
G37*
G36*
X263350Y622300D02*
X263350Y615800D01*
X257350Y615800D01*
X257350Y622300D01*
X263350Y622300D01*
G37*
G36*
X262471Y620179D02*
X257875Y615582D01*
X253632Y619825D01*
X258229Y624421D01*
X262471Y620179D01*
G37*
G36*
X260350Y619300D02*
X253850Y619300D01*
X253850Y625300D01*
X260350Y625300D01*
X260350Y619300D01*
G37*
G36*
X258229Y620179D02*
X253632Y624775D01*
X257875Y629018D01*
X262471Y624421D01*
X258229Y620179D01*
G37*
G36*
X257350Y622300D02*
X257350Y628800D01*
X263350Y628800D01*
X263350Y622300D01*
X257350Y622300D01*
G37*
G36*
X258229Y624421D02*
X262825Y629018D01*
X267068Y624775D01*
X262471Y620179D01*
X258229Y624421D01*
G37*
G54D41*
G36*
X751868Y377702D02*
X758368Y377702D01*
X758368Y371702D01*
X751868Y371702D01*
X751868Y377702D01*
G37*
G36*
X751868Y371702D02*
X745368Y371702D01*
X745368Y377702D01*
X751868Y377702D01*
X751868Y371702D01*
G37*
G54D41*
G36*
X798439Y378728D02*
X803036Y374132D01*
X798793Y369890D01*
X794197Y374486D01*
X798439Y378728D01*
G37*
G36*
X799318Y376607D02*
X799318Y370107D01*
X793318Y370107D01*
X793318Y376607D01*
X799318Y376607D01*
G37*
G36*
X798439Y374486D02*
X793843Y369890D01*
X789600Y374132D01*
X794197Y378728D01*
X798439Y374486D01*
G37*
G54D41*
G54D41*
G54D41*
G54D40*
G36*
X1010675Y768266D02*
X1010675Y788766D01*
X1036675Y788766D01*
X1036675Y768266D01*
X1010675Y768266D01*
G37*
G36*
X1014483Y777458D02*
X1028979Y791954D01*
X1047363Y773569D01*
X1032868Y759073D01*
X1014483Y777458D01*
G37*
G36*
X1023675Y781266D02*
X1044175Y781266D01*
X1044175Y755266D01*
X1023675Y755266D01*
X1023675Y781266D01*
G37*
G36*
X1032868Y777458D02*
X1047363Y762962D01*
X1028979Y744578D01*
X1014483Y759073D01*
X1032868Y777458D01*
G37*
G36*
X1036675Y768266D02*
X1036675Y747766D01*
X1010675Y747766D01*
X1010675Y768266D01*
X1036675Y768266D01*
G37*
G36*
X1032868Y759073D02*
X1018372Y744578D01*
X999987Y762962D01*
X1014483Y777458D01*
X1032868Y759073D01*
G37*
G36*
X1023675Y755266D02*
X1003175Y755266D01*
X1003175Y781266D01*
X1023675Y781266D01*
X1023675Y755266D01*
G37*
G36*
X1014483Y759073D02*
X999987Y773569D01*
X1018372Y791954D01*
X1032868Y777458D01*
X1014483Y759073D01*
G37*
G54D41*
G54D37*
G36*
X211575Y419100D02*
X211575Y430100D01*
X220225Y430100D01*
X220225Y419100D01*
X211575Y419100D01*
G37*
G36*
X215900Y423425D02*
X226900Y423425D01*
X226900Y414775D01*
X215900Y414775D01*
X215900Y423425D01*
G37*
G36*
X215900Y414775D02*
X204900Y414775D01*
X204900Y423425D01*
X215900Y423425D01*
X215900Y414775D01*
G37*
G54D41*
G36*
X710593Y377702D02*
X717093Y377702D01*
X717093Y371702D01*
X710593Y371702D01*
X710593Y377702D01*
G37*
G36*
X710593Y371702D02*
X704093Y371702D01*
X704093Y377702D01*
X710593Y377702D01*
X710593Y371702D01*
G37*
G54D41*
G36*
X669318Y377702D02*
X675818Y377702D01*
X675818Y371702D01*
X669318Y371702D01*
X669318Y377702D01*
G37*
G36*
X669318Y371702D02*
X662818Y371702D01*
X662818Y377702D01*
X669318Y377702D01*
X669318Y371702D01*
G37*
G54D41*
G36*
X628043Y377702D02*
X634543Y377702D01*
X634543Y371702D01*
X628043Y371702D01*
X628043Y377702D01*
G37*
G36*
X628043Y371702D02*
X621543Y371702D01*
X621543Y377702D01*
X628043Y377702D01*
X628043Y371702D01*
G37*
G54D41*
G36*
X551843Y377702D02*
X558343Y377702D01*
X558343Y371702D01*
X551843Y371702D01*
X551843Y377702D01*
G37*
G36*
X551843Y371702D02*
X545343Y371702D01*
X545343Y377702D01*
X551843Y377702D01*
X551843Y371702D01*
G37*
G54D41*
G36*
X510568Y377702D02*
X517068Y377702D01*
X517068Y371702D01*
X510568Y371702D01*
X510568Y377702D01*
G37*
G36*
X510568Y371702D02*
X504068Y371702D01*
X504068Y377702D01*
X510568Y377702D01*
X510568Y371702D01*
G37*
G54D41*
G36*
X469293Y377702D02*
X475793Y377702D01*
X475793Y371702D01*
X469293Y371702D01*
X469293Y377702D01*
G37*
G36*
X469293Y371702D02*
X462793Y371702D01*
X462793Y377702D01*
X469293Y377702D01*
X469293Y371702D01*
G37*
G54D41*
G36*
X428018Y377702D02*
X434518Y377702D01*
X434518Y371702D01*
X428018Y371702D01*
X428018Y377702D01*
G37*
G36*
X428018Y371702D02*
X421518Y371702D01*
X421518Y377702D01*
X428018Y377702D01*
X428018Y371702D01*
G37*
G54D41*
G36*
X351818Y377702D02*
X358318Y377702D01*
X358318Y371702D01*
X351818Y371702D01*
X351818Y377702D01*
G37*
G36*
X351818Y371702D02*
X345318Y371702D01*
X345318Y377702D01*
X351818Y377702D01*
X351818Y371702D01*
G37*
G54D41*
G36*
X310543Y377702D02*
X317043Y377702D01*
X317043Y371702D01*
X310543Y371702D01*
X310543Y377702D01*
G37*
G36*
X310543Y371702D02*
X304043Y371702D01*
X304043Y377702D01*
X310543Y377702D01*
X310543Y371702D01*
G37*
G54D41*
G36*
X269268Y377702D02*
X275768Y377702D01*
X275768Y371702D01*
X269268Y371702D01*
X269268Y377702D01*
G37*
G36*
X269268Y371702D02*
X262768Y371702D01*
X262768Y377702D01*
X269268Y377702D01*
X269268Y371702D01*
G37*
G54D41*
G36*
X227993Y377702D02*
X234493Y377702D01*
X234493Y371702D01*
X227993Y371702D01*
X227993Y377702D01*
G37*
G36*
X227993Y371702D02*
X221493Y371702D01*
X221493Y377702D01*
X227993Y377702D01*
X227993Y371702D01*
G37*
G54D37*
G36*
X805180Y588525D02*
X816180Y588525D01*
X816180Y579875D01*
X805180Y579875D01*
X805180Y588525D01*
G37*
G36*
X808238Y587258D02*
X816016Y579480D01*
X809900Y573364D01*
X802122Y581142D01*
X808238Y587258D01*
G37*
G36*
X809505Y584200D02*
X809505Y573200D01*
X800855Y573200D01*
X800855Y584200D01*
X809505Y584200D01*
G37*
G36*
X808238Y581142D02*
X800460Y573364D01*
X794344Y579480D01*
X802122Y587258D01*
X808238Y581142D01*
G37*
G36*
X805180Y579875D02*
X794180Y579875D01*
X794180Y588525D01*
X805180Y588525D01*
X805180Y579875D01*
G37*
G54D31*
G36*
X1037750Y422275D02*
X1037750Y437775D01*
X1057750Y437775D01*
X1057750Y422275D01*
X1037750Y422275D01*
G37*
G36*
X1040679Y429346D02*
X1051639Y440306D01*
X1065781Y426164D01*
X1054821Y415204D01*
X1040679Y429346D01*
G37*
G36*
X1047750Y432275D02*
X1063250Y432275D01*
X1063250Y412275D01*
X1047750Y412275D01*
X1047750Y432275D01*
G37*
G36*
X1054821Y429346D02*
X1065781Y418386D01*
X1051639Y404244D01*
X1040679Y415204D01*
X1054821Y429346D01*
G37*
G36*
X1057750Y422275D02*
X1057750Y406775D01*
X1037750Y406775D01*
X1037750Y422275D01*
X1057750Y422275D01*
G37*
G36*
X1054821Y415204D02*
X1043861Y404244D01*
X1029719Y418386D01*
X1040679Y429346D01*
X1054821Y415204D01*
G37*
G36*
X1047750Y412275D02*
X1032250Y412275D01*
X1032250Y432275D01*
X1047750Y432275D01*
X1047750Y412275D01*
G37*
G36*
X1040679Y415204D02*
X1029719Y426164D01*
X1043861Y440306D01*
X1054821Y429346D01*
X1040679Y415204D01*
G37*
G54D31*
G36*
X1107600Y38100D02*
X1107600Y53600D01*
X1127600Y53600D01*
X1127600Y38100D01*
X1107600Y38100D01*
G37*
G36*
X1110529Y45171D02*
X1121489Y56131D01*
X1135631Y41989D01*
X1124671Y31029D01*
X1110529Y45171D01*
G37*
G36*
X1117600Y48100D02*
X1133100Y48100D01*
X1133100Y28100D01*
X1117600Y28100D01*
X1117600Y48100D01*
G37*
G36*
X1124671Y45171D02*
X1135631Y34211D01*
X1121489Y20069D01*
X1110529Y31029D01*
X1124671Y45171D01*
G37*
G36*
X1127600Y38100D02*
X1127600Y22600D01*
X1107600Y22600D01*
X1107600Y38100D01*
X1127600Y38100D01*
G37*
G36*
X1124671Y31029D02*
X1113711Y20069D01*
X1099569Y34211D01*
X1110529Y45171D01*
X1124671Y31029D01*
G37*
G36*
X1117600Y28100D02*
X1102100Y28100D01*
X1102100Y48100D01*
X1117600Y48100D01*
X1117600Y28100D01*
G37*
G36*
X1110529Y31029D02*
X1099569Y41989D01*
X1113711Y56131D01*
X1124671Y45171D01*
X1110529Y31029D01*
G37*
G54D42*
G36*
X597520Y19050D02*
X597520Y31550D01*
X611520Y31550D01*
X611520Y19050D01*
X597520Y19050D01*
G37*
G36*
X599570Y24000D02*
X608409Y32839D01*
X618309Y22939D01*
X609470Y14100D01*
X599570Y24000D01*
G37*
G36*
X604520Y26050D02*
X617020Y26050D01*
X617020Y12050D01*
X604520Y12050D01*
X604520Y26050D01*
G37*
G36*
X609470Y24000D02*
X618309Y15161D01*
X608409Y5261D01*
X599570Y14100D01*
X609470Y24000D01*
G37*
G36*
X611520Y19050D02*
X611520Y6550D01*
X597520Y6550D01*
X597520Y19050D01*
X611520Y19050D01*
G37*
G36*
X609470Y14100D02*
X600631Y5261D01*
X590731Y15161D01*
X599570Y24000D01*
X609470Y14100D01*
G37*
G36*
X604520Y12050D02*
X592020Y12050D01*
X592020Y26050D01*
X604520Y26050D01*
X604520Y12050D01*
G37*
G36*
X599570Y14100D02*
X590731Y22939D01*
X600631Y32839D01*
X609470Y24000D01*
X599570Y14100D01*
G37*
G54D42*
G36*
X398130Y19050D02*
X398130Y31550D01*
X412130Y31550D01*
X412130Y19050D01*
X398130Y19050D01*
G37*
G36*
X400180Y24000D02*
X409019Y32839D01*
X418919Y22939D01*
X410080Y14100D01*
X400180Y24000D01*
G37*
G36*
X405130Y26050D02*
X417630Y26050D01*
X417630Y12050D01*
X405130Y12050D01*
X405130Y26050D01*
G37*
G36*
X410080Y24000D02*
X418919Y15161D01*
X409019Y5261D01*
X400180Y14100D01*
X410080Y24000D01*
G37*
G36*
X412130Y19050D02*
X412130Y6550D01*
X398130Y6550D01*
X398130Y19050D01*
X412130Y19050D01*
G37*
G36*
X410080Y14100D02*
X401241Y5261D01*
X391341Y15161D01*
X400180Y24000D01*
X410080Y14100D01*
G37*
G36*
X405130Y12050D02*
X392630Y12050D01*
X392630Y26050D01*
X405130Y26050D01*
X405130Y12050D01*
G37*
G36*
X400180Y14100D02*
X391341Y22939D01*
X401241Y32839D01*
X410080Y24000D01*
X400180Y14100D01*
G37*
G54D42*
G36*
X621650Y133350D02*
X621650Y145850D01*
X635650Y145850D01*
X635650Y133350D01*
X621650Y133350D01*
G37*
G36*
X623700Y138300D02*
X632539Y147139D01*
X642439Y137239D01*
X633600Y128400D01*
X623700Y138300D01*
G37*
G36*
X628650Y140350D02*
X641150Y140350D01*
X641150Y126350D01*
X628650Y126350D01*
X628650Y140350D01*
G37*
G36*
X633600Y138300D02*
X642439Y129461D01*
X632539Y119561D01*
X623700Y128400D01*
X633600Y138300D01*
G37*
G36*
X635650Y133350D02*
X635650Y120850D01*
X621650Y120850D01*
X621650Y133350D01*
X635650Y133350D01*
G37*
G36*
X633600Y128400D02*
X624761Y119561D01*
X614861Y129461D01*
X623700Y138300D01*
X633600Y128400D01*
G37*
G36*
X628650Y126350D02*
X616150Y126350D01*
X616150Y140350D01*
X628650Y140350D01*
X628650Y126350D01*
G37*
G36*
X623700Y128400D02*
X614861Y137239D01*
X624761Y147139D01*
X633600Y138300D01*
X623700Y128400D01*
G37*
G54D42*
G36*
X424800Y133350D02*
X424800Y145850D01*
X438800Y145850D01*
X438800Y133350D01*
X424800Y133350D01*
G37*
G36*
X426850Y138300D02*
X435689Y147139D01*
X445589Y137239D01*
X436750Y128400D01*
X426850Y138300D01*
G37*
G36*
X431800Y140350D02*
X444300Y140350D01*
X444300Y126350D01*
X431800Y126350D01*
X431800Y140350D01*
G37*
G36*
X436750Y138300D02*
X445589Y129461D01*
X435689Y119561D01*
X426850Y128400D01*
X436750Y138300D01*
G37*
G36*
X438800Y133350D02*
X438800Y120850D01*
X424800Y120850D01*
X424800Y133350D01*
X438800Y133350D01*
G37*
G36*
X436750Y128400D02*
X427911Y119561D01*
X418011Y129461D01*
X426850Y138300D01*
X436750Y128400D01*
G37*
G36*
X431800Y126350D02*
X419300Y126350D01*
X419300Y140350D01*
X431800Y140350D01*
X431800Y126350D01*
G37*
G36*
X426850Y128400D02*
X418011Y137239D01*
X427911Y147139D01*
X436750Y138300D01*
X426850Y128400D01*
G37*
G54D42*
G36*
X411867Y977002D02*
X411867Y964502D01*
X397867Y964502D01*
X397867Y977002D01*
X411867Y977002D01*
G37*
G36*
X409817Y972052D02*
X400978Y963213D01*
X391078Y973113D01*
X399917Y981952D01*
X409817Y972052D01*
G37*
G36*
X404867Y970002D02*
X392367Y970002D01*
X392367Y984002D01*
X404867Y984002D01*
X404867Y970002D01*
G37*
G36*
X399917Y972052D02*
X391078Y980891D01*
X400978Y990791D01*
X409817Y981952D01*
X399917Y972052D01*
G37*
G36*
X397867Y977002D02*
X397867Y989502D01*
X411867Y989502D01*
X411867Y977002D01*
X397867Y977002D01*
G37*
G36*
X399917Y981952D02*
X408756Y990791D01*
X418656Y980891D01*
X409817Y972052D01*
X399917Y981952D01*
G37*
G36*
X404867Y984002D02*
X417367Y984002D01*
X417367Y970002D01*
X404867Y970002D01*
X404867Y984002D01*
G37*
G36*
X409817Y981952D02*
X418656Y973113D01*
X408756Y963213D01*
X399917Y972052D01*
X409817Y981952D01*
G37*
G54D42*
G36*
X611257Y977002D02*
X611257Y964502D01*
X597257Y964502D01*
X597257Y977002D01*
X611257Y977002D01*
G37*
G36*
X609207Y972052D02*
X600368Y963213D01*
X590468Y973113D01*
X599307Y981952D01*
X609207Y972052D01*
G37*
G36*
X604257Y970002D02*
X591757Y970002D01*
X591757Y984002D01*
X604257Y984002D01*
X604257Y970002D01*
G37*
G36*
X599307Y972052D02*
X590468Y980891D01*
X600368Y990791D01*
X609207Y981952D01*
X599307Y972052D01*
G37*
G36*
X597257Y977002D02*
X597257Y989502D01*
X611257Y989502D01*
X611257Y977002D01*
X597257Y977002D01*
G37*
G36*
X599307Y981952D02*
X608146Y990791D01*
X618046Y980891D01*
X609207Y972052D01*
X599307Y981952D01*
G37*
G36*
X604257Y984002D02*
X616757Y984002D01*
X616757Y970002D01*
X604257Y970002D01*
X604257Y984002D01*
G37*
G36*
X609207Y981952D02*
X618046Y973113D01*
X608146Y963213D01*
X599307Y972052D01*
X609207Y981952D01*
G37*
G54D42*
G36*
X387737Y862702D02*
X387737Y850202D01*
X373737Y850202D01*
X373737Y862702D01*
X387737Y862702D01*
G37*
G36*
X385687Y857752D02*
X376848Y848913D01*
X366948Y858813D01*
X375787Y867652D01*
X385687Y857752D01*
G37*
G36*
X380737Y855702D02*
X368237Y855702D01*
X368237Y869702D01*
X380737Y869702D01*
X380737Y855702D01*
G37*
G36*
X375787Y857752D02*
X366948Y866591D01*
X376848Y876491D01*
X385687Y867652D01*
X375787Y857752D01*
G37*
G36*
X373737Y862702D02*
X373737Y875202D01*
X387737Y875202D01*
X387737Y862702D01*
X373737Y862702D01*
G37*
G36*
X375787Y867652D02*
X384626Y876491D01*
X394526Y866591D01*
X385687Y857752D01*
X375787Y867652D01*
G37*
G36*
X380737Y869702D02*
X393237Y869702D01*
X393237Y855702D01*
X380737Y855702D01*
X380737Y869702D01*
G37*
G36*
X385687Y867652D02*
X394526Y858813D01*
X384626Y848913D01*
X375787Y857752D01*
X385687Y867652D01*
G37*
G54D42*
G36*
X584587Y862702D02*
X584587Y850202D01*
X570587Y850202D01*
X570587Y862702D01*
X584587Y862702D01*
G37*
G36*
X582537Y857752D02*
X573698Y848913D01*
X563798Y858813D01*
X572637Y867652D01*
X582537Y857752D01*
G37*
G36*
X577587Y855702D02*
X565087Y855702D01*
X565087Y869702D01*
X577587Y869702D01*
X577587Y855702D01*
G37*
G36*
X572637Y857752D02*
X563798Y866591D01*
X573698Y876491D01*
X582537Y867652D01*
X572637Y857752D01*
G37*
G36*
X570587Y862702D02*
X570587Y875202D01*
X584587Y875202D01*
X584587Y862702D01*
X570587Y862702D01*
G37*
G36*
X572637Y867652D02*
X581476Y876491D01*
X591376Y866591D01*
X582537Y857752D01*
X572637Y867652D01*
G37*
G36*
X577587Y869702D02*
X590087Y869702D01*
X590087Y855702D01*
X577587Y855702D01*
X577587Y869702D01*
G37*
G36*
X582537Y867652D02*
X591376Y858813D01*
X581476Y848913D01*
X572637Y857752D01*
X582537Y867652D01*
G37*
G54D20*
G54D42*
G54D43*
G54D42*
G54D43*
G54D42*
G54D43*
G54D42*
G54D43*
G54D41*
G36*
X793243Y567472D02*
X786743Y567472D01*
X786743Y573472D01*
X793243Y573472D01*
X793243Y567472D01*
G37*
G36*
X791122Y568351D02*
X786526Y572947D01*
X790768Y577190D01*
X795364Y572593D01*
X791122Y568351D01*
G37*
G36*
X790243Y570472D02*
X790243Y576972D01*
X796243Y576972D01*
X796243Y570472D01*
X790243Y570472D01*
G37*
G36*
X791122Y572593D02*
X795718Y577190D01*
X799960Y572947D01*
X795364Y568351D01*
X791122Y572593D01*
G37*
G36*
X793243Y573472D02*
X799743Y573472D01*
X799743Y567472D01*
X793243Y567472D01*
X793243Y573472D01*
G37*
G36*
X795364Y572593D02*
X799960Y567997D01*
X795718Y563754D01*
X791122Y568351D01*
X795364Y572593D01*
G37*
G36*
X796243Y570472D02*
X796243Y563972D01*
X790243Y563972D01*
X790243Y570472D01*
X796243Y570472D01*
G37*
G36*
X795364Y568351D02*
X790768Y563754D01*
X786526Y567997D01*
X791122Y572593D01*
X795364Y568351D01*
G37*
X579890Y49750D02*
G54D44*
D03*
X529890Y49750D02*
G54D44*
D03*
X479890Y49750D02*
G54D44*
D03*
X429890Y49750D02*
G54D44*
D03*
X379890Y49750D02*
G54D44*
D03*
X329890Y49750D02*
G54D44*
D03*
X279890Y49750D02*
G54D44*
D03*
X229890Y49750D02*
G54D44*
D03*
X779890Y49750D02*
G54D44*
D03*
X729890Y49750D02*
G54D44*
D03*
X679890Y49750D02*
G54D44*
D03*
X629890Y49750D02*
G54D44*
D03*
X268875Y213450D02*
G54D45*
D03*
X268875Y232500D02*
G54D45*
D03*
X268875Y222975D02*
G54D45*
D03*
X278400Y213450D02*
G54D45*
D03*
X278400Y232500D02*
G54D45*
D03*
X278400Y222975D02*
G54D45*
D03*
X287925Y213450D02*
G54D45*
D03*
X287925Y232500D02*
G54D45*
D03*
X287925Y222975D02*
G54D45*
D03*
X297450Y213450D02*
G54D45*
D03*
X297450Y232500D02*
G54D45*
D03*
X297450Y222975D02*
G54D45*
D03*
X306975Y213450D02*
G54D45*
D03*
X306975Y232500D02*
G54D45*
D03*
X306975Y222975D02*
G54D45*
D03*
X316500Y213450D02*
G54D45*
D03*
X316500Y232500D02*
G54D45*
D03*
X316500Y222975D02*
G54D45*
D03*
X326025Y213450D02*
G54D45*
D03*
X326025Y232500D02*
G54D45*
D03*
X326025Y222975D02*
G54D45*
D03*
X335550Y213450D02*
G54D45*
D03*
X335550Y232500D02*
G54D45*
D03*
X335550Y222975D02*
G54D45*
D03*
G36*
X354600Y188050D02*
X354600Y264249D01*
X249825Y264250D01*
X249825Y188050D01*
X354600Y188050D01*
G37*
G54D46*
X354600Y188050D02*
X354600Y264249D01*
X249825Y264250D01*
X249825Y188050D01*
X354600Y188050D01*
G36*
X1175900Y896500D02*
X1175900Y881500D01*
X1160900Y881500D01*
X1160900Y896500D01*
X1175900Y896500D01*
G37*
X1193800Y889000D02*
G54D47*
D03*
X1168400Y863600D02*
G54D47*
D03*
X1193800Y863600D02*
G54D47*
D03*
X1168400Y838200D02*
G54D47*
D03*
X1193800Y838200D02*
G54D47*
D03*
X1168400Y812800D02*
G54D47*
D03*
X1193800Y812800D02*
G54D47*
D03*
X1168400Y787400D02*
G54D47*
D03*
X1193800Y787400D02*
G54D47*
D03*
X1168400Y762000D02*
G54D47*
D03*
X1193800Y762000D02*
G54D47*
D03*
X1168400Y736600D02*
G54D47*
D03*
X1193800Y736600D02*
G54D47*
D03*
X1168400Y711200D02*
G54D47*
D03*
X1193800Y711200D02*
G54D47*
D03*
X1168400Y685800D02*
G54D47*
D03*
X1193800Y685800D02*
G54D47*
D03*
X1168400Y660400D02*
G54D47*
D03*
X1193800Y660400D02*
G54D47*
D03*
X1168400Y635000D02*
G54D47*
D03*
X1193800Y635000D02*
G54D47*
D03*
X1168400Y609600D02*
G54D47*
D03*
X1193800Y609600D02*
G54D47*
D03*
X1168400Y584200D02*
G54D47*
D03*
X1193800Y584200D02*
G54D47*
D03*
X1193800Y558800D02*
G54D47*
D03*
X1168400Y533400D02*
G54D47*
D03*
X1193800Y533400D02*
G54D47*
D03*
X1168400Y508000D02*
G54D47*
D03*
X1193800Y508000D02*
G54D47*
D03*
X1168400Y482600D02*
G54D47*
D03*
X1193800Y482600D02*
G54D47*
D03*
X1168400Y457200D02*
G54D47*
D03*
X1193800Y457200D02*
G54D47*
D03*
X1168400Y431800D02*
G54D47*
D03*
X1193800Y431800D02*
G54D47*
D03*
X1168400Y406400D02*
G54D47*
D03*
X1193800Y406400D02*
G54D47*
D03*
X1168400Y381000D02*
G54D47*
D03*
X1193800Y381000D02*
G54D47*
D03*
X1168400Y355600D02*
G54D47*
D03*
X1193800Y355600D02*
G54D47*
D03*
X1168400Y330200D02*
G54D47*
D03*
X1193800Y330200D02*
G54D47*
D03*
X1168400Y304800D02*
G54D47*
D03*
X1193800Y304800D02*
G54D47*
D03*
X1168400Y279400D02*
G54D47*
D03*
X1193800Y279400D02*
G54D47*
D03*
X1168400Y254000D02*
G54D47*
D03*
X1193800Y254000D02*
G54D47*
D03*
X1168400Y558800D02*
G54D47*
D03*
X1168400Y228600D02*
G54D47*
D03*
X1193800Y228600D02*
G54D47*
D03*
X1168400Y203200D02*
G54D47*
D03*
X1193800Y203200D02*
G54D47*
D03*
X1168400Y177800D02*
G54D47*
D03*
X1193800Y177800D02*
G54D47*
D03*
X1168400Y152400D02*
G54D47*
D03*
X1193800Y152400D02*
G54D47*
D03*
X1193800Y127000D02*
G54D47*
D03*
X1168400Y101600D02*
G54D47*
D03*
X1193800Y101600D02*
G54D47*
D03*
X1168400Y76200D02*
G54D47*
D03*
X1193800Y76200D02*
G54D47*
D03*
X1168400Y50800D02*
G54D47*
D03*
X1193800Y50800D02*
G54D47*
D03*
X1168400Y25400D02*
G54D47*
D03*
X1193800Y25400D02*
G54D47*
D03*
X1168400Y127000D02*
G54D47*
D03*
X1245088Y920171D02*
G54D48*
D03*
X1257788Y164521D02*
G54D48*
D03*
G36*
X134500Y896500D02*
X134500Y881500D01*
X119500Y881500D01*
X119500Y896500D01*
X134500Y896500D01*
G37*
X101600Y889000D02*
G54D47*
D03*
X127000Y863600D02*
G54D47*
D03*
X101600Y863600D02*
G54D47*
D03*
X127000Y838200D02*
G54D47*
D03*
X101600Y838200D02*
G54D47*
D03*
X127000Y812800D02*
G54D47*
D03*
X101600Y812800D02*
G54D47*
D03*
X127000Y787400D02*
G54D47*
D03*
X101600Y787400D02*
G54D47*
D03*
X127000Y762000D02*
G54D47*
D03*
X101600Y762000D02*
G54D47*
D03*
X127000Y736600D02*
G54D47*
D03*
X101600Y736600D02*
G54D47*
D03*
X127000Y711200D02*
G54D47*
D03*
X101600Y711200D02*
G54D47*
D03*
X127000Y685800D02*
G54D47*
D03*
X101600Y685800D02*
G54D47*
D03*
X127000Y660400D02*
G54D47*
D03*
X101600Y660400D02*
G54D47*
D03*
X127000Y635000D02*
G54D47*
D03*
X101600Y635000D02*
G54D47*
D03*
X127000Y609600D02*
G54D47*
D03*
X101600Y609600D02*
G54D47*
D03*
X127000Y584200D02*
G54D47*
D03*
X101600Y584200D02*
G54D47*
D03*
X101600Y558800D02*
G54D47*
D03*
X127000Y533400D02*
G54D47*
D03*
X101600Y533400D02*
G54D47*
D03*
X127000Y508000D02*
G54D47*
D03*
X101600Y508000D02*
G54D47*
D03*
X127000Y482600D02*
G54D47*
D03*
X101600Y482600D02*
G54D47*
D03*
X127000Y457200D02*
G54D47*
D03*
X101600Y457200D02*
G54D47*
D03*
X127000Y431800D02*
G54D47*
D03*
X101600Y431800D02*
G54D47*
D03*
X127000Y406400D02*
G54D47*
D03*
X101600Y406400D02*
G54D47*
D03*
X127000Y381000D02*
G54D47*
D03*
X101600Y381000D02*
G54D47*
D03*
X127000Y355600D02*
G54D47*
D03*
X101600Y355600D02*
G54D47*
D03*
X127000Y330200D02*
G54D47*
D03*
X101600Y330200D02*
G54D47*
D03*
X127000Y304800D02*
G54D47*
D03*
X101600Y304800D02*
G54D47*
D03*
X127000Y279400D02*
G54D47*
D03*
X101600Y279400D02*
G54D47*
D03*
X127000Y254000D02*
G54D47*
D03*
X101600Y254000D02*
G54D47*
D03*
X127000Y558800D02*
G54D47*
D03*
X127000Y228600D02*
G54D47*
D03*
X101600Y228600D02*
G54D47*
D03*
X127000Y203200D02*
G54D47*
D03*
X101600Y203200D02*
G54D47*
D03*
X127000Y177800D02*
G54D47*
D03*
X101600Y177800D02*
G54D47*
D03*
X127000Y152400D02*
G54D47*
D03*
X101600Y152400D02*
G54D47*
D03*
X101600Y127000D02*
G54D47*
D03*
X127000Y101600D02*
G54D47*
D03*
X101600Y101600D02*
G54D47*
D03*
X127000Y76200D02*
G54D47*
D03*
X101600Y76200D02*
G54D47*
D03*
X127000Y50800D02*
G54D47*
D03*
X101600Y50800D02*
G54D47*
D03*
X127000Y25400D02*
G54D47*
D03*
X101600Y25400D02*
G54D47*
D03*
X127000Y127000D02*
G54D47*
D03*
X50312Y920171D02*
G54D48*
D03*
X37612Y164521D02*
G54D48*
D03*
X579890Y949750D02*
G54D44*
D03*
X529890Y949750D02*
G54D44*
D03*
X479890Y949750D02*
G54D44*
D03*
X429890Y949750D02*
G54D44*
D03*
X379890Y949750D02*
G54D44*
D03*
X329890Y949750D02*
G54D44*
D03*
X279890Y949750D02*
G54D44*
D03*
X229890Y949750D02*
G54D44*
D03*
X779890Y949750D02*
G54D44*
D03*
X729890Y949750D02*
G54D44*
D03*
X679890Y949750D02*
G54D44*
D03*
X629890Y949750D02*
G54D44*
D03*
X962000Y57300D02*
G54D49*
D03*
X988579Y915425D02*
G54D50*
D03*
X950479Y915425D02*
G54D50*
D03*
X988579Y915425D02*
G54D50*
D03*
X950479Y915425D02*
G54D50*
D03*
X1026679Y915425D02*
G54D50*
D03*
X912379Y915425D02*
G54D50*
D03*
X1071652Y915424D02*
G54D51*
D03*
X867420Y915423D02*
G54D51*
D03*
X1026679Y915425D02*
G54D49*
D03*
X988579Y915425D02*
G54D49*
D03*
X950479Y915425D02*
G54D49*
D03*
X912379Y915425D02*
G54D49*
D03*
X962000Y57300D02*
G54D50*
D03*
X1000100Y57300D02*
G54D50*
D03*
X962000Y57300D02*
G54D50*
D03*
X1000100Y57300D02*
G54D50*
D03*
X923900Y57300D02*
G54D50*
D03*
X262525Y118200D02*
G54D45*
D03*
X262525Y137250D02*
G54D45*
D03*
X262525Y127725D02*
G54D45*
D03*
X272050Y118200D02*
G54D45*
D03*
X272050Y137250D02*
G54D45*
D03*
X272050Y127725D02*
G54D45*
D03*
X341900Y118200D02*
G54D45*
D03*
X341900Y137250D02*
G54D45*
D03*
X341900Y127725D02*
G54D45*
D03*
X351425Y118200D02*
G54D45*
D03*
X351425Y137250D02*
G54D45*
D03*
X351425Y127725D02*
G54D45*
D03*
X291710Y178022D02*
G54D45*
D03*
X311460Y178022D02*
G54D45*
D03*
G36*
X256754Y277097D02*
X381537Y277090D01*
X381532Y264397D01*
X250397Y264450D01*
X250404Y270747D01*
X256754Y277097D01*
G37*
G54D52*
X256754Y277097D02*
X381537Y277090D01*
X381532Y264397D01*
X250397Y264450D01*
X250404Y270747D01*
X256754Y277097D01*
X781050Y501650D02*
G54D53*
D03*
X831850Y463550D02*
G54D45*
D03*
X828675Y482600D02*
G54D45*
D03*
X825500Y533400D02*
G54D45*
D03*
X831850Y539750D02*
G54D45*
D03*
G54D46*
X828675Y482600D02*
X828675Y530225D01*
X825500Y533400D01*
G54D46*
X831850Y463550D02*
X835025Y466725D01*
X835025Y536575D01*
X831850Y539750D01*
X993227Y493212D02*
G54D53*
D03*
X869950Y406400D02*
G54D54*
D03*
X933450Y438150D02*
G54D54*
D03*
X127000Y228600D02*
G54D55*
D03*
X101600Y101600D02*
G54D55*
D03*
X101600Y406400D02*
G54D55*
D03*
X1168400Y660400D02*
G54D55*
D03*
X1193800Y660400D02*
G54D55*
D03*
X1193800Y635000D02*
G54D55*
D03*
X1193800Y152400D02*
G54D55*
D03*
X1168400Y279400D02*
G54D55*
D03*
X1193800Y812800D02*
G54D55*
D03*
X677195Y558450D02*
G54D45*
D03*
X127000Y660400D02*
G54D55*
D03*
G54D41*
X993994Y454372D02*
X977900Y438150D01*
X933450Y438150D01*
X678050Y501998D02*
G54D45*
D03*
X678050Y482948D02*
G54D45*
D03*
X678050Y492473D02*
G54D45*
D03*
X668525Y501998D02*
G54D45*
D03*
X668525Y482948D02*
G54D45*
D03*
X668525Y492473D02*
G54D45*
D03*
X659000Y501998D02*
G54D45*
D03*
X659000Y482948D02*
G54D45*
D03*
X659000Y492473D02*
G54D45*
D03*
X649475Y501998D02*
G54D45*
D03*
X649475Y482948D02*
G54D45*
D03*
X649475Y492473D02*
G54D45*
D03*
X639950Y501998D02*
G54D45*
D03*
X639950Y482948D02*
G54D45*
D03*
X639950Y492473D02*
G54D45*
D03*
X630425Y501998D02*
G54D45*
D03*
X630425Y482948D02*
G54D45*
D03*
X630425Y492473D02*
G54D45*
D03*
X620900Y501998D02*
G54D45*
D03*
X620900Y482948D02*
G54D45*
D03*
X620900Y492473D02*
G54D45*
D03*
X611375Y501998D02*
G54D45*
D03*
X611375Y482948D02*
G54D45*
D03*
X611375Y492473D02*
G54D45*
D03*
G36*
X592325Y527398D02*
X592325Y460723D01*
X697100Y460723D01*
X697100Y527398D01*
X592325Y527398D01*
G37*
G54D46*
X592325Y527398D02*
X592325Y460723D01*
X697100Y460723D01*
X697100Y527398D01*
X592325Y527398D01*
X358820Y270897D02*
G54D45*
D03*
X368344Y274072D02*
G54D45*
D03*
X259350Y235675D02*
G54D45*
D03*
X259350Y226150D02*
G54D45*
D03*
X344440Y216308D02*
G54D45*
D03*
X344440Y206782D02*
G54D45*
D03*
G36*
X373570Y191522D02*
X367220Y201047D01*
X379920Y201047D01*
X373570Y191522D01*
G37*
G54D46*
X373570Y191522D02*
X367220Y201047D01*
X379920Y201047D01*
X373570Y191522D01*
G36*
X373617Y216957D02*
X379967Y207432D01*
X367267Y207432D01*
X373617Y216957D01*
G37*
G54D46*
X373617Y216957D02*
X379967Y207432D01*
X367267Y207432D01*
X373617Y216957D01*
G36*
X389444Y172472D02*
X383094Y181997D01*
X395794Y181997D01*
X389444Y172472D01*
G37*
G54D46*
X389444Y172472D02*
X383094Y181997D01*
X395794Y181997D01*
X389444Y172472D01*
G36*
X389492Y197907D02*
X395842Y188382D01*
X383142Y188382D01*
X389492Y197907D01*
G37*
G54D46*
X389492Y197907D02*
X395842Y188382D01*
X383142Y188382D01*
X389492Y197907D01*
G54D52*
X311460Y178022D02*
X311460Y176672D01*
X317998Y170133D01*
X368056Y170133D01*
X373570Y175647D01*
X373570Y194697D01*
G54D52*
X373570Y213747D02*
X373570Y220097D01*
X367220Y226447D01*
X354520Y226447D01*
G54D52*
X389492Y194732D02*
X389444Y220097D01*
X383094Y226447D01*
X367220Y226447D01*
G54D52*
X291710Y178022D02*
X291020Y177332D01*
X291020Y169297D01*
X297370Y162947D01*
X383094Y162947D01*
X389444Y169297D01*
X389444Y175647D01*
X468900Y213450D02*
G54D45*
D03*
X468900Y232500D02*
G54D45*
D03*
X468900Y222975D02*
G54D45*
D03*
X478425Y213450D02*
G54D45*
D03*
X478425Y232500D02*
G54D45*
D03*
X478425Y222975D02*
G54D45*
D03*
X487950Y213450D02*
G54D45*
D03*
X487950Y232500D02*
G54D45*
D03*
X487950Y222975D02*
G54D45*
D03*
X497475Y213450D02*
G54D45*
D03*
X497475Y232500D02*
G54D45*
D03*
X497475Y222975D02*
G54D45*
D03*
X507000Y213450D02*
G54D45*
D03*
X507000Y232500D02*
G54D45*
D03*
X507000Y222975D02*
G54D45*
D03*
X516525Y213450D02*
G54D45*
D03*
X516525Y232500D02*
G54D45*
D03*
X516525Y222975D02*
G54D45*
D03*
X526050Y213450D02*
G54D45*
D03*
X526050Y232500D02*
G54D45*
D03*
X526050Y222975D02*
G54D45*
D03*
X535575Y213450D02*
G54D45*
D03*
X535575Y232500D02*
G54D45*
D03*
X535575Y222975D02*
G54D45*
D03*
G36*
X554625Y188050D02*
X554625Y264249D01*
X449850Y264250D01*
X449850Y188050D01*
X554625Y188050D01*
G37*
G54D46*
X554625Y188050D02*
X554625Y264249D01*
X449850Y264250D01*
X449850Y188050D01*
X554625Y188050D01*
X462550Y118200D02*
G54D45*
D03*
X462550Y137250D02*
G54D45*
D03*
X462550Y127725D02*
G54D45*
D03*
X472075Y118200D02*
G54D45*
D03*
X472075Y137250D02*
G54D45*
D03*
X472075Y127725D02*
G54D45*
D03*
X541925Y118200D02*
G54D45*
D03*
X541925Y137250D02*
G54D45*
D03*
X541925Y127725D02*
G54D45*
D03*
X551450Y118200D02*
G54D45*
D03*
X551450Y137250D02*
G54D45*
D03*
X551450Y127725D02*
G54D45*
D03*
X491734Y178022D02*
G54D45*
D03*
X511484Y178022D02*
G54D45*
D03*
G36*
X456780Y277097D02*
X581562Y277090D01*
X581557Y264397D01*
X450422Y264450D01*
X450430Y270747D01*
X456780Y277097D01*
G37*
G54D52*
X456780Y277097D02*
X581562Y277090D01*
X581557Y264397D01*
X450422Y264450D01*
X450430Y270747D01*
X456780Y277097D01*
X558844Y270897D02*
G54D45*
D03*
X568370Y274072D02*
G54D45*
D03*
X459375Y235675D02*
G54D45*
D03*
X459375Y226150D02*
G54D45*
D03*
X544465Y216308D02*
G54D45*
D03*
X544465Y206782D02*
G54D45*
D03*
G36*
X573594Y191522D02*
X567244Y201047D01*
X579944Y201047D01*
X573594Y191522D01*
G37*
G54D46*
X573594Y191522D02*
X567244Y201047D01*
X579944Y201047D01*
X573594Y191522D01*
G36*
X573642Y216957D02*
X579992Y207432D01*
X567292Y207432D01*
X573642Y216957D01*
G37*
G54D46*
X573642Y216957D02*
X579992Y207432D01*
X567292Y207432D01*
X573642Y216957D01*
G36*
X589470Y172472D02*
X583120Y181997D01*
X595820Y181997D01*
X589470Y172472D01*
G37*
G54D46*
X589470Y172472D02*
X583120Y181997D01*
X595820Y181997D01*
X589470Y172472D01*
G36*
X589517Y197907D02*
X595867Y188382D01*
X583167Y188382D01*
X589517Y197907D01*
G37*
G54D46*
X589517Y197907D02*
X595867Y188382D01*
X583167Y188382D01*
X589517Y197907D01*
G54D52*
X511484Y178022D02*
X511484Y176672D01*
X518023Y170133D01*
X568081Y170133D01*
X573594Y175647D01*
X573594Y194697D01*
G54D52*
X573594Y213747D02*
X573594Y220097D01*
X567244Y226447D01*
X554544Y226447D01*
G54D52*
X589517Y194732D02*
X589470Y220097D01*
X583120Y226447D01*
X567244Y226447D01*
G54D52*
X491734Y178022D02*
X491044Y177332D01*
X491044Y169297D01*
X497394Y162947D01*
X583120Y162947D01*
X589470Y169297D01*
X589470Y175647D01*
X668925Y213450D02*
G54D45*
D03*
X668925Y232500D02*
G54D45*
D03*
X668925Y222975D02*
G54D45*
D03*
X678450Y213450D02*
G54D45*
D03*
X678450Y232500D02*
G54D45*
D03*
X678450Y222975D02*
G54D45*
D03*
X687975Y213450D02*
G54D45*
D03*
X687975Y232500D02*
G54D45*
D03*
X687975Y222975D02*
G54D45*
D03*
X697500Y213450D02*
G54D45*
D03*
X697500Y232500D02*
G54D45*
D03*
X697500Y222975D02*
G54D45*
D03*
X707025Y213450D02*
G54D45*
D03*
X707025Y232500D02*
G54D45*
D03*
X707025Y222975D02*
G54D45*
D03*
X716550Y213450D02*
G54D45*
D03*
X716550Y232500D02*
G54D45*
D03*
X716550Y222975D02*
G54D45*
D03*
X726075Y213450D02*
G54D45*
D03*
X726075Y232500D02*
G54D45*
D03*
X726075Y222975D02*
G54D45*
D03*
X735600Y213450D02*
G54D45*
D03*
X735600Y232500D02*
G54D45*
D03*
X735600Y222975D02*
G54D45*
D03*
G36*
X754650Y188050D02*
X754650Y264249D01*
X649875Y264250D01*
X649875Y188050D01*
X754650Y188050D01*
G37*
G54D46*
X754650Y188050D02*
X754650Y264249D01*
X649875Y264250D01*
X649875Y188050D01*
X754650Y188050D01*
X662575Y118200D02*
G54D45*
D03*
X662575Y137250D02*
G54D45*
D03*
X662575Y127725D02*
G54D45*
D03*
X672100Y118200D02*
G54D45*
D03*
X672100Y137250D02*
G54D45*
D03*
X672100Y127725D02*
G54D45*
D03*
X741950Y118200D02*
G54D45*
D03*
X741950Y137250D02*
G54D45*
D03*
X741950Y127725D02*
G54D45*
D03*
X751475Y118200D02*
G54D45*
D03*
X751475Y137250D02*
G54D45*
D03*
X751475Y127725D02*
G54D45*
D03*
X691760Y178022D02*
G54D45*
D03*
X711510Y178022D02*
G54D45*
D03*
G36*
X656804Y277097D02*
X781587Y277090D01*
X781582Y264397D01*
X650447Y264450D01*
X650454Y270747D01*
X656804Y277097D01*
G37*
G54D52*
X656804Y277097D02*
X781587Y277090D01*
X781582Y264397D01*
X650447Y264450D01*
X650454Y270747D01*
X656804Y277097D01*
X758870Y270897D02*
G54D45*
D03*
X768394Y274072D02*
G54D45*
D03*
X659400Y235675D02*
G54D45*
D03*
X659400Y226150D02*
G54D45*
D03*
X744490Y216308D02*
G54D45*
D03*
X744490Y206782D02*
G54D45*
D03*
G36*
X773620Y191522D02*
X767270Y201047D01*
X779970Y201047D01*
X773620Y191522D01*
G37*
G54D46*
X773620Y191522D02*
X767270Y201047D01*
X779970Y201047D01*
X773620Y191522D01*
G36*
X773667Y216957D02*
X780017Y207432D01*
X767317Y207432D01*
X773667Y216957D01*
G37*
G54D46*
X773667Y216957D02*
X780017Y207432D01*
X767317Y207432D01*
X773667Y216957D01*
G36*
X789494Y172472D02*
X783144Y181997D01*
X795844Y181997D01*
X789494Y172472D01*
G37*
G54D46*
X789494Y172472D02*
X783144Y181997D01*
X795844Y181997D01*
X789494Y172472D01*
G36*
X789542Y197907D02*
X795892Y188382D01*
X783192Y188382D01*
X789542Y197907D01*
G37*
G54D46*
X789542Y197907D02*
X795892Y188382D01*
X783192Y188382D01*
X789542Y197907D01*
G54D52*
X711510Y178022D02*
X711510Y176672D01*
X718048Y170133D01*
X768106Y170133D01*
X773620Y175647D01*
X773620Y194697D01*
G54D52*
X773620Y213747D02*
X773620Y220097D01*
X767270Y226447D01*
X754570Y226447D01*
G54D52*
X789542Y194732D02*
X789494Y220097D01*
X783144Y226447D01*
X767270Y226447D01*
G54D52*
X691760Y178022D02*
X691070Y177332D01*
X691070Y169297D01*
X697420Y162947D01*
X783144Y162947D01*
X789494Y169297D01*
X789494Y175647D01*
X949300Y336700D02*
G54D56*
D03*
X962000Y336700D02*
G54D56*
D03*
X974700Y336700D02*
G54D56*
D03*
X987400Y336700D02*
G54D56*
D03*
X949300Y324000D02*
G54D56*
D03*
X962000Y324000D02*
G54D56*
D03*
X974700Y324000D02*
G54D56*
D03*
X987400Y324000D02*
G54D56*
D03*
X949300Y311300D02*
G54D56*
D03*
X962000Y311300D02*
G54D56*
D03*
X974700Y311300D02*
G54D56*
D03*
X987400Y311300D02*
G54D56*
D03*
X949300Y298600D02*
G54D56*
D03*
X962000Y298600D02*
G54D56*
D03*
X974700Y298600D02*
G54D56*
D03*
X987400Y298600D02*
G54D56*
D03*
X949300Y285900D02*
G54D56*
D03*
X962000Y285900D02*
G54D56*
D03*
X974700Y285900D02*
G54D56*
D03*
X987400Y285900D02*
G54D56*
D03*
X949300Y273200D02*
G54D56*
D03*
X949300Y260500D02*
G54D56*
D03*
X962000Y273200D02*
G54D56*
D03*
X962000Y260500D02*
G54D56*
D03*
X974700Y273200D02*
G54D56*
D03*
X974700Y260500D02*
G54D56*
D03*
X987400Y273200D02*
G54D56*
D03*
X987400Y260500D02*
G54D56*
D03*
X1000100Y336700D02*
G54D56*
D03*
X1000100Y324000D02*
G54D56*
D03*
X1000100Y311300D02*
G54D56*
D03*
X1000100Y298600D02*
G54D56*
D03*
X1000100Y285900D02*
G54D56*
D03*
X1000100Y273200D02*
G54D56*
D03*
X1000100Y260500D02*
G54D56*
D03*
X1012800Y336700D02*
G54D56*
D03*
X1012800Y324000D02*
G54D56*
D03*
X1012800Y311300D02*
G54D56*
D03*
X1012800Y298600D02*
G54D56*
D03*
X1012800Y285900D02*
G54D56*
D03*
X1012800Y273200D02*
G54D56*
D03*
X1012800Y260500D02*
G54D56*
D03*
X1025500Y336700D02*
G54D56*
D03*
X1025500Y324000D02*
G54D56*
D03*
X1025500Y311300D02*
G54D56*
D03*
X1025500Y298600D02*
G54D56*
D03*
X1025500Y285900D02*
G54D56*
D03*
X1025500Y273200D02*
G54D56*
D03*
X1025500Y260500D02*
G54D56*
D03*
X993994Y454372D02*
G54D45*
D03*
X1041400Y558800D02*
G54D50*
D03*
X1041400Y533400D02*
G54D50*
D03*
X1041400Y508000D02*
G54D50*
D03*
X1041400Y533400D02*
G54D50*
D03*
X1041400Y558800D02*
G54D57*
D03*
X1017758Y454113D02*
G54D45*
D03*
G54D41*
X1017758Y454113D02*
X1017758Y420858D01*
X1003300Y406400D01*
X836150Y406400D01*
X898500Y308760D02*
G54D57*
D03*
X896675Y828591D02*
G54D58*
D03*
X819150Y254000D02*
G54D50*
D03*
X793750Y742950D02*
G54D50*
D03*
X743074Y783747D02*
G54D45*
D03*
X743074Y764697D02*
G54D45*
D03*
X743074Y774222D02*
G54D45*
D03*
X733550Y783747D02*
G54D45*
D03*
X733550Y764697D02*
G54D45*
D03*
X733550Y774222D02*
G54D45*
D03*
X724024Y783747D02*
G54D45*
D03*
X724024Y764697D02*
G54D45*
D03*
X724024Y774222D02*
G54D45*
D03*
X714500Y783747D02*
G54D45*
D03*
X714500Y764697D02*
G54D45*
D03*
X714500Y774222D02*
G54D45*
D03*
X704974Y783747D02*
G54D45*
D03*
X704975Y764697D02*
G54D45*
D03*
X704974Y774222D02*
G54D45*
D03*
X695450Y783747D02*
G54D45*
D03*
X695450Y764697D02*
G54D45*
D03*
X695450Y774222D02*
G54D45*
D03*
X685924Y783747D02*
G54D45*
D03*
X685925Y764697D02*
G54D45*
D03*
X685925Y774222D02*
G54D45*
D03*
X676400Y783747D02*
G54D45*
D03*
X676400Y764697D02*
G54D45*
D03*
X676400Y774222D02*
G54D45*
D03*
G36*
X657350Y809147D02*
X657349Y732948D01*
X762124Y732947D01*
X762124Y809147D01*
X657350Y809147D01*
G37*
G54D46*
X657350Y809147D02*
X657349Y732948D01*
X762124Y732947D01*
X762124Y809147D01*
X657350Y809147D01*
X749424Y878997D02*
G54D45*
D03*
X749425Y859947D02*
G54D45*
D03*
X749424Y869472D02*
G54D45*
D03*
X739900Y878997D02*
G54D45*
D03*
X739900Y859947D02*
G54D45*
D03*
X739900Y869472D02*
G54D45*
D03*
X670050Y878997D02*
G54D45*
D03*
X670050Y859947D02*
G54D45*
D03*
X670050Y869472D02*
G54D45*
D03*
X660524Y878997D02*
G54D45*
D03*
X660524Y859947D02*
G54D45*
D03*
X660524Y869472D02*
G54D45*
D03*
X720240Y819175D02*
G54D45*
D03*
X700490Y819175D02*
G54D45*
D03*
G36*
X755195Y720100D02*
X630413Y720106D01*
X630418Y732800D01*
X761552Y732747D01*
X761545Y726450D01*
X755195Y720100D01*
G37*
G54D52*
X755195Y720100D02*
X630413Y720106D01*
X630418Y732800D01*
X761552Y732747D01*
X761545Y726450D01*
X755195Y720100D01*
X653130Y726300D02*
G54D45*
D03*
X643605Y723125D02*
G54D45*
D03*
X752600Y761522D02*
G54D45*
D03*
X752600Y771047D02*
G54D45*
D03*
X667510Y780889D02*
G54D45*
D03*
X667510Y790414D02*
G54D45*
D03*
G36*
X638380Y805675D02*
X644730Y796150D01*
X632030Y796150D01*
X638380Y805675D01*
G37*
G54D46*
X638380Y805675D02*
X644730Y796150D01*
X632030Y796150D01*
X638380Y805675D01*
G36*
X638332Y780240D02*
X631982Y789765D01*
X644683Y789765D01*
X638332Y780240D01*
G37*
G54D46*
X638332Y780240D02*
X631982Y789765D01*
X644683Y789765D01*
X638332Y780240D01*
G36*
X622505Y824725D02*
X628855Y815200D01*
X616155Y815200D01*
X622505Y824725D01*
G37*
G54D46*
X622505Y824725D02*
X628855Y815200D01*
X616155Y815200D01*
X622505Y824725D01*
G36*
X622458Y799290D02*
X616107Y808815D01*
X628808Y808815D01*
X622458Y799290D01*
G37*
G54D46*
X622458Y799290D02*
X616107Y808815D01*
X628808Y808815D01*
X622458Y799290D01*
G54D52*
X700490Y819175D02*
X700490Y820525D01*
X693952Y827064D01*
X643894Y827064D01*
X638380Y821550D01*
X638380Y802500D01*
G54D52*
X638380Y783450D02*
X638380Y777100D01*
X644730Y770750D01*
X657430Y770750D01*
G54D52*
X622458Y802465D02*
X622505Y777100D01*
X628855Y770750D01*
X644730Y770750D01*
G54D52*
X720240Y819175D02*
X720930Y819865D01*
X720930Y827900D01*
X714580Y834250D01*
X628855Y834250D01*
X622505Y827900D01*
X622505Y821550D01*
X543050Y783747D02*
G54D45*
D03*
X543050Y764697D02*
G54D45*
D03*
X543050Y774222D02*
G54D45*
D03*
X533525Y783747D02*
G54D45*
D03*
X533524Y764697D02*
G54D45*
D03*
X533525Y774222D02*
G54D45*
D03*
X524000Y783747D02*
G54D45*
D03*
X524000Y764697D02*
G54D45*
D03*
X524000Y774222D02*
G54D45*
D03*
X514474Y783747D02*
G54D45*
D03*
X514474Y764697D02*
G54D45*
D03*
X514474Y774222D02*
G54D45*
D03*
X504950Y783747D02*
G54D45*
D03*
X504950Y764697D02*
G54D45*
D03*
X504950Y774222D02*
G54D45*
D03*
X495424Y783747D02*
G54D45*
D03*
X495424Y764697D02*
G54D45*
D03*
X495424Y774222D02*
G54D45*
D03*
X485900Y783747D02*
G54D45*
D03*
X485900Y764697D02*
G54D45*
D03*
X485900Y774222D02*
G54D45*
D03*
X476374Y783747D02*
G54D45*
D03*
X476374Y764697D02*
G54D45*
D03*
X476374Y774222D02*
G54D45*
D03*
G36*
X457324Y809147D02*
X457324Y732948D01*
X562100Y732947D01*
X562100Y809147D01*
X457324Y809147D01*
G37*
G54D46*
X457324Y809147D02*
X457324Y732948D01*
X562100Y732947D01*
X562100Y809147D01*
X457324Y809147D01*
X549400Y878997D02*
G54D45*
D03*
X549400Y859947D02*
G54D45*
D03*
X549400Y869472D02*
G54D45*
D03*
X539874Y878997D02*
G54D45*
D03*
X539874Y859947D02*
G54D45*
D03*
X539874Y869472D02*
G54D45*
D03*
X470024Y878997D02*
G54D45*
D03*
X470025Y859947D02*
G54D45*
D03*
X470024Y869472D02*
G54D45*
D03*
X460500Y878997D02*
G54D45*
D03*
X460500Y859947D02*
G54D45*
D03*
X460500Y869472D02*
G54D45*
D03*
X520215Y819175D02*
G54D45*
D03*
X500465Y819175D02*
G54D45*
D03*
G36*
X555170Y720100D02*
X430388Y720106D01*
X430393Y732800D01*
X561527Y732747D01*
X561520Y726450D01*
X555170Y720100D01*
G37*
G54D52*
X555170Y720100D02*
X430388Y720106D01*
X430393Y732800D01*
X561527Y732747D01*
X561520Y726450D01*
X555170Y720100D01*
X453105Y726300D02*
G54D45*
D03*
X443580Y723125D02*
G54D45*
D03*
X552575Y761522D02*
G54D45*
D03*
X552575Y771047D02*
G54D45*
D03*
X467484Y780889D02*
G54D45*
D03*
X467484Y790414D02*
G54D45*
D03*
G36*
X438355Y805675D02*
X444705Y796150D01*
X432005Y796150D01*
X438355Y805675D01*
G37*
G54D46*
X438355Y805675D02*
X444705Y796150D01*
X432005Y796150D01*
X438355Y805675D01*
G36*
X438308Y780240D02*
X431957Y789765D01*
X444658Y789765D01*
X438308Y780240D01*
G37*
G54D46*
X438308Y780240D02*
X431957Y789765D01*
X444658Y789765D01*
X438308Y780240D01*
G36*
X422480Y824725D02*
X428830Y815200D01*
X416130Y815200D01*
X422480Y824725D01*
G37*
G54D46*
X422480Y824725D02*
X428830Y815200D01*
X416130Y815200D01*
X422480Y824725D01*
G36*
X422432Y799290D02*
X416082Y808815D01*
X428782Y808815D01*
X422432Y799290D01*
G37*
G54D46*
X422432Y799290D02*
X416082Y808815D01*
X428782Y808815D01*
X422432Y799290D01*
G54D52*
X500465Y819175D02*
X500465Y820525D01*
X493926Y827064D01*
X443868Y827064D01*
X438355Y821550D01*
X438355Y802500D01*
G54D52*
X438355Y783450D02*
X438355Y777100D01*
X444705Y770750D01*
X457405Y770750D01*
G54D52*
X422432Y802465D02*
X422480Y777100D01*
X428830Y770750D01*
X444705Y770750D01*
G54D52*
X520215Y819175D02*
X520905Y819865D01*
X520905Y827900D01*
X514555Y834250D01*
X428830Y834250D01*
X422480Y827900D01*
X422480Y821550D01*
X343024Y783747D02*
G54D45*
D03*
X343024Y764697D02*
G54D45*
D03*
X343024Y774222D02*
G54D45*
D03*
X333500Y783747D02*
G54D45*
D03*
X333500Y764697D02*
G54D45*
D03*
X333500Y774222D02*
G54D45*
D03*
X323974Y783747D02*
G54D45*
D03*
X323974Y764697D02*
G54D45*
D03*
X323974Y774222D02*
G54D45*
D03*
X314450Y783747D02*
G54D45*
D03*
X314450Y764697D02*
G54D45*
D03*
X314450Y774222D02*
G54D45*
D03*
X304924Y783747D02*
G54D45*
D03*
X304924Y764697D02*
G54D45*
D03*
X304924Y774222D02*
G54D45*
D03*
X295400Y783747D02*
G54D45*
D03*
X295400Y764697D02*
G54D45*
D03*
X295400Y774222D02*
G54D45*
D03*
X285875Y783747D02*
G54D45*
D03*
X285875Y764697D02*
G54D45*
D03*
X285875Y774222D02*
G54D45*
D03*
X276350Y783747D02*
G54D45*
D03*
X276350Y764697D02*
G54D45*
D03*
X276350Y774222D02*
G54D45*
D03*
G36*
X257300Y809147D02*
X257299Y732948D01*
X362074Y732947D01*
X362074Y809147D01*
X257300Y809147D01*
G37*
G54D46*
X257300Y809147D02*
X257299Y732948D01*
X362074Y732947D01*
X362074Y809147D01*
X257300Y809147D01*
X349375Y878997D02*
G54D45*
D03*
X349375Y859947D02*
G54D45*
D03*
X349375Y869472D02*
G54D45*
D03*
X339850Y878997D02*
G54D45*
D03*
X339850Y859947D02*
G54D45*
D03*
X339850Y869472D02*
G54D45*
D03*
X270000Y878997D02*
G54D45*
D03*
X270000Y859947D02*
G54D45*
D03*
X270000Y869472D02*
G54D45*
D03*
X260474Y878997D02*
G54D45*
D03*
X260474Y859947D02*
G54D45*
D03*
X260474Y869472D02*
G54D45*
D03*
X320190Y819175D02*
G54D45*
D03*
X300440Y819175D02*
G54D45*
D03*
G36*
X355145Y720100D02*
X230362Y720106D01*
X230368Y732800D01*
X361502Y732747D01*
X361495Y726450D01*
X355145Y720100D01*
G37*
G54D52*
X355145Y720100D02*
X230362Y720106D01*
X230368Y732800D01*
X361502Y732747D01*
X361495Y726450D01*
X355145Y720100D01*
X253080Y726300D02*
G54D45*
D03*
X243555Y723125D02*
G54D45*
D03*
X352550Y761522D02*
G54D45*
D03*
X352550Y771047D02*
G54D45*
D03*
X267460Y780889D02*
G54D45*
D03*
X267460Y790414D02*
G54D45*
D03*
G36*
X238330Y805675D02*
X244680Y796150D01*
X231980Y796150D01*
X238330Y805675D01*
G37*
G54D46*
X238330Y805675D02*
X244680Y796150D01*
X231980Y796150D01*
X238330Y805675D01*
G36*
X238282Y780240D02*
X231932Y789765D01*
X244633Y789765D01*
X238282Y780240D01*
G37*
G54D46*
X238282Y780240D02*
X231932Y789765D01*
X244633Y789765D01*
X238282Y780240D01*
G36*
X222455Y824725D02*
X228805Y815200D01*
X216105Y815200D01*
X222455Y824725D01*
G37*
G54D46*
X222455Y824725D02*
X228805Y815200D01*
X216105Y815200D01*
X222455Y824725D01*
G36*
X222408Y799290D02*
X216057Y808815D01*
X228758Y808815D01*
X222408Y799290D01*
G37*
G54D46*
X222408Y799290D02*
X216057Y808815D01*
X228758Y808815D01*
X222408Y799290D01*
G54D52*
X300440Y819175D02*
X300440Y820525D01*
X293902Y827064D01*
X243844Y827064D01*
X238330Y821550D01*
X238330Y802500D01*
G54D52*
X238330Y783450D02*
X238330Y777100D01*
X244680Y770750D01*
X257380Y770750D01*
G54D52*
X222408Y802465D02*
X222455Y777100D01*
X228805Y770750D01*
X244680Y770750D01*
G54D52*
X320190Y819175D02*
X320880Y819865D01*
X320880Y827900D01*
X314530Y834250D01*
X228805Y834250D01*
X222455Y827900D01*
X222455Y821550D01*
X838834Y582930D02*
G54D53*
D03*
X245045Y396175D02*
G54D45*
D03*
X287272Y389825D02*
G54D45*
D03*
X328865Y383475D02*
G54D45*
D03*
X371727Y365695D02*
G54D45*
D03*
X444500Y358775D02*
G54D45*
D03*
X487045Y352425D02*
G54D45*
D03*
X528955Y346075D02*
G54D45*
D03*
X571500Y339725D02*
G54D45*
D03*
X650875Y333375D02*
G54D45*
D03*
X692150Y327025D02*
G54D45*
D03*
X730250Y320675D02*
G54D45*
D03*
X765175Y314325D02*
G54D45*
D03*
X739775Y711200D02*
G54D45*
D03*
X727075Y704850D02*
G54D45*
D03*
X708025Y698500D02*
G54D45*
D03*
X679450Y692150D02*
G54D45*
D03*
X565150Y685800D02*
G54D45*
D03*
X520700Y679450D02*
G54D45*
D03*
X482600Y673100D02*
G54D45*
D03*
X444500Y666750D02*
G54D45*
D03*
X368300Y660400D02*
G54D45*
D03*
X330200Y609600D02*
G54D45*
D03*
X284480Y603250D02*
G54D45*
D03*
X238125Y596900D02*
G54D45*
D03*
G54D31*
X353615Y729939D02*
X366626Y742950D01*
X793750Y742950D01*
G54D31*
X349250Y254038D02*
X819150Y254000D01*
G54D41*
X127000Y279400D02*
X209550Y279400D01*
X234950Y304800D01*
X768350Y304800D01*
G54D20*
X1030738Y475113D02*
X1041400Y485775D01*
X1041400Y508000D01*
G54D20*
X898525Y454025D02*
X942975Y454025D01*
X1017358Y475113D02*
G54D45*
D03*
X889000Y463549D02*
G54D53*
D03*
X815468Y570472D02*
G54D45*
D03*
X777368Y421882D02*
G54D45*
D03*
X796318Y421692D02*
G54D45*
D03*
X698500Y447675D02*
G54D45*
D03*
X784225Y622300D02*
G54D45*
D03*
X742950Y622300D02*
G54D45*
D03*
X701675Y622300D02*
G54D45*
D03*
X660400Y622300D02*
G54D45*
D03*
X584200Y622300D02*
G54D45*
D03*
X542925Y622300D02*
G54D45*
D03*
X501650Y622300D02*
G54D45*
D03*
X460375Y622300D02*
G54D45*
D03*
X384175Y622300D02*
G54D45*
D03*
X342900Y622300D02*
G54D45*
D03*
X301625Y622300D02*
G54D45*
D03*
X260350Y622300D02*
G54D45*
D03*
X751868Y374702D02*
G54D45*
D03*
X796318Y376607D02*
G54D45*
D03*
X845609Y394759D02*
G54D45*
D03*
X1053041Y394759D02*
G54D45*
D03*
G54D46*
X845609Y394759D02*
X1053041Y394759D01*
G54D46*
X127000Y254000D02*
X200025Y254000D01*
X243192Y297167D01*
X775594Y297167D01*
G54D46*
X775594Y297167D02*
X784225Y305435D01*
X873125Y394335D02*
G54D45*
D03*
X1009650Y511175D02*
G54D45*
D03*
G54D46*
X677195Y558450D02*
X717900Y558450D01*
X730250Y546100D01*
X838200Y546100D01*
X881062Y517525D02*
G54D45*
D03*
G54D46*
X838200Y546100D02*
X841375Y542925D01*
X841375Y523875D01*
G54D46*
X841375Y523875D02*
X847725Y517525D01*
X881062Y517525D01*
G54D46*
X677195Y558450D02*
X658495Y539750D01*
X590550Y539750D01*
X584200Y533400D01*
X584200Y444500D01*
X584200Y444500D02*
G54D45*
D03*
X896675Y828591D02*
G54D58*
D03*
X860754Y792670D02*
G54D58*
D03*
X1023675Y768266D02*
G54D58*
D03*
G54D46*
X101600Y38100D02*
X190500Y38100D01*
G54D46*
X190500Y38100D02*
X203200Y50800D01*
X203200Y82550D01*
X222250Y101600D01*
X390525Y133350D02*
G54D45*
D03*
X400050Y127000D02*
G54D45*
D03*
X590550Y133350D02*
G54D45*
D03*
X600075Y127000D02*
G54D45*
D03*
X790575Y152400D02*
G54D45*
D03*
X800100Y146050D02*
G54D45*
D03*
G54D46*
X127000Y50800D02*
X114300Y63500D01*
X82550Y63500D01*
X76200Y69850D01*
X76200Y457200D01*
G54D46*
X76200Y933450D02*
X88900Y946150D01*
X114300Y946150D01*
G54D46*
X114300Y946150D02*
X184150Y946150D01*
G54D46*
X184150Y946150D02*
X203200Y927100D01*
X203200Y908050D01*
X222250Y889000D01*
G54D46*
X777875Y898525D02*
X838200Y958850D01*
G54D46*
X1212850Y850900D02*
X1231900Y831850D01*
X1231900Y279400D01*
X222250Y876300D02*
G54D45*
D03*
X422275Y876300D02*
G54D45*
D03*
X622300Y876300D02*
G54D45*
D03*
G54D46*
X101600Y889000D02*
X101600Y933450D01*
X107950Y939800D01*
X177800Y939800D01*
X196850Y920750D01*
X196850Y904875D01*
X212725Y889000D01*
X612775Y869950D02*
G54D45*
D03*
X412900Y869800D02*
G54D45*
D03*
X212725Y869950D02*
G54D45*
D03*
G54D46*
X765175Y314325D02*
X234394Y314325D01*
X215952Y301677D02*
G54D45*
D03*
G54D46*
X234394Y314325D02*
X228600Y314325D01*
X215952Y301677D01*
X215952Y311202D02*
G54D45*
D03*
G54D46*
X215952Y311202D02*
X225425Y320675D01*
X730250Y320675D01*
G54D46*
X692150Y327025D02*
X222250Y327025D01*
X206375Y311150D01*
X206375Y311150D02*
G54D45*
D03*
X206427Y320727D02*
G54D45*
D03*
G54D46*
X206427Y320727D02*
X219075Y333375D01*
X650875Y333375D01*
X196902Y320727D02*
G54D45*
D03*
X196902Y330252D02*
G54D45*
D03*
X187377Y330252D02*
G54D45*
D03*
X187377Y339777D02*
G54D45*
D03*
G54D46*
X571500Y339725D02*
X215900Y339725D01*
X196902Y320727D01*
G54D46*
X528955Y346075D02*
X212725Y346075D01*
X196902Y330252D01*
G54D46*
X487045Y352425D02*
X209550Y352425D01*
X187377Y330252D01*
X177852Y339777D02*
G54D45*
D03*
G54D46*
X444500Y358775D02*
X206375Y358775D01*
X187377Y339777D01*
G54D46*
X371727Y364425D02*
X202500Y364425D01*
X177852Y339777D01*
X177852Y349302D02*
G54D45*
D03*
X168327Y349302D02*
G54D45*
D03*
X168327Y358827D02*
G54D45*
D03*
G54D46*
X328865Y383475D02*
X212025Y383475D01*
X177852Y349302D01*
G54D46*
X287272Y389825D02*
X208850Y389825D01*
X168327Y349302D01*
G54D46*
X245045Y396175D02*
X205675Y396175D01*
X168327Y358827D01*
G54D46*
X765175Y314325D02*
X822325Y314325D01*
G54D46*
X730250Y320675D02*
X828675Y320675D01*
G54D46*
X692150Y327025D02*
X835025Y327025D01*
G54D46*
X650875Y333375D02*
X841375Y333375D01*
G54D46*
X571500Y339725D02*
X847725Y339725D01*
G54D46*
X528955Y346075D02*
X854075Y346075D01*
G54D46*
X487045Y352425D02*
X860425Y352425D01*
G54D46*
X444500Y358775D02*
X866775Y358775D01*
G54D46*
X371727Y364425D02*
X372428Y365125D01*
X873125Y365125D01*
G54D46*
X328865Y383475D02*
X810325Y383475D01*
X822325Y371475D01*
X879475Y371475D01*
G54D46*
X287272Y389825D02*
X813500Y389825D01*
X825500Y377825D01*
X885825Y377825D01*
G54D46*
X245045Y396175D02*
X816675Y396175D01*
X828675Y384175D01*
X892175Y384175D01*
X800100Y304800D02*
G54D54*
D03*
X768350Y304800D02*
G54D54*
D03*
G54D41*
X127000Y152400D02*
X212725Y152400D01*
X234950Y174625D01*
X234950Y272784D01*
X251143Y288977D01*
X784277Y288977D01*
X800100Y304800D01*
X784225Y305435D02*
G54D45*
D03*
X836150Y406400D02*
G54D54*
D03*
X247650Y438150D02*
G54D45*
D03*
G54D46*
X127000Y330200D02*
X203200Y406400D01*
G54D46*
X203200Y406400D02*
X241300Y406400D01*
X247650Y412750D01*
X247650Y438150D01*
X215900Y419100D02*
G54D55*
D03*
X710593Y374702D02*
G54D45*
D03*
X669318Y374702D02*
G54D45*
D03*
X628043Y374702D02*
G54D45*
D03*
X551843Y374702D02*
G54D45*
D03*
X510568Y374702D02*
G54D45*
D03*
X469293Y374702D02*
G54D45*
D03*
X428018Y374702D02*
G54D45*
D03*
X351818Y374702D02*
G54D45*
D03*
X310543Y374702D02*
G54D45*
D03*
X269268Y374702D02*
G54D45*
D03*
X227993Y374702D02*
G54D45*
D03*
G54D46*
X822325Y314325D02*
X825500Y311150D01*
X825500Y273050D01*
X838200Y260350D01*
X838200Y107950D01*
X844550Y101600D01*
X1168400Y101600D01*
G54D46*
X828675Y320675D02*
X831850Y317500D01*
X831850Y276225D01*
X844550Y263525D01*
X844550Y114300D01*
X850900Y107950D01*
X1149350Y107950D01*
X1155700Y114300D01*
X1181100Y114300D01*
X1193800Y101600D01*
G54D46*
X835025Y327025D02*
X838200Y323850D01*
X838200Y279400D01*
X850900Y266700D01*
X850900Y136525D01*
X860425Y127000D01*
X1168400Y127000D01*
G54D46*
X841375Y333375D02*
X844550Y330200D01*
X844550Y282575D01*
X857250Y269875D01*
X857175Y158900D01*
X863600Y152400D01*
X1168400Y152400D01*
G54D46*
X847725Y339725D02*
X850900Y336550D01*
X850900Y285750D01*
X863600Y273050D01*
X863600Y184150D01*
X869950Y177800D01*
X1168400Y177800D01*
G54D46*
X854075Y346075D02*
X857250Y342900D01*
X857250Y288925D01*
X869950Y276225D01*
X869950Y196850D01*
G54D46*
X869950Y196850D02*
X876300Y190500D01*
X1181100Y190500D01*
X1193800Y177800D01*
G54D46*
X860425Y352425D02*
X863600Y349250D01*
X863600Y292100D01*
X876300Y279400D01*
X876300Y222250D01*
X882650Y215900D01*
X1168400Y215900D01*
G54D46*
X866775Y358775D02*
X869950Y355600D01*
X869950Y295275D01*
X882650Y282575D01*
X882650Y234950D01*
X889000Y228600D01*
X1136650Y228600D01*
X1149350Y241300D01*
G54D46*
X739775Y711200D02*
X828675Y711200D01*
G54D46*
X727075Y704850D02*
X831850Y704850D01*
G54D46*
X708025Y698500D02*
X835025Y698500D01*
G54D46*
X679450Y692150D02*
X838200Y692150D01*
G54D46*
X565150Y685800D02*
X850900Y685800D01*
G54D46*
X520700Y679450D02*
X857250Y679450D01*
G54D46*
X482600Y673100D02*
X863600Y673100D01*
G54D46*
X444500Y666750D02*
X869950Y666750D01*
G54D46*
X828675Y711200D02*
X981075Y863600D01*
X1117600Y863600D01*
X1143000Y889000D01*
X1168400Y889000D01*
G54D46*
X831850Y704850D02*
X984250Y857250D01*
X1123950Y857250D01*
G54D46*
X1123950Y857250D02*
X1130300Y863600D01*
X1168400Y863600D01*
G54D46*
X835025Y698500D02*
X987425Y850900D01*
X1181100Y850900D01*
X1193800Y863600D01*
G54D46*
X838200Y692150D02*
X952500Y806450D01*
X1149350Y806450D01*
X1168400Y787400D01*
G54D46*
X850900Y685800D02*
X1041400Y685800D01*
X1117600Y762000D01*
X1168400Y762000D01*
G54D46*
X857250Y679450D02*
X1162050Y679450D01*
X1168400Y685800D01*
G54D46*
X863600Y673100D02*
X1041400Y673100D01*
X1143000Y571500D01*
X1181100Y571500D01*
X1193800Y558800D01*
G54D46*
X869950Y666750D02*
X1035050Y666750D01*
X1143000Y558800D01*
X1143000Y533400D01*
G54D46*
X368300Y660400D02*
X1028700Y660400D01*
X1133475Y555625D01*
X1133475Y466725D01*
X1143000Y457200D01*
X1168400Y457200D01*
G54D46*
X330200Y609600D02*
X1066800Y609600D01*
X1123950Y552450D01*
X1123950Y450850D01*
G54D46*
X1123950Y450850D02*
X1130300Y444500D01*
X1181100Y444500D01*
X1193800Y431800D01*
G54D46*
X284480Y603250D02*
X1060450Y603250D01*
X1114425Y549275D01*
X1114425Y444500D01*
X1127125Y431800D01*
X1168400Y431800D01*
G54D46*
X238125Y596900D02*
X1054100Y596900D01*
X1104900Y546100D01*
X1104900Y425450D01*
G54D46*
X1104900Y425450D02*
X1111250Y419100D01*
X1181100Y419100D01*
X1193800Y406400D01*
G54D46*
X739775Y711200D02*
X209550Y711200D01*
X203200Y717550D01*
X203200Y869950D01*
X184150Y889000D01*
X127000Y889000D01*
G54D46*
X727075Y704850D02*
X203200Y704850D01*
X196850Y711200D01*
X196850Y857250D01*
X190500Y863600D01*
X127000Y863600D01*
G54D46*
X708025Y698500D02*
X196850Y698500D01*
X190500Y704850D01*
X190500Y844550D01*
X184150Y850900D01*
X114300Y850900D01*
X101600Y863600D01*
G54D46*
X679450Y692150D02*
X190500Y692150D01*
X184150Y698500D01*
X184150Y819150D01*
X177800Y825500D01*
X114300Y825500D01*
X101600Y838200D01*
G54D46*
X565150Y685800D02*
X184150Y685800D01*
X177800Y692150D01*
X177800Y742950D01*
X171450Y749300D01*
X114300Y749300D01*
X101600Y762000D01*
G54D46*
X520700Y679450D02*
X177800Y679450D01*
X171450Y685800D01*
X171450Y704850D01*
X165100Y711200D01*
X127000Y711200D01*
G54D46*
X482600Y673100D02*
X171450Y673100D01*
X158750Y685800D01*
X127000Y685800D01*
G54D46*
X444500Y666750D02*
X165100Y666750D01*
X158750Y673100D01*
X114300Y673100D01*
X101600Y685800D01*
G54D46*
X368300Y660400D02*
X165100Y660400D01*
X152400Y647700D01*
X114300Y647700D01*
X101600Y660400D01*
G54D46*
X330200Y609600D02*
X165100Y609600D01*
X139700Y635000D01*
X127000Y635000D01*
G54D46*
X284480Y603250D02*
X133350Y603250D01*
X127000Y609600D01*
G54D46*
X238125Y596900D02*
X114300Y596900D01*
X101600Y584200D01*
X805180Y584200D02*
G54D55*
D03*
G36*
X937745Y346050D02*
X1036955Y346050D01*
X1036955Y250825D01*
X937745Y250825D01*
X937745Y346050D01*
G37*
G54D46*
X937745Y346050D02*
X1036955Y346050D01*
X1036955Y250825D01*
X937745Y250825D01*
X937745Y346050D01*
G54D46*
X892175Y384175D02*
X1101725Y384175D01*
X1123950Y406400D01*
X1168400Y406400D01*
G54D46*
X885825Y377825D02*
X1104900Y377825D01*
X1120775Y393700D01*
X1174750Y393700D01*
G54D46*
X879475Y371475D02*
X1108075Y371475D01*
X1117600Y381000D01*
X1168400Y381000D01*
G54D46*
X873125Y365125D02*
X1111250Y365125D01*
X1114425Y368300D01*
X1155700Y368300D01*
X1168400Y355600D01*
X1047750Y422275D02*
G54D50*
D03*
X838200Y958850D02*
G54D45*
D03*
X844550Y952500D02*
G54D45*
D03*
X1212850Y946150D02*
G54D45*
D03*
G54D46*
X1212850Y850900D02*
X1212850Y946150D01*
X1219200Y939800D02*
G54D45*
D03*
X1206500Y546100D02*
G54D53*
D03*
G54D41*
X1193800Y838200D02*
X1206500Y838200D01*
X1219200Y825500D01*
X1219200Y558800D01*
X1206500Y546100D01*
G54D46*
X825500Y98425D02*
X835025Y88900D01*
X1123950Y88900D01*
X1149350Y63500D01*
X1219200Y63500D01*
X1117600Y38100D02*
G54D50*
D03*
G54D46*
X127000Y50800D02*
X190500Y50800D01*
X196850Y57150D01*
X196850Y88900D01*
X215900Y107950D01*
G54D46*
X831850Y101600D02*
X838200Y95250D01*
X1130300Y95250D01*
X1149350Y76200D01*
X1168400Y76200D01*
X809200Y102025D02*
G54D50*
D03*
G54D59*
X1000100Y57300D02*
X1000100Y44425D01*
X987425Y31750D01*
X866775Y31750D01*
X809625Y88900D01*
X809200Y102025D01*
G54D46*
X774700Y107950D02*
X790575Y123825D01*
X790575Y152400D01*
X796925Y158750D01*
X825500Y158750D01*
X831850Y152400D01*
X831850Y101600D01*
G54D46*
X774700Y101600D02*
X777875Y101600D01*
X800100Y123825D01*
X800100Y146050D01*
X806450Y152400D01*
X819150Y152400D01*
X825500Y146050D01*
X825500Y98425D01*
X604520Y19050D02*
G54D60*
D03*
X405130Y19050D02*
G54D60*
D03*
X628650Y133350D02*
G54D60*
D03*
X431800Y133350D02*
G54D60*
D03*
X404867Y977002D02*
G54D60*
D03*
X604257Y977002D02*
G54D60*
D03*
X380737Y862702D02*
G54D60*
D03*
X577587Y862702D02*
G54D60*
D03*
X76200Y457200D02*
G54D53*
D03*
X76200Y933450D02*
G54D53*
D03*
G54D20*
X1030738Y475113D02*
X1017358Y475113D01*
X986288Y475113D01*
X965200Y454025D01*
X942975Y454025D01*
X901700Y482600D02*
G54D53*
D03*
G54D20*
X901700Y482600D02*
X939800Y482600D01*
X950412Y493212D01*
X993227Y493212D01*
G54D46*
X1009650Y511175D02*
X942975Y511175D01*
X936625Y517525D01*
X936625Y517525D02*
G54D45*
D03*
G54D46*
X222250Y101600D02*
X393700Y101600D01*
X400050Y107950D01*
X400050Y127000D01*
G54D46*
X400050Y107950D02*
X406400Y101600D01*
X593725Y101600D01*
X600075Y107950D01*
X600075Y127000D01*
G54D46*
X600075Y107950D02*
X606425Y101600D01*
X777875Y101600D01*
G54D46*
X215900Y107950D02*
X384175Y107950D01*
X390525Y114300D01*
X390525Y133350D01*
G54D46*
X390525Y133350D02*
X406400Y133350D01*
X409575Y130175D01*
X409575Y114300D01*
X415925Y107950D01*
X584200Y107950D01*
X590550Y114300D01*
X590550Y133350D01*
X603250Y133350D01*
X609600Y127000D01*
X609600Y114300D01*
X615950Y107950D01*
X774700Y107950D01*
X354330Y19050D02*
G54D60*
D03*
X391795Y88900D02*
G54D60*
D03*
G54D20*
X354330Y19050D02*
X354330Y68580D01*
X374650Y88900D01*
X391795Y88900D01*
X554355Y19050D02*
G54D60*
D03*
X591820Y88900D02*
G54D60*
D03*
G54D20*
X554355Y19050D02*
X554355Y68580D01*
X574675Y88900D01*
X591820Y88900D01*
X656398Y976611D02*
G54D60*
D03*
X618933Y906761D02*
G54D60*
D03*
G54D20*
X656398Y976611D02*
X656398Y927081D01*
X636078Y906761D01*
X618933Y906761D01*
G54D46*
X844550Y952500D02*
X784225Y892175D01*
G54D46*
X777875Y898525D02*
X635000Y898525D01*
X622300Y885825D01*
X622300Y876300D01*
G54D46*
X622300Y876300D02*
X622300Y885825D01*
X609600Y898525D01*
X434975Y898525D01*
X422275Y885825D01*
X422275Y876300D01*
G54D46*
X422275Y876300D02*
X422275Y885825D01*
X409575Y898525D01*
X231775Y898525D01*
X222250Y889000D01*
X222250Y876300D01*
G54D46*
X212725Y889000D02*
X212725Y869950D01*
G54D46*
X212725Y869950D02*
X225425Y869950D01*
X231775Y876300D01*
X231775Y885825D01*
X238125Y892175D01*
X406400Y892175D01*
X412750Y885825D01*
X412750Y869950D01*
X412900Y869800D01*
X425300Y869800D01*
X431800Y876300D01*
X431800Y885825D01*
X438150Y892175D01*
X606425Y892175D01*
X612775Y885825D01*
X612775Y869950D01*
X625475Y869950D01*
X631825Y876300D01*
X631825Y885825D01*
X638175Y892175D01*
X784225Y892175D01*
X455103Y976611D02*
G54D60*
D03*
X419543Y906761D02*
G54D60*
D03*
G54D20*
X455103Y976611D02*
X455103Y927081D01*
X434783Y906761D01*
X419543Y906761D01*
X66675Y425450D02*
G54D53*
D03*
G54D46*
X66675Y425450D02*
X66675Y47625D01*
X76200Y38100D01*
X101600Y38100D01*
G54D46*
X1219200Y939800D02*
X1219200Y854075D01*
X1238250Y835025D01*
X1238250Y254000D01*
X1225550Y241300D01*
X1225550Y69850D01*
X1219200Y63500D01*
G54D46*
X1174750Y393700D02*
X1181100Y387350D01*
X1181100Y368300D01*
X1193800Y355600D01*
G54D46*
X1231900Y279400D02*
X1231900Y257175D01*
X1219200Y244475D01*
X1219200Y95250D01*
X1212850Y88900D01*
X1181100Y88900D01*
X1168400Y76200D01*
G54D46*
X1168400Y215900D02*
X1174750Y215900D01*
X1181100Y222250D01*
X1181100Y241300D01*
X1193800Y254000D01*
G54D46*
X1149350Y241300D02*
X1149350Y298450D01*
X1155700Y304800D01*
X1168400Y304800D01*
G54D46*
X1143000Y533400D02*
X1143000Y476250D01*
X1149350Y469900D01*
X1200150Y469900D01*
X1206500Y463550D01*
X1206500Y311150D01*
X1200150Y304800D01*
X1193800Y304800D01*
G54D46*
X85725Y577850D02*
X92075Y571500D01*
X127000Y571500D01*
G54D46*
X127000Y571500D02*
X139700Y571500D01*
X158750Y590550D01*
X190500Y590550D01*
X85725Y577850D02*
G54D45*
D03*
G54D46*
X190500Y590550D02*
X768350Y590550D01*
X793243Y570472D02*
G54D45*
D03*
G54D46*
X768350Y590550D02*
X772160Y586740D01*
X772160Y582931D01*
X772160Y582931D02*
G54D45*
D03*
X1023675Y768266D02*
G54D58*
D03*
X987754Y732345D02*
G54D58*
D03*
M02*
