%FSLAX34Y34*%
%MOMM*%
%LNSOLDERMASK_TOP*%
G71*
G01*
%ADD10C,3.200*%
%ADD11R,5.580X3.500*%
%ADD12R,0.700X2.000*%
%ADD13C,0.400*%
%ADD14C,1.000*%
%ADD15C,1.900*%
%ADD16C,4.200*%
%ADD17C,2.800*%
%ADD18C,2.400*%
%ADD19C,3.400*%
%ADD20R,1.600X1.500*%
%ADD21R,1.500X1.600*%
%ADD22C,0.700*%
%ADD23C,1.400*%
%ADD24C,0.800*%
%ADD25C,1.400*%
%ADD26R,1.900X2.100*%
%ADD27R,1.900X1.700*%
%ADD28C,1.200*%
%ADD29C,1.900*%
%ADD30R,0.800X1.200*%
%ADD31R,1.500X1.100*%
%ADD32R,2.000X2.020*%
%ADD33R,10.400X10.200*%
%ADD34C,1.300*%
%ADD35R,2.000X4.400*%
%ADD36R,2.200X7.200*%
%ADD37C,2.400*%
%ADD38R,2.800X3.400*%
%ADD39C,2.400*%
%ADD40C,3.000*%
%ADD41R,2.940X1.400*%
%ADD42R,1.300X1.300*%
%ADD43R,0.650X1.750*%
%ADD44R,0.850X1.750*%
%ADD45R,8.300X3.500*%
%ADD46R,1.800X2.200*%
%ADD47R,2.300X3.100*%
%ADD48C,0.686*%
%ADD49C,0.622*%
%ADD50C,0.718*%
%ADD51C,1.800*%
%LPD*%
X579890Y49750D02*
G54D10*
D03*
X529890Y49750D02*
G54D10*
D03*
X479890Y49750D02*
G54D10*
D03*
X429890Y49750D02*
G54D10*
D03*
X379890Y49750D02*
G54D10*
D03*
X329890Y49750D02*
G54D10*
D03*
X279890Y49750D02*
G54D10*
D03*
X229890Y49750D02*
G54D10*
D03*
X779890Y49750D02*
G54D10*
D03*
X729890Y49750D02*
G54D10*
D03*
X679890Y49750D02*
G54D10*
D03*
X629890Y49750D02*
G54D10*
D03*
X301600Y222400D02*
G54D11*
D03*
X259350Y194400D02*
G54D12*
D03*
X265850Y194400D02*
G54D12*
D03*
X272350Y194400D02*
G54D12*
D03*
X278850Y194400D02*
G54D12*
D03*
X285350Y194400D02*
G54D12*
D03*
X291850Y194400D02*
G54D12*
D03*
X298350Y194400D02*
G54D12*
D03*
X304850Y194400D02*
G54D12*
D03*
X311350Y194400D02*
G54D12*
D03*
X317850Y194400D02*
G54D12*
D03*
X324350Y194400D02*
G54D12*
D03*
X330850Y194400D02*
G54D12*
D03*
X337350Y194400D02*
G54D12*
D03*
X343850Y194400D02*
G54D12*
D03*
X343850Y250400D02*
G54D12*
D03*
X337350Y250400D02*
G54D12*
D03*
X330850Y250400D02*
G54D12*
D03*
X324350Y250400D02*
G54D12*
D03*
X317850Y250400D02*
G54D12*
D03*
X311350Y250400D02*
G54D12*
D03*
X304850Y250400D02*
G54D12*
D03*
X298350Y250400D02*
G54D12*
D03*
X291850Y250400D02*
G54D12*
D03*
X285350Y250400D02*
G54D12*
D03*
X278850Y250400D02*
G54D12*
D03*
X272350Y250400D02*
G54D12*
D03*
X265850Y250400D02*
G54D12*
D03*
X259350Y250400D02*
G54D12*
D03*
G36*
X341900Y206465D02*
X341900Y238215D01*
X262525Y238215D01*
X262525Y206465D01*
X341900Y206465D01*
G37*
G54D13*
X341900Y206465D02*
X341900Y238215D01*
X262525Y238215D01*
X262525Y206465D01*
X341900Y206465D01*
X268875Y213450D02*
G54D14*
D03*
X268875Y232500D02*
G54D14*
D03*
X268875Y222975D02*
G54D14*
D03*
X278400Y213450D02*
G54D14*
D03*
X278400Y232500D02*
G54D14*
D03*
X278400Y222975D02*
G54D14*
D03*
X287925Y213450D02*
G54D14*
D03*
X287925Y232500D02*
G54D14*
D03*
X287925Y222975D02*
G54D14*
D03*
X297450Y213450D02*
G54D14*
D03*
X297450Y232500D02*
G54D14*
D03*
X297450Y222975D02*
G54D14*
D03*
X306975Y213450D02*
G54D14*
D03*
X306975Y232500D02*
G54D14*
D03*
X306975Y222975D02*
G54D14*
D03*
X316500Y213450D02*
G54D14*
D03*
X316500Y232500D02*
G54D14*
D03*
X316500Y222975D02*
G54D14*
D03*
X326025Y213450D02*
G54D14*
D03*
X326025Y232500D02*
G54D14*
D03*
X326025Y222975D02*
G54D14*
D03*
X335550Y213450D02*
G54D14*
D03*
X335550Y232500D02*
G54D14*
D03*
X335550Y222975D02*
G54D14*
D03*
G36*
X1177900Y898500D02*
X1177900Y879500D01*
X1158900Y879500D01*
X1158900Y898500D01*
X1177900Y898500D01*
G37*
X1193800Y889000D02*
G54D15*
D03*
X1168400Y863600D02*
G54D15*
D03*
X1193800Y863600D02*
G54D15*
D03*
X1168400Y838200D02*
G54D15*
D03*
X1193800Y838200D02*
G54D15*
D03*
X1168400Y812800D02*
G54D15*
D03*
X1193800Y812800D02*
G54D15*
D03*
X1168400Y787400D02*
G54D15*
D03*
X1193800Y787400D02*
G54D15*
D03*
X1168400Y762000D02*
G54D15*
D03*
X1193800Y762000D02*
G54D15*
D03*
X1168400Y736600D02*
G54D15*
D03*
X1193800Y736600D02*
G54D15*
D03*
X1168400Y711200D02*
G54D15*
D03*
X1193800Y711200D02*
G54D15*
D03*
X1168400Y685800D02*
G54D15*
D03*
X1193800Y685800D02*
G54D15*
D03*
X1168400Y660400D02*
G54D15*
D03*
X1193800Y660400D02*
G54D15*
D03*
X1168400Y635000D02*
G54D15*
D03*
X1193800Y635000D02*
G54D15*
D03*
X1168400Y609600D02*
G54D15*
D03*
X1193800Y609600D02*
G54D15*
D03*
X1168400Y584200D02*
G54D15*
D03*
X1193800Y584200D02*
G54D15*
D03*
X1193800Y558800D02*
G54D15*
D03*
X1168400Y533400D02*
G54D15*
D03*
X1193800Y533400D02*
G54D15*
D03*
X1168400Y508000D02*
G54D15*
D03*
X1193800Y508000D02*
G54D15*
D03*
X1168400Y482600D02*
G54D15*
D03*
X1193800Y482600D02*
G54D15*
D03*
X1168400Y457200D02*
G54D15*
D03*
X1193800Y457200D02*
G54D15*
D03*
X1168400Y431800D02*
G54D15*
D03*
X1193800Y431800D02*
G54D15*
D03*
X1168400Y406400D02*
G54D15*
D03*
X1193800Y406400D02*
G54D15*
D03*
X1168400Y381000D02*
G54D15*
D03*
X1193800Y381000D02*
G54D15*
D03*
X1168400Y355600D02*
G54D15*
D03*
X1193800Y355600D02*
G54D15*
D03*
X1168400Y330200D02*
G54D15*
D03*
X1193800Y330200D02*
G54D15*
D03*
X1168400Y304800D02*
G54D15*
D03*
X1193800Y304800D02*
G54D15*
D03*
X1168400Y279400D02*
G54D15*
D03*
X1193800Y279400D02*
G54D15*
D03*
X1168400Y254000D02*
G54D15*
D03*
X1193800Y254000D02*
G54D15*
D03*
X1168400Y558800D02*
G54D15*
D03*
X1168400Y228600D02*
G54D15*
D03*
X1193800Y228600D02*
G54D15*
D03*
X1168400Y203200D02*
G54D15*
D03*
X1193800Y203200D02*
G54D15*
D03*
X1168400Y177800D02*
G54D15*
D03*
X1193800Y177800D02*
G54D15*
D03*
X1168400Y152400D02*
G54D15*
D03*
X1193800Y152400D02*
G54D15*
D03*
X1193800Y127000D02*
G54D15*
D03*
X1168400Y101600D02*
G54D15*
D03*
X1193800Y101600D02*
G54D15*
D03*
X1168400Y76200D02*
G54D15*
D03*
X1193800Y76200D02*
G54D15*
D03*
X1168400Y50800D02*
G54D15*
D03*
X1193800Y50800D02*
G54D15*
D03*
X1168400Y25400D02*
G54D15*
D03*
X1193800Y25400D02*
G54D15*
D03*
X1168400Y127000D02*
G54D15*
D03*
X1245088Y920171D02*
G54D16*
D03*
X1257788Y164521D02*
G54D16*
D03*
G36*
X136500Y898500D02*
X136500Y879500D01*
X117500Y879500D01*
X117500Y898500D01*
X136500Y898500D01*
G37*
X101600Y889000D02*
G54D15*
D03*
X127000Y863600D02*
G54D15*
D03*
X101600Y863600D02*
G54D15*
D03*
X127000Y838200D02*
G54D15*
D03*
X101600Y838200D02*
G54D15*
D03*
X127000Y812800D02*
G54D15*
D03*
X101600Y812800D02*
G54D15*
D03*
X127000Y787400D02*
G54D15*
D03*
X101600Y787400D02*
G54D15*
D03*
X127000Y762000D02*
G54D15*
D03*
X101600Y762000D02*
G54D15*
D03*
X127000Y736600D02*
G54D15*
D03*
X101600Y736600D02*
G54D15*
D03*
X127000Y711200D02*
G54D15*
D03*
X101600Y711200D02*
G54D15*
D03*
X127000Y685800D02*
G54D15*
D03*
X101600Y685800D02*
G54D15*
D03*
X127000Y660400D02*
G54D15*
D03*
X101600Y660400D02*
G54D15*
D03*
X127000Y635000D02*
G54D15*
D03*
X101600Y635000D02*
G54D15*
D03*
X127000Y609600D02*
G54D15*
D03*
X101600Y609600D02*
G54D15*
D03*
X127000Y584200D02*
G54D15*
D03*
X101600Y584200D02*
G54D15*
D03*
X101600Y558800D02*
G54D15*
D03*
X127000Y533400D02*
G54D15*
D03*
X101600Y533400D02*
G54D15*
D03*
X127000Y508000D02*
G54D15*
D03*
X101600Y508000D02*
G54D15*
D03*
X127000Y482600D02*
G54D15*
D03*
X101600Y482600D02*
G54D15*
D03*
X127000Y457200D02*
G54D15*
D03*
X101600Y457200D02*
G54D15*
D03*
X127000Y431800D02*
G54D15*
D03*
X101600Y431800D02*
G54D15*
D03*
X127000Y406400D02*
G54D15*
D03*
X101600Y406400D02*
G54D15*
D03*
X127000Y381000D02*
G54D15*
D03*
X101600Y381000D02*
G54D15*
D03*
X127000Y355600D02*
G54D15*
D03*
X101600Y355600D02*
G54D15*
D03*
X127000Y330200D02*
G54D15*
D03*
X101600Y330200D02*
G54D15*
D03*
X127000Y304800D02*
G54D15*
D03*
X101600Y304800D02*
G54D15*
D03*
X127000Y279400D02*
G54D15*
D03*
X101600Y279400D02*
G54D15*
D03*
X127000Y254000D02*
G54D15*
D03*
X101600Y254000D02*
G54D15*
D03*
X127000Y558800D02*
G54D15*
D03*
X127000Y228600D02*
G54D15*
D03*
X101600Y228600D02*
G54D15*
D03*
X127000Y203200D02*
G54D15*
D03*
X101600Y203200D02*
G54D15*
D03*
X127000Y177800D02*
G54D15*
D03*
X101600Y177800D02*
G54D15*
D03*
X127000Y152400D02*
G54D15*
D03*
X101600Y152400D02*
G54D15*
D03*
X101600Y127000D02*
G54D15*
D03*
X127000Y101600D02*
G54D15*
D03*
X101600Y101600D02*
G54D15*
D03*
X127000Y76200D02*
G54D15*
D03*
X101600Y76200D02*
G54D15*
D03*
X127000Y50800D02*
G54D15*
D03*
X101600Y50800D02*
G54D15*
D03*
X127000Y25400D02*
G54D15*
D03*
X101600Y25400D02*
G54D15*
D03*
X127000Y127000D02*
G54D15*
D03*
X50312Y920171D02*
G54D16*
D03*
X37612Y164521D02*
G54D16*
D03*
X579890Y949750D02*
G54D10*
D03*
X529890Y949750D02*
G54D10*
D03*
X479890Y949750D02*
G54D10*
D03*
X429890Y949750D02*
G54D10*
D03*
X379890Y949750D02*
G54D10*
D03*
X329890Y949750D02*
G54D10*
D03*
X279890Y949750D02*
G54D10*
D03*
X229890Y949750D02*
G54D10*
D03*
X779890Y949750D02*
G54D10*
D03*
X729890Y949750D02*
G54D10*
D03*
X679890Y949750D02*
G54D10*
D03*
X629890Y949750D02*
G54D10*
D03*
X962000Y57300D02*
G54D17*
D03*
X988579Y915425D02*
G54D18*
D03*
X950479Y915425D02*
G54D18*
D03*
X988579Y915425D02*
G54D18*
D03*
X950479Y915425D02*
G54D18*
D03*
X1026679Y915425D02*
G54D18*
D03*
X912379Y915425D02*
G54D18*
D03*
X1071652Y915424D02*
G54D19*
D03*
X867420Y915423D02*
G54D19*
D03*
X1026679Y915425D02*
G54D17*
D03*
X988579Y915425D02*
G54D17*
D03*
X950479Y915425D02*
G54D17*
D03*
X912379Y915425D02*
G54D17*
D03*
X962000Y57300D02*
G54D18*
D03*
X1000100Y57300D02*
G54D18*
D03*
X962000Y57300D02*
G54D18*
D03*
X1000100Y57300D02*
G54D18*
D03*
X923900Y57300D02*
G54D18*
D03*
X232210Y184147D02*
G54D20*
D03*
X232210Y167147D02*
G54D20*
D03*
X274364Y156597D02*
G54D21*
D03*
X257364Y156597D02*
G54D21*
D03*
X368100Y260347D02*
G54D20*
D03*
X368100Y243347D02*
G54D20*
D03*
X262525Y118200D02*
G54D14*
D03*
X262525Y137250D02*
G54D14*
D03*
X262525Y127725D02*
G54D14*
D03*
X272050Y118200D02*
G54D14*
D03*
X272050Y137250D02*
G54D14*
D03*
X272050Y127725D02*
G54D14*
D03*
G36*
X278400Y111215D02*
X278400Y142965D01*
X256175Y142965D01*
X256175Y111215D01*
X278400Y111215D01*
G37*
G54D13*
X278400Y111215D02*
X278400Y142965D01*
X256175Y142965D01*
X256175Y111215D01*
X278400Y111215D01*
X341900Y118200D02*
G54D14*
D03*
X341900Y137250D02*
G54D14*
D03*
X341900Y127725D02*
G54D14*
D03*
X351425Y118200D02*
G54D14*
D03*
X351425Y137250D02*
G54D14*
D03*
X351425Y127725D02*
G54D14*
D03*
G36*
X357775Y111215D02*
X357775Y142965D01*
X335550Y142965D01*
X335550Y111215D01*
X357775Y111215D01*
G37*
G54D13*
X357775Y111215D02*
X357775Y142965D01*
X335550Y142965D01*
X335550Y111215D01*
X357775Y111215D01*
G54D22*
X285306Y187793D02*
X285306Y151843D01*
G54D22*
X298382Y188370D02*
X298382Y151720D01*
G54D22*
X304921Y187793D02*
X304921Y164160D01*
G54D22*
X317998Y187985D02*
X317998Y170133D01*
G54D23*
X287234Y140572D02*
X287234Y102472D01*
G54D23*
X299934Y140572D02*
X299934Y102472D01*
G54D23*
X312634Y140572D02*
X312634Y102472D01*
G54D23*
X325334Y140572D02*
X325334Y102472D01*
G54D24*
X304921Y164160D02*
X304921Y160985D01*
X309460Y156447D01*
X309460Y137397D01*
G54D24*
X317998Y170133D02*
X317998Y160608D01*
X322160Y156447D01*
X322160Y137397D01*
G36*
X284060Y162797D02*
X287234Y162797D01*
X291997Y158034D01*
X291997Y137397D01*
X284060Y137397D01*
X284060Y162797D01*
G37*
G54D13*
X284060Y162797D02*
X287234Y162797D01*
X291997Y158034D01*
X291997Y137397D01*
X284060Y137397D01*
X284060Y162797D01*
G36*
X296760Y156447D02*
X299934Y156447D01*
X304697Y151684D01*
X304697Y131047D01*
X296760Y131047D01*
X296760Y156447D01*
G37*
G54D13*
X296760Y156447D02*
X299934Y156447D01*
X304697Y151684D01*
X304697Y131047D01*
X296760Y131047D01*
X296760Y156447D01*
G36*
X309460Y159304D02*
X317397Y151367D01*
X317397Y130729D01*
X309460Y130729D01*
X309460Y159304D01*
G37*
G54D13*
X309460Y159304D02*
X317397Y151367D01*
X317397Y130729D01*
X309460Y130729D01*
X309460Y159304D01*
G36*
X322160Y159304D02*
X330097Y151367D01*
X330097Y130729D01*
X322160Y130729D01*
X322160Y159304D01*
G37*
G54D13*
X322160Y159304D02*
X330097Y151367D01*
X330097Y130729D01*
X322160Y130729D01*
X322160Y159304D01*
X291710Y178022D02*
G54D14*
D03*
X311460Y178022D02*
G54D14*
D03*
G54D23*
X287234Y102472D02*
X277710Y92947D01*
X245960Y92947D01*
X232010Y78997D01*
X232010Y47447D01*
G54D23*
X299934Y102472D02*
X299934Y96122D01*
X284060Y80247D01*
X284060Y49497D01*
X282010Y47447D01*
G54D23*
X312634Y108822D02*
X312634Y96122D01*
X328510Y80247D01*
X328510Y50947D01*
X332010Y47447D01*
G54D23*
X325334Y102472D02*
X334860Y92947D01*
X366610Y92947D01*
X379310Y80247D01*
X379310Y50147D01*
X382010Y47447D01*
G36*
X821055Y501650D02*
X811530Y495300D01*
X811530Y508000D01*
X821055Y501650D01*
G37*
G54D22*
X821055Y501650D02*
X811530Y495300D01*
X811530Y508000D01*
X821055Y501650D01*
X781050Y501650D02*
G54D25*
D03*
X993227Y474163D02*
G54D26*
D03*
X1017358Y475113D02*
G54D27*
D03*
X993994Y454372D02*
G54D27*
D03*
X1017758Y454113D02*
G54D27*
D03*
X819150Y438150D02*
G54D21*
D03*
X836150Y438150D02*
G54D21*
D03*
G36*
X811650Y414400D02*
X826650Y414400D01*
X826650Y398400D01*
X811650Y398400D01*
X811650Y414400D01*
G37*
X836150Y406400D02*
G54D21*
D03*
X993227Y493212D02*
G54D25*
D03*
X869950Y406400D02*
G54D28*
D03*
X933450Y438150D02*
G54D28*
D03*
X127000Y228600D02*
G54D29*
D03*
X101600Y101600D02*
G54D29*
D03*
X101600Y406400D02*
G54D29*
D03*
X1168400Y660400D02*
G54D29*
D03*
X1193800Y660400D02*
G54D29*
D03*
X1193800Y635000D02*
G54D29*
D03*
X1193800Y152400D02*
G54D29*
D03*
X1168400Y279400D02*
G54D29*
D03*
X1193800Y812800D02*
G54D29*
D03*
X127000Y660400D02*
G54D29*
D03*
G36*
X795620Y501698D02*
X805145Y508048D01*
X805145Y495347D01*
X795620Y501698D01*
G37*
G54D22*
X795620Y501698D02*
X805145Y508048D01*
X805145Y495347D01*
X795620Y501698D01*
G36*
X821055Y482600D02*
X811530Y476250D01*
X811530Y488950D01*
X821055Y482600D01*
G37*
G54D22*
X821055Y482600D02*
X811530Y476250D01*
X811530Y488950D01*
X821055Y482600D01*
G36*
X795620Y482648D02*
X805145Y488998D01*
X805145Y476297D01*
X795620Y482648D01*
G37*
G54D22*
X795620Y482648D02*
X805145Y488998D01*
X805145Y476297D01*
X795620Y482648D01*
G36*
X821055Y463550D02*
X811530Y457200D01*
X811530Y469900D01*
X821055Y463550D01*
G37*
G54D22*
X821055Y463550D02*
X811530Y457200D01*
X811530Y469900D01*
X821055Y463550D01*
G36*
X795620Y463598D02*
X805145Y469948D01*
X805145Y457247D01*
X795620Y463598D01*
G37*
G54D22*
X795620Y463598D02*
X805145Y469948D01*
X805145Y457247D01*
X795620Y463598D01*
G36*
X868680Y501650D02*
X859155Y495300D01*
X859155Y508000D01*
X868680Y501650D01*
G37*
G54D22*
X868680Y501650D02*
X859155Y495300D01*
X859155Y508000D01*
X868680Y501650D01*
G36*
X843245Y501698D02*
X852770Y508048D01*
X852770Y495347D01*
X843245Y501698D01*
G37*
G54D22*
X843245Y501698D02*
X852770Y508048D01*
X852770Y495347D01*
X843245Y501698D01*
G36*
X868680Y482600D02*
X859155Y476250D01*
X859155Y488950D01*
X868680Y482600D01*
G37*
G54D22*
X868680Y482600D02*
X859155Y476250D01*
X859155Y488950D01*
X868680Y482600D01*
G36*
X843245Y482648D02*
X852770Y488998D01*
X852770Y476297D01*
X843245Y482648D01*
G37*
G54D22*
X843245Y482648D02*
X852770Y488998D01*
X852770Y476297D01*
X843245Y482648D01*
G36*
X868680Y463550D02*
X859155Y457200D01*
X859155Y469900D01*
X868680Y463550D01*
G37*
G54D22*
X868680Y463550D02*
X859155Y457200D01*
X859155Y469900D01*
X868680Y463550D01*
G36*
X843245Y463598D02*
X852770Y469948D01*
X852770Y457247D01*
X843245Y463598D01*
G37*
G54D22*
X843245Y463598D02*
X852770Y469948D01*
X852770Y457247D01*
X843245Y463598D01*
X1281112Y973773D02*
G54D30*
D03*
X1268095Y973773D02*
G54D30*
D03*
X1255078Y973773D02*
G54D30*
D03*
X1242378Y973773D02*
G54D30*
D03*
X1281112Y14923D02*
G54D30*
D03*
X1268095Y14923D02*
G54D30*
D03*
X1255078Y14923D02*
G54D30*
D03*
X1242378Y14923D02*
G54D30*
D03*
X55562Y14923D02*
G54D30*
D03*
X42545Y14923D02*
G54D30*
D03*
X29528Y14923D02*
G54D30*
D03*
X16828Y14923D02*
G54D30*
D03*
X55562Y973773D02*
G54D30*
D03*
X42545Y973773D02*
G54D30*
D03*
X29528Y973773D02*
G54D30*
D03*
X16828Y973773D02*
G54D30*
D03*
X678050Y501998D02*
G54D14*
D03*
X678050Y482948D02*
G54D14*
D03*
X678050Y492473D02*
G54D14*
D03*
X668525Y501998D02*
G54D14*
D03*
X668525Y482948D02*
G54D14*
D03*
X668525Y492473D02*
G54D14*
D03*
X659000Y501998D02*
G54D14*
D03*
X659000Y482948D02*
G54D14*
D03*
X659000Y492473D02*
G54D14*
D03*
X649475Y501998D02*
G54D14*
D03*
X649475Y482948D02*
G54D14*
D03*
X649475Y492473D02*
G54D14*
D03*
X639950Y501998D02*
G54D14*
D03*
X639950Y482948D02*
G54D14*
D03*
X639950Y492473D02*
G54D14*
D03*
X630425Y501998D02*
G54D14*
D03*
X630425Y482948D02*
G54D14*
D03*
X630425Y492473D02*
G54D14*
D03*
X620900Y501998D02*
G54D14*
D03*
X620900Y482948D02*
G54D14*
D03*
X620900Y492473D02*
G54D14*
D03*
X611375Y501998D02*
G54D14*
D03*
X611375Y482948D02*
G54D14*
D03*
X611375Y492473D02*
G54D14*
D03*
X358820Y270897D02*
G54D14*
D03*
X368344Y274072D02*
G54D14*
D03*
X259350Y235675D02*
G54D14*
D03*
X259350Y226150D02*
G54D14*
D03*
X344440Y216308D02*
G54D14*
D03*
X344440Y206782D02*
G54D14*
D03*
X501625Y222400D02*
G54D11*
D03*
X459375Y194400D02*
G54D12*
D03*
X465875Y194400D02*
G54D12*
D03*
X472375Y194400D02*
G54D12*
D03*
X478875Y194400D02*
G54D12*
D03*
X485375Y194400D02*
G54D12*
D03*
X491875Y194400D02*
G54D12*
D03*
X498375Y194400D02*
G54D12*
D03*
X504875Y194400D02*
G54D12*
D03*
X511375Y194400D02*
G54D12*
D03*
X517875Y194400D02*
G54D12*
D03*
X524375Y194400D02*
G54D12*
D03*
X530875Y194400D02*
G54D12*
D03*
X537375Y194400D02*
G54D12*
D03*
X543875Y194400D02*
G54D12*
D03*
X543875Y250400D02*
G54D12*
D03*
X537375Y250400D02*
G54D12*
D03*
X530875Y250400D02*
G54D12*
D03*
X524375Y250400D02*
G54D12*
D03*
X517875Y250400D02*
G54D12*
D03*
X511375Y250400D02*
G54D12*
D03*
X504875Y250400D02*
G54D12*
D03*
X498375Y250400D02*
G54D12*
D03*
X491875Y250400D02*
G54D12*
D03*
X485375Y250400D02*
G54D12*
D03*
X478875Y250400D02*
G54D12*
D03*
X472375Y250400D02*
G54D12*
D03*
X465875Y250400D02*
G54D12*
D03*
X459375Y250400D02*
G54D12*
D03*
G36*
X541925Y206465D02*
X541925Y238215D01*
X462550Y238215D01*
X462550Y206465D01*
X541925Y206465D01*
G37*
G54D13*
X541925Y206465D02*
X541925Y238215D01*
X462550Y238215D01*
X462550Y206465D01*
X541925Y206465D01*
X468900Y213450D02*
G54D14*
D03*
X468900Y232500D02*
G54D14*
D03*
X468900Y222975D02*
G54D14*
D03*
X478425Y213450D02*
G54D14*
D03*
X478425Y232500D02*
G54D14*
D03*
X478425Y222975D02*
G54D14*
D03*
X487950Y213450D02*
G54D14*
D03*
X487950Y232500D02*
G54D14*
D03*
X487950Y222975D02*
G54D14*
D03*
X497475Y213450D02*
G54D14*
D03*
X497475Y232500D02*
G54D14*
D03*
X497475Y222975D02*
G54D14*
D03*
X507000Y213450D02*
G54D14*
D03*
X507000Y232500D02*
G54D14*
D03*
X507000Y222975D02*
G54D14*
D03*
X516525Y213450D02*
G54D14*
D03*
X516525Y232500D02*
G54D14*
D03*
X516525Y222975D02*
G54D14*
D03*
X526050Y213450D02*
G54D14*
D03*
X526050Y232500D02*
G54D14*
D03*
X526050Y222975D02*
G54D14*
D03*
X535575Y213450D02*
G54D14*
D03*
X535575Y232500D02*
G54D14*
D03*
X535575Y222975D02*
G54D14*
D03*
X432234Y184147D02*
G54D20*
D03*
X432235Y167147D02*
G54D20*
D03*
X474390Y156597D02*
G54D21*
D03*
X457390Y156597D02*
G54D21*
D03*
X568124Y260347D02*
G54D20*
D03*
X568124Y243347D02*
G54D20*
D03*
X462550Y118200D02*
G54D14*
D03*
X462550Y137250D02*
G54D14*
D03*
X462550Y127725D02*
G54D14*
D03*
X472075Y118200D02*
G54D14*
D03*
X472075Y137250D02*
G54D14*
D03*
X472075Y127725D02*
G54D14*
D03*
G36*
X478425Y111215D02*
X478425Y142965D01*
X456200Y142965D01*
X456200Y111215D01*
X478425Y111215D01*
G37*
G54D13*
X478425Y111215D02*
X478425Y142965D01*
X456200Y142965D01*
X456200Y111215D01*
X478425Y111215D01*
X541925Y118200D02*
G54D14*
D03*
X541925Y137250D02*
G54D14*
D03*
X541925Y127725D02*
G54D14*
D03*
X551450Y118200D02*
G54D14*
D03*
X551450Y137250D02*
G54D14*
D03*
X551450Y127725D02*
G54D14*
D03*
G36*
X557800Y111215D02*
X557800Y142965D01*
X535575Y142965D01*
X535575Y111215D01*
X557800Y111215D01*
G37*
G54D13*
X557800Y111215D02*
X557800Y142965D01*
X535575Y142965D01*
X535575Y111215D01*
X557800Y111215D01*
G54D22*
X485331Y187793D02*
X485331Y151843D01*
G54D22*
X498408Y188370D02*
X498408Y151720D01*
G54D22*
X504946Y187793D02*
X504946Y164160D01*
G54D22*
X518023Y187985D02*
X518023Y170133D01*
G54D23*
X487260Y140572D02*
X487260Y102472D01*
G54D23*
X499960Y140572D02*
X499960Y102472D01*
G54D23*
X512660Y140572D02*
X512660Y102472D01*
G54D23*
X525360Y140572D02*
X525360Y102472D01*
G54D24*
X504946Y164160D02*
X504946Y160985D01*
X509484Y156447D01*
X509484Y137397D01*
G54D24*
X518023Y170133D02*
X518023Y160608D01*
X522184Y156447D01*
X522184Y137397D01*
G36*
X484084Y162797D02*
X487260Y162797D01*
X492022Y158034D01*
X492022Y137397D01*
X484084Y137397D01*
X484084Y162797D01*
G37*
G54D13*
X484084Y162797D02*
X487260Y162797D01*
X492022Y158034D01*
X492022Y137397D01*
X484084Y137397D01*
X484084Y162797D01*
G36*
X496784Y156447D02*
X499960Y156447D01*
X504722Y151684D01*
X504722Y131047D01*
X496784Y131047D01*
X496784Y156447D01*
G37*
G54D13*
X496784Y156447D02*
X499960Y156447D01*
X504722Y151684D01*
X504722Y131047D01*
X496784Y131047D01*
X496784Y156447D01*
G36*
X509484Y159304D02*
X517422Y151367D01*
X517422Y130729D01*
X509484Y130729D01*
X509484Y159304D01*
G37*
G54D13*
X509484Y159304D02*
X517422Y151367D01*
X517422Y130729D01*
X509484Y130729D01*
X509484Y159304D01*
G36*
X522184Y159304D02*
X530122Y151367D01*
X530122Y130729D01*
X522184Y130729D01*
X522184Y159304D01*
G37*
G54D13*
X522184Y159304D02*
X530122Y151367D01*
X530122Y130729D01*
X522184Y130729D01*
X522184Y159304D01*
X491734Y178022D02*
G54D14*
D03*
X511484Y178022D02*
G54D14*
D03*
G54D23*
X487260Y102472D02*
X477734Y92947D01*
X445984Y92947D01*
X432034Y78997D01*
X432034Y47447D01*
G54D23*
X499960Y102472D02*
X499960Y96122D01*
X484084Y80247D01*
X484084Y49497D01*
X482034Y47447D01*
G54D23*
X512660Y108822D02*
X512660Y96122D01*
X528534Y80247D01*
X528534Y50947D01*
X532034Y47447D01*
G54D23*
X525360Y102472D02*
X534884Y92947D01*
X566634Y92947D01*
X579334Y80247D01*
X579334Y50147D01*
X582034Y47447D01*
X558844Y270897D02*
G54D14*
D03*
X568370Y274072D02*
G54D14*
D03*
X459375Y235675D02*
G54D14*
D03*
X459375Y226150D02*
G54D14*
D03*
X544465Y216308D02*
G54D14*
D03*
X544465Y206782D02*
G54D14*
D03*
X701650Y222400D02*
G54D11*
D03*
X659400Y194400D02*
G54D12*
D03*
X665900Y194400D02*
G54D12*
D03*
X672400Y194400D02*
G54D12*
D03*
X678900Y194400D02*
G54D12*
D03*
X685400Y194400D02*
G54D12*
D03*
X691900Y194400D02*
G54D12*
D03*
X698400Y194400D02*
G54D12*
D03*
X704900Y194400D02*
G54D12*
D03*
X711400Y194400D02*
G54D12*
D03*
X717900Y194400D02*
G54D12*
D03*
X724400Y194400D02*
G54D12*
D03*
X730900Y194400D02*
G54D12*
D03*
X737400Y194400D02*
G54D12*
D03*
X743900Y194400D02*
G54D12*
D03*
X743900Y250400D02*
G54D12*
D03*
X737400Y250400D02*
G54D12*
D03*
X730900Y250400D02*
G54D12*
D03*
X724400Y250400D02*
G54D12*
D03*
X717900Y250400D02*
G54D12*
D03*
X711400Y250400D02*
G54D12*
D03*
X704900Y250400D02*
G54D12*
D03*
X698400Y250400D02*
G54D12*
D03*
X691900Y250400D02*
G54D12*
D03*
X685400Y250400D02*
G54D12*
D03*
X678900Y250400D02*
G54D12*
D03*
X672400Y250400D02*
G54D12*
D03*
X665900Y250400D02*
G54D12*
D03*
X659400Y250400D02*
G54D12*
D03*
G36*
X741950Y206465D02*
X741950Y238215D01*
X662575Y238215D01*
X662575Y206465D01*
X741950Y206465D01*
G37*
G54D13*
X741950Y206465D02*
X741950Y238215D01*
X662575Y238215D01*
X662575Y206465D01*
X741950Y206465D01*
X668925Y213450D02*
G54D14*
D03*
X668925Y232500D02*
G54D14*
D03*
X668925Y222975D02*
G54D14*
D03*
X678450Y213450D02*
G54D14*
D03*
X678450Y232500D02*
G54D14*
D03*
X678450Y222975D02*
G54D14*
D03*
X687975Y213450D02*
G54D14*
D03*
X687975Y232500D02*
G54D14*
D03*
X687975Y222975D02*
G54D14*
D03*
X697500Y213450D02*
G54D14*
D03*
X697500Y232500D02*
G54D14*
D03*
X697500Y222975D02*
G54D14*
D03*
X707025Y213450D02*
G54D14*
D03*
X707025Y232500D02*
G54D14*
D03*
X707025Y222975D02*
G54D14*
D03*
X716550Y213450D02*
G54D14*
D03*
X716550Y232500D02*
G54D14*
D03*
X716550Y222975D02*
G54D14*
D03*
X726075Y213450D02*
G54D14*
D03*
X726075Y232500D02*
G54D14*
D03*
X726075Y222975D02*
G54D14*
D03*
X735600Y213450D02*
G54D14*
D03*
X735600Y232500D02*
G54D14*
D03*
X735600Y222975D02*
G54D14*
D03*
X632260Y184147D02*
G54D20*
D03*
X632260Y167147D02*
G54D20*
D03*
X674414Y156597D02*
G54D21*
D03*
X657414Y156597D02*
G54D21*
D03*
X768150Y260347D02*
G54D20*
D03*
X768150Y243347D02*
G54D20*
D03*
X662575Y118200D02*
G54D14*
D03*
X662575Y137250D02*
G54D14*
D03*
X662575Y127725D02*
G54D14*
D03*
X672100Y118200D02*
G54D14*
D03*
X672100Y137250D02*
G54D14*
D03*
X672100Y127725D02*
G54D14*
D03*
G36*
X678450Y111215D02*
X678450Y142965D01*
X656225Y142965D01*
X656225Y111215D01*
X678450Y111215D01*
G37*
G54D13*
X678450Y111215D02*
X678450Y142965D01*
X656225Y142965D01*
X656225Y111215D01*
X678450Y111215D01*
X741950Y118200D02*
G54D14*
D03*
X741950Y137250D02*
G54D14*
D03*
X741950Y127725D02*
G54D14*
D03*
X751475Y118200D02*
G54D14*
D03*
X751475Y137250D02*
G54D14*
D03*
X751475Y127725D02*
G54D14*
D03*
G36*
X757825Y111215D02*
X757825Y142965D01*
X735600Y142965D01*
X735600Y111215D01*
X757825Y111215D01*
G37*
G54D13*
X757825Y111215D02*
X757825Y142965D01*
X735600Y142965D01*
X735600Y111215D01*
X757825Y111215D01*
G54D22*
X685356Y187793D02*
X685356Y151843D01*
G54D22*
X698432Y188370D02*
X698432Y151720D01*
G54D22*
X704971Y187793D02*
X704971Y164160D01*
G54D22*
X718048Y187985D02*
X718048Y170133D01*
G54D23*
X687284Y140572D02*
X687284Y102472D01*
G54D23*
X699984Y140572D02*
X699984Y102472D01*
G54D23*
X712684Y140572D02*
X712684Y102472D01*
G54D23*
X725384Y140572D02*
X725384Y102472D01*
G54D24*
X704971Y164160D02*
X704971Y160985D01*
X709510Y156447D01*
X709510Y137397D01*
G54D24*
X718048Y170133D02*
X718048Y160608D01*
X722210Y156447D01*
X722210Y137397D01*
G36*
X684110Y162797D02*
X687284Y162797D01*
X692047Y158034D01*
X692047Y137397D01*
X684110Y137397D01*
X684110Y162797D01*
G37*
G54D13*
X684110Y162797D02*
X687284Y162797D01*
X692047Y158034D01*
X692047Y137397D01*
X684110Y137397D01*
X684110Y162797D01*
G36*
X696810Y156447D02*
X699984Y156447D01*
X704747Y151684D01*
X704747Y131047D01*
X696810Y131047D01*
X696810Y156447D01*
G37*
G54D13*
X696810Y156447D02*
X699984Y156447D01*
X704747Y151684D01*
X704747Y131047D01*
X696810Y131047D01*
X696810Y156447D01*
G36*
X709510Y159304D02*
X717447Y151367D01*
X717447Y130729D01*
X709510Y130729D01*
X709510Y159304D01*
G37*
G54D13*
X709510Y159304D02*
X717447Y151367D01*
X717447Y130729D01*
X709510Y130729D01*
X709510Y159304D01*
G36*
X722210Y159304D02*
X730147Y151367D01*
X730147Y130729D01*
X722210Y130729D01*
X722210Y159304D01*
G37*
G54D13*
X722210Y159304D02*
X730147Y151367D01*
X730147Y130729D01*
X722210Y130729D01*
X722210Y159304D01*
X691760Y178022D02*
G54D14*
D03*
X711510Y178022D02*
G54D14*
D03*
G54D23*
X687284Y102472D02*
X677760Y92947D01*
X646010Y92947D01*
X632060Y78997D01*
X632060Y47447D01*
G54D23*
X699984Y102472D02*
X699984Y96122D01*
X684110Y80247D01*
X684110Y49497D01*
X682060Y47447D01*
G54D23*
X712684Y108822D02*
X712684Y96122D01*
X728560Y80247D01*
X728560Y50947D01*
X732060Y47447D01*
G54D23*
X725384Y102472D02*
X734910Y92947D01*
X766660Y92947D01*
X779360Y80247D01*
X779360Y50147D01*
X782060Y47447D01*
X758870Y270897D02*
G54D14*
D03*
X768394Y274072D02*
G54D14*
D03*
X659400Y235675D02*
G54D14*
D03*
X659400Y226150D02*
G54D14*
D03*
X744490Y216308D02*
G54D14*
D03*
X744490Y206782D02*
G54D14*
D03*
X936600Y197000D02*
G54D31*
D03*
X936600Y178000D02*
G54D31*
D03*
X909600Y197000D02*
G54D31*
D03*
X909600Y178000D02*
G54D31*
D03*
X909600Y187500D02*
G54D31*
D03*
X936600Y187500D02*
G54D31*
D03*
X1025520Y120751D02*
G54D32*
D03*
X974720Y120751D02*
G54D32*
D03*
G36*
X888499Y130900D02*
X908499Y130900D01*
X908500Y110700D01*
X888500Y110700D01*
X888499Y130900D01*
G37*
X949300Y120800D02*
G54D32*
D03*
X987400Y298600D02*
G54D33*
D03*
X949300Y336700D02*
G54D34*
D03*
X962000Y336700D02*
G54D34*
D03*
X974700Y336700D02*
G54D34*
D03*
X987400Y336700D02*
G54D34*
D03*
X949300Y324000D02*
G54D34*
D03*
X962000Y324000D02*
G54D34*
D03*
X974700Y324000D02*
G54D34*
D03*
X987400Y324000D02*
G54D34*
D03*
X949300Y311300D02*
G54D34*
D03*
X962000Y311300D02*
G54D34*
D03*
X974700Y311300D02*
G54D34*
D03*
X987400Y311300D02*
G54D34*
D03*
X949300Y298600D02*
G54D34*
D03*
X962000Y298600D02*
G54D34*
D03*
X974700Y298600D02*
G54D34*
D03*
X987400Y298600D02*
G54D34*
D03*
X949300Y285900D02*
G54D34*
D03*
X962000Y285900D02*
G54D34*
D03*
X974700Y285900D02*
G54D34*
D03*
X987400Y285900D02*
G54D34*
D03*
X949300Y273200D02*
G54D34*
D03*
X949300Y260500D02*
G54D34*
D03*
X962000Y273200D02*
G54D34*
D03*
X962000Y260500D02*
G54D34*
D03*
X974700Y273200D02*
G54D34*
D03*
X974700Y260500D02*
G54D34*
D03*
X987400Y273200D02*
G54D34*
D03*
X987400Y260500D02*
G54D34*
D03*
X1000100Y336700D02*
G54D34*
D03*
X1000100Y324000D02*
G54D34*
D03*
X1000100Y311300D02*
G54D34*
D03*
X1000100Y298600D02*
G54D34*
D03*
X1000100Y285900D02*
G54D34*
D03*
X1000100Y273200D02*
G54D34*
D03*
X1000100Y260500D02*
G54D34*
D03*
X1012800Y336700D02*
G54D34*
D03*
X1012800Y324000D02*
G54D34*
D03*
X1012800Y311300D02*
G54D34*
D03*
X1012800Y298600D02*
G54D34*
D03*
X1012800Y285900D02*
G54D34*
D03*
X1012800Y273200D02*
G54D34*
D03*
X1012800Y260500D02*
G54D34*
D03*
X1025500Y336700D02*
G54D34*
D03*
X1025500Y324000D02*
G54D34*
D03*
X1025500Y311300D02*
G54D34*
D03*
X1025500Y298600D02*
G54D34*
D03*
X1025500Y285900D02*
G54D34*
D03*
X1025500Y273200D02*
G54D34*
D03*
X1025500Y260500D02*
G54D34*
D03*
X1012800Y213510D02*
G54D35*
D03*
X962000Y213510D02*
G54D35*
D03*
X815550Y168700D02*
G54D36*
D03*
X860850Y168700D02*
G54D36*
D03*
X993994Y454372D02*
G54D14*
D03*
X1041400Y558800D02*
G54D18*
D03*
X1041400Y533400D02*
G54D18*
D03*
X1041400Y508000D02*
G54D18*
D03*
X1041400Y533400D02*
G54D18*
D03*
X1041400Y558800D02*
G54D37*
D03*
G36*
X1130300Y546100D02*
X1120775Y539750D01*
X1120775Y552450D01*
X1130300Y546100D01*
G37*
G54D22*
X1130300Y546100D02*
X1120775Y539750D01*
X1120775Y552450D01*
X1130300Y546100D01*
G36*
X1104865Y546148D02*
X1114390Y552497D01*
X1114390Y539797D01*
X1104865Y546148D01*
G37*
G54D22*
X1104865Y546148D02*
X1114390Y552497D01*
X1114390Y539797D01*
X1104865Y546148D01*
X1017758Y454113D02*
G54D14*
D03*
X898500Y308760D02*
G54D37*
D03*
X898500Y308760D02*
G54D38*
D03*
X898500Y265760D02*
G54D38*
D03*
G54D39*
X1000100Y57300D02*
X1025520Y82720D01*
X1025520Y120751D01*
X1025520Y200790D01*
X1019150Y207160D01*
X896675Y828591D02*
G54D40*
D03*
G54D39*
X923900Y57300D02*
X898500Y82700D01*
X898500Y120800D01*
G54D39*
X898500Y82700D02*
X860850Y120350D01*
G54D39*
X819150Y254000D02*
X819150Y285750D01*
X965200Y431800D01*
X965200Y676450D01*
X1008119Y719419D01*
G54D39*
X793750Y742950D02*
X898525Y742950D01*
X965200Y676450D01*
X710350Y774797D02*
G54D11*
D03*
X752600Y802797D02*
G54D12*
D03*
X746100Y802797D02*
G54D12*
D03*
X739600Y802797D02*
G54D12*
D03*
X733100Y802797D02*
G54D12*
D03*
X726600Y802797D02*
G54D12*
D03*
X720099Y802797D02*
G54D12*
D03*
X713600Y802797D02*
G54D12*
D03*
X707100Y802797D02*
G54D12*
D03*
X700600Y802797D02*
G54D12*
D03*
X694100Y802797D02*
G54D12*
D03*
X687600Y802797D02*
G54D12*
D03*
X681100Y802797D02*
G54D12*
D03*
X674600Y802797D02*
G54D12*
D03*
X668100Y802797D02*
G54D12*
D03*
X668100Y746797D02*
G54D12*
D03*
X674600Y746797D02*
G54D12*
D03*
X681100Y746797D02*
G54D12*
D03*
X687600Y746797D02*
G54D12*
D03*
X694100Y746797D02*
G54D12*
D03*
X700600Y746797D02*
G54D12*
D03*
X707100Y746797D02*
G54D12*
D03*
X713600Y746797D02*
G54D12*
D03*
X720100Y746797D02*
G54D12*
D03*
X726600Y746797D02*
G54D12*
D03*
X733100Y746797D02*
G54D12*
D03*
X739600Y746797D02*
G54D12*
D03*
X746100Y746797D02*
G54D12*
D03*
X752600Y746797D02*
G54D12*
D03*
G36*
X670050Y790732D02*
X670050Y758982D01*
X749424Y758982D01*
X749425Y790732D01*
X670050Y790732D01*
G37*
G54D13*
X670050Y790732D02*
X670050Y758982D01*
X749424Y758982D01*
X749425Y790732D01*
X670050Y790732D01*
X743074Y783747D02*
G54D14*
D03*
X743074Y764697D02*
G54D14*
D03*
X743074Y774222D02*
G54D14*
D03*
X733550Y783747D02*
G54D14*
D03*
X733550Y764697D02*
G54D14*
D03*
X733550Y774222D02*
G54D14*
D03*
X724024Y783747D02*
G54D14*
D03*
X724024Y764697D02*
G54D14*
D03*
X724024Y774222D02*
G54D14*
D03*
X714500Y783747D02*
G54D14*
D03*
X714500Y764697D02*
G54D14*
D03*
X714500Y774222D02*
G54D14*
D03*
X704974Y783747D02*
G54D14*
D03*
X704975Y764697D02*
G54D14*
D03*
X704974Y774222D02*
G54D14*
D03*
X695450Y783747D02*
G54D14*
D03*
X695450Y764697D02*
G54D14*
D03*
X695450Y774222D02*
G54D14*
D03*
X685924Y783747D02*
G54D14*
D03*
X685925Y764697D02*
G54D14*
D03*
X685925Y774222D02*
G54D14*
D03*
X676400Y783747D02*
G54D14*
D03*
X676400Y764697D02*
G54D14*
D03*
X676400Y774222D02*
G54D14*
D03*
X779740Y813050D02*
G54D20*
D03*
X779740Y830050D02*
G54D20*
D03*
X737585Y840600D02*
G54D21*
D03*
G36*
X747085Y848600D02*
X762085Y848600D01*
X762085Y832600D01*
X747085Y832600D01*
X747085Y848600D01*
G37*
X643850Y736850D02*
G54D20*
D03*
X643850Y753850D02*
G54D20*
D03*
X749424Y878997D02*
G54D14*
D03*
X749425Y859947D02*
G54D14*
D03*
X749424Y869472D02*
G54D14*
D03*
X739900Y878997D02*
G54D14*
D03*
X739900Y859947D02*
G54D14*
D03*
X739900Y869472D02*
G54D14*
D03*
G36*
X733550Y885982D02*
X733550Y854232D01*
X755774Y854232D01*
X755774Y885982D01*
X733550Y885982D01*
G37*
G54D13*
X733550Y885982D02*
X733550Y854232D01*
X755774Y854232D01*
X755774Y885982D01*
X733550Y885982D01*
X670050Y878997D02*
G54D14*
D03*
X670050Y859947D02*
G54D14*
D03*
X670050Y869472D02*
G54D14*
D03*
X660524Y878997D02*
G54D14*
D03*
X660524Y859947D02*
G54D14*
D03*
X660524Y869472D02*
G54D14*
D03*
G36*
X654175Y885982D02*
X654174Y854232D01*
X676400Y854232D01*
X676400Y885982D01*
X654175Y885982D01*
G37*
G54D13*
X654175Y885982D02*
X654174Y854232D01*
X676400Y854232D01*
X676400Y885982D01*
X654175Y885982D01*
G54D22*
X726644Y809404D02*
X726644Y845354D01*
G54D22*
X713567Y808827D02*
X713567Y845477D01*
G54D22*
X707028Y809404D02*
X707028Y833036D01*
G54D22*
X693952Y809212D02*
X693952Y827064D01*
G54D23*
X724715Y856625D02*
X724715Y894725D01*
G54D23*
X712015Y856625D02*
X712015Y894725D01*
G54D23*
X699315Y856625D02*
X699315Y894725D01*
G54D23*
X686615Y856625D02*
X686615Y894725D01*
G54D24*
X707028Y833036D02*
X707028Y836212D01*
X702490Y840750D01*
X702490Y859800D01*
G54D24*
X693952Y827064D02*
X693952Y836589D01*
X689790Y840750D01*
X689790Y859800D01*
G36*
X727890Y834400D02*
X724715Y834400D01*
X719952Y839163D01*
X719952Y859800D01*
X727890Y859800D01*
X727890Y834400D01*
G37*
G54D13*
X727890Y834400D02*
X724715Y834400D01*
X719952Y839163D01*
X719952Y859800D01*
X727890Y859800D01*
X727890Y834400D01*
G36*
X715190Y840750D02*
X712015Y840750D01*
X707252Y845513D01*
X707252Y866150D01*
X715190Y866150D01*
X715190Y840750D01*
G37*
G54D13*
X715190Y840750D02*
X712015Y840750D01*
X707252Y845513D01*
X707252Y866150D01*
X715190Y866150D01*
X715190Y840750D01*
G36*
X702490Y837892D02*
X694552Y845830D01*
X694553Y866468D01*
X702490Y866468D01*
X702490Y837892D01*
G37*
G54D13*
X702490Y837892D02*
X694552Y845830D01*
X694553Y866468D01*
X702490Y866468D01*
X702490Y837892D01*
G36*
X689790Y837892D02*
X681852Y845830D01*
X681853Y866468D01*
X689790Y866468D01*
X689790Y837892D01*
G37*
G54D13*
X689790Y837892D02*
X681852Y845830D01*
X681853Y866468D01*
X689790Y866468D01*
X689790Y837892D01*
X720240Y819175D02*
G54D14*
D03*
X700490Y819175D02*
G54D14*
D03*
G54D23*
X724715Y894725D02*
X734240Y904250D01*
X765990Y904250D01*
X779940Y918200D01*
X779940Y949750D01*
G54D23*
X712015Y894725D02*
X712015Y901075D01*
X727890Y916950D01*
X727890Y947700D01*
X729940Y949750D01*
G54D23*
X699315Y888375D02*
X699315Y901075D01*
X683440Y916950D01*
X683440Y946250D01*
X679940Y949750D01*
G54D23*
X686615Y894725D02*
X677090Y904250D01*
X645340Y904250D01*
X632640Y916950D01*
X632640Y947050D01*
X629940Y949750D01*
X653130Y726300D02*
G54D14*
D03*
X643605Y723125D02*
G54D14*
D03*
X752600Y761522D02*
G54D14*
D03*
X752600Y771047D02*
G54D14*
D03*
X667510Y780889D02*
G54D14*
D03*
X667510Y790414D02*
G54D14*
D03*
X510324Y774797D02*
G54D11*
D03*
X552575Y802797D02*
G54D12*
D03*
X546074Y802797D02*
G54D12*
D03*
X539574Y802797D02*
G54D12*
D03*
X533075Y802797D02*
G54D12*
D03*
X526574Y802797D02*
G54D12*
D03*
X520074Y802797D02*
G54D12*
D03*
X513574Y802797D02*
G54D12*
D03*
X507074Y802797D02*
G54D12*
D03*
X500574Y802797D02*
G54D12*
D03*
X494074Y802797D02*
G54D12*
D03*
X487574Y802797D02*
G54D12*
D03*
X481074Y802797D02*
G54D12*
D03*
X474574Y802797D02*
G54D12*
D03*
X468074Y802797D02*
G54D12*
D03*
X468074Y746797D02*
G54D12*
D03*
X474574Y746797D02*
G54D12*
D03*
X481074Y746797D02*
G54D12*
D03*
X487574Y746797D02*
G54D12*
D03*
X494074Y746797D02*
G54D12*
D03*
X500575Y746797D02*
G54D12*
D03*
X507074Y746797D02*
G54D12*
D03*
X513574Y746797D02*
G54D12*
D03*
X520074Y746797D02*
G54D12*
D03*
X526574Y746797D02*
G54D12*
D03*
X533074Y746797D02*
G54D12*
D03*
X539575Y746797D02*
G54D12*
D03*
X546074Y746797D02*
G54D12*
D03*
X552574Y746797D02*
G54D12*
D03*
G36*
X470024Y790732D02*
X470024Y758982D01*
X549400Y758982D01*
X549400Y790732D01*
X470024Y790732D01*
G37*
G54D13*
X470024Y790732D02*
X470024Y758982D01*
X549400Y758982D01*
X549400Y790732D01*
X470024Y790732D01*
X543050Y783747D02*
G54D14*
D03*
X543050Y764697D02*
G54D14*
D03*
X543050Y774222D02*
G54D14*
D03*
X533525Y783747D02*
G54D14*
D03*
X533524Y764697D02*
G54D14*
D03*
X533525Y774222D02*
G54D14*
D03*
X524000Y783747D02*
G54D14*
D03*
X524000Y764697D02*
G54D14*
D03*
X524000Y774222D02*
G54D14*
D03*
X514474Y783747D02*
G54D14*
D03*
X514474Y764697D02*
G54D14*
D03*
X514474Y774222D02*
G54D14*
D03*
X504950Y783747D02*
G54D14*
D03*
X504950Y764697D02*
G54D14*
D03*
X504950Y774222D02*
G54D14*
D03*
X495424Y783747D02*
G54D14*
D03*
X495424Y764697D02*
G54D14*
D03*
X495424Y774222D02*
G54D14*
D03*
X485900Y783747D02*
G54D14*
D03*
X485900Y764697D02*
G54D14*
D03*
X485900Y774222D02*
G54D14*
D03*
X476374Y783747D02*
G54D14*
D03*
X476374Y764697D02*
G54D14*
D03*
X476374Y774222D02*
G54D14*
D03*
X579715Y813050D02*
G54D20*
D03*
X579715Y830050D02*
G54D20*
D03*
G36*
X530060Y848600D02*
X545060Y848600D01*
X545060Y832600D01*
X530060Y832600D01*
X530060Y848600D01*
G37*
G36*
X547060Y848600D02*
X562060Y848600D01*
X562060Y832600D01*
X547060Y832600D01*
X547060Y848600D01*
G37*
X443825Y736850D02*
G54D20*
D03*
X443825Y753850D02*
G54D20*
D03*
X549400Y878997D02*
G54D14*
D03*
X549400Y859947D02*
G54D14*
D03*
X549400Y869472D02*
G54D14*
D03*
X539874Y878997D02*
G54D14*
D03*
X539874Y859947D02*
G54D14*
D03*
X539874Y869472D02*
G54D14*
D03*
G36*
X533525Y885982D02*
X533524Y854232D01*
X555750Y854232D01*
X555750Y885982D01*
X533525Y885982D01*
G37*
G54D13*
X533525Y885982D02*
X533524Y854232D01*
X555750Y854232D01*
X555750Y885982D01*
X533525Y885982D01*
X470024Y878997D02*
G54D14*
D03*
X470025Y859947D02*
G54D14*
D03*
X470024Y869472D02*
G54D14*
D03*
X460500Y878997D02*
G54D14*
D03*
X460500Y859947D02*
G54D14*
D03*
X460500Y869472D02*
G54D14*
D03*
G36*
X454150Y885982D02*
X454150Y854232D01*
X476374Y854232D01*
X476374Y885982D01*
X454150Y885982D01*
G37*
G54D13*
X454150Y885982D02*
X454150Y854232D01*
X476374Y854232D01*
X476374Y885982D01*
X454150Y885982D01*
G54D22*
X526619Y809404D02*
X526619Y845354D01*
G54D22*
X513542Y808827D02*
X513542Y845477D01*
G54D22*
X507004Y809404D02*
X507004Y833037D01*
G54D22*
X493926Y809212D02*
X493926Y827064D01*
G54D23*
X524690Y856625D02*
X524690Y894725D01*
G54D23*
X511990Y856625D02*
X511990Y894725D01*
G54D23*
X499290Y856625D02*
X499290Y894725D01*
G54D23*
X486590Y856625D02*
X486590Y894725D01*
G54D24*
X507004Y833037D02*
X507004Y836212D01*
X502465Y840750D01*
X502465Y859800D01*
G54D24*
X493926Y827064D02*
X493926Y836588D01*
X489765Y840750D01*
X489765Y859800D01*
G36*
X527865Y834400D02*
X524690Y834400D01*
X519928Y839163D01*
X519928Y859800D01*
X527865Y859800D01*
X527865Y834400D01*
G37*
G54D13*
X527865Y834400D02*
X524690Y834400D01*
X519928Y839163D01*
X519928Y859800D01*
X527865Y859800D01*
X527865Y834400D01*
G36*
X515165Y840750D02*
X511990Y840750D01*
X507228Y845513D01*
X507228Y866150D01*
X515165Y866150D01*
X515165Y840750D01*
G37*
G54D13*
X515165Y840750D02*
X511990Y840750D01*
X507228Y845513D01*
X507228Y866150D01*
X515165Y866150D01*
X515165Y840750D01*
G36*
X502465Y837892D02*
X494528Y845830D01*
X494528Y866468D01*
X502465Y866468D01*
X502465Y837892D01*
G37*
G54D13*
X502465Y837892D02*
X494528Y845830D01*
X494528Y866468D01*
X502465Y866468D01*
X502465Y837892D01*
G36*
X489765Y837893D02*
X481828Y845830D01*
X481828Y866468D01*
X489765Y866468D01*
X489765Y837893D01*
G37*
G54D13*
X489765Y837893D02*
X481828Y845830D01*
X481828Y866468D01*
X489765Y866468D01*
X489765Y837893D01*
X520215Y819175D02*
G54D14*
D03*
X500465Y819175D02*
G54D14*
D03*
G54D23*
X524690Y894725D02*
X534215Y904250D01*
X565965Y904250D01*
X579915Y918200D01*
X579915Y949750D01*
G54D23*
X511990Y894725D02*
X511990Y901075D01*
X527865Y916950D01*
X527865Y947700D01*
X529915Y949750D01*
G54D23*
X499290Y888375D02*
X499290Y901075D01*
X483415Y916950D01*
X483415Y946250D01*
X479915Y949750D01*
G54D23*
X486590Y894725D02*
X477065Y904250D01*
X445315Y904250D01*
X432615Y916950D01*
X432615Y947050D01*
X429915Y949750D01*
X453105Y726300D02*
G54D14*
D03*
X443580Y723125D02*
G54D14*
D03*
X552575Y761522D02*
G54D14*
D03*
X552575Y771047D02*
G54D14*
D03*
X467484Y780889D02*
G54D14*
D03*
X467484Y790414D02*
G54D14*
D03*
X310300Y774797D02*
G54D11*
D03*
X352550Y802797D02*
G54D12*
D03*
X346050Y802797D02*
G54D12*
D03*
X339550Y802797D02*
G54D12*
D03*
X333050Y802797D02*
G54D12*
D03*
X326550Y802797D02*
G54D12*
D03*
X320049Y802797D02*
G54D12*
D03*
X313550Y802797D02*
G54D12*
D03*
X307050Y802797D02*
G54D12*
D03*
X300550Y802797D02*
G54D12*
D03*
X294050Y802797D02*
G54D12*
D03*
X287550Y802797D02*
G54D12*
D03*
X281050Y802797D02*
G54D12*
D03*
X274550Y802797D02*
G54D12*
D03*
X268050Y802797D02*
G54D12*
D03*
X268050Y746797D02*
G54D12*
D03*
X274550Y746797D02*
G54D12*
D03*
X281050Y746797D02*
G54D12*
D03*
X287550Y746797D02*
G54D12*
D03*
X294050Y746797D02*
G54D12*
D03*
X300550Y746797D02*
G54D12*
D03*
X307050Y746797D02*
G54D12*
D03*
X313550Y746797D02*
G54D12*
D03*
X320050Y746797D02*
G54D12*
D03*
X326550Y746797D02*
G54D12*
D03*
X333049Y746797D02*
G54D12*
D03*
X339550Y746797D02*
G54D12*
D03*
X346050Y746797D02*
G54D12*
D03*
X352550Y746797D02*
G54D12*
D03*
G36*
X270000Y790732D02*
X270000Y758982D01*
X349374Y758982D01*
X349374Y790732D01*
X270000Y790732D01*
G37*
G54D13*
X270000Y790732D02*
X270000Y758982D01*
X349374Y758982D01*
X349374Y790732D01*
X270000Y790732D01*
X343024Y783747D02*
G54D14*
D03*
X343024Y764697D02*
G54D14*
D03*
X343024Y774222D02*
G54D14*
D03*
X333500Y783747D02*
G54D14*
D03*
X333500Y764697D02*
G54D14*
D03*
X333500Y774222D02*
G54D14*
D03*
X323974Y783747D02*
G54D14*
D03*
X323974Y764697D02*
G54D14*
D03*
X323974Y774222D02*
G54D14*
D03*
X314450Y783747D02*
G54D14*
D03*
X314450Y764697D02*
G54D14*
D03*
X314450Y774222D02*
G54D14*
D03*
X304924Y783747D02*
G54D14*
D03*
X304924Y764697D02*
G54D14*
D03*
X304924Y774222D02*
G54D14*
D03*
X295400Y783747D02*
G54D14*
D03*
X295400Y764697D02*
G54D14*
D03*
X295400Y774222D02*
G54D14*
D03*
X285875Y783747D02*
G54D14*
D03*
X285875Y764697D02*
G54D14*
D03*
X285875Y774222D02*
G54D14*
D03*
X276350Y783747D02*
G54D14*
D03*
X276350Y764697D02*
G54D14*
D03*
X276350Y774222D02*
G54D14*
D03*
X379690Y813050D02*
G54D20*
D03*
X379690Y830050D02*
G54D20*
D03*
X337535Y840600D02*
G54D21*
D03*
X354535Y840600D02*
G54D21*
D03*
X243800Y736850D02*
G54D20*
D03*
X243800Y753850D02*
G54D20*
D03*
X349375Y878997D02*
G54D14*
D03*
X349375Y859947D02*
G54D14*
D03*
X349375Y869472D02*
G54D14*
D03*
X339850Y878997D02*
G54D14*
D03*
X339850Y859947D02*
G54D14*
D03*
X339850Y869472D02*
G54D14*
D03*
G36*
X333500Y885982D02*
X333500Y854232D01*
X355725Y854232D01*
X355724Y885982D01*
X333500Y885982D01*
G37*
G54D13*
X333500Y885982D02*
X333500Y854232D01*
X355725Y854232D01*
X355724Y885982D01*
X333500Y885982D01*
X270000Y878997D02*
G54D14*
D03*
X270000Y859947D02*
G54D14*
D03*
X270000Y869472D02*
G54D14*
D03*
X260474Y878997D02*
G54D14*
D03*
X260474Y859947D02*
G54D14*
D03*
X260474Y869472D02*
G54D14*
D03*
G36*
X254124Y885982D02*
X254124Y854232D01*
X276350Y854232D01*
X276350Y885982D01*
X254124Y885982D01*
G37*
G54D13*
X254124Y885982D02*
X254124Y854232D01*
X276350Y854232D01*
X276350Y885982D01*
X254124Y885982D01*
G54D22*
X326594Y809404D02*
X326594Y845354D01*
G54D22*
X313517Y808827D02*
X313517Y845477D01*
G54D22*
X306978Y809404D02*
X306978Y833037D01*
G54D22*
X293902Y809212D02*
X293902Y827064D01*
G54D23*
X324665Y856625D02*
X324665Y894725D01*
G54D23*
X311965Y856625D02*
X311965Y894725D01*
G54D23*
X299265Y856625D02*
X299265Y894725D01*
G54D23*
X286565Y856625D02*
X286565Y894725D01*
G54D24*
X306978Y833037D02*
X306978Y836212D01*
X302440Y840750D01*
X302440Y859800D01*
G54D24*
X293902Y827064D02*
X293902Y836589D01*
X289740Y840750D01*
X289740Y859800D01*
G36*
X327840Y834400D02*
X324665Y834400D01*
X319902Y839163D01*
X319902Y859800D01*
X327840Y859800D01*
X327840Y834400D01*
G37*
G54D13*
X327840Y834400D02*
X324665Y834400D01*
X319902Y839163D01*
X319902Y859800D01*
X327840Y859800D01*
X327840Y834400D01*
G36*
X315140Y840750D02*
X311965Y840750D01*
X307202Y845513D01*
X307202Y866150D01*
X315140Y866150D01*
X315140Y840750D01*
G37*
G54D13*
X315140Y840750D02*
X311965Y840750D01*
X307202Y845513D01*
X307202Y866150D01*
X315140Y866150D01*
X315140Y840750D01*
G36*
X302440Y837892D02*
X294502Y845830D01*
X294502Y866468D01*
X302440Y866468D01*
X302440Y837892D01*
G37*
G54D13*
X302440Y837892D02*
X294502Y845830D01*
X294502Y866468D01*
X302440Y866468D01*
X302440Y837892D01*
G36*
X289740Y837892D02*
X281802Y845830D01*
X281802Y866468D01*
X289740Y866468D01*
X289740Y837892D01*
G37*
G54D13*
X289740Y837892D02*
X281802Y845830D01*
X281802Y866468D01*
X289740Y866468D01*
X289740Y837892D01*
X320190Y819175D02*
G54D14*
D03*
X300440Y819175D02*
G54D14*
D03*
G54D23*
X324665Y894725D02*
X334190Y904250D01*
X365940Y904250D01*
X379890Y918200D01*
X379890Y949750D01*
G54D23*
X311965Y894725D02*
X311965Y901075D01*
X327840Y916950D01*
X327840Y947700D01*
X329890Y949750D01*
G54D23*
X299265Y888375D02*
X299265Y901075D01*
X283390Y916950D01*
X283390Y946250D01*
X279890Y949750D01*
G54D23*
X286565Y894725D02*
X277040Y904250D01*
X245290Y904250D01*
X232590Y916950D01*
X232590Y947050D01*
X229890Y949750D01*
X253080Y726300D02*
G54D14*
D03*
X243555Y723125D02*
G54D14*
D03*
X352550Y761522D02*
G54D14*
D03*
X352550Y771047D02*
G54D14*
D03*
X267460Y780889D02*
G54D14*
D03*
X267460Y790414D02*
G54D14*
D03*
X835660Y554356D02*
G54D41*
D03*
X835660Y582930D02*
G54D41*
D03*
X660400Y622300D02*
G54D41*
D03*
X660400Y650875D02*
G54D41*
D03*
X701675Y622300D02*
G54D41*
D03*
X701675Y650875D02*
G54D41*
D03*
X701675Y682625D02*
G54D42*
D03*
X701575Y665925D02*
G54D42*
D03*
X742950Y622300D02*
G54D41*
D03*
X742950Y650875D02*
G54D41*
D03*
X742950Y682625D02*
G54D42*
D03*
X742850Y665925D02*
G54D42*
D03*
X784225Y622300D02*
G54D41*
D03*
X784225Y650875D02*
G54D41*
D03*
X838834Y582930D02*
G54D25*
D03*
X605765Y524629D02*
G54D43*
D03*
X599781Y524629D02*
G54D44*
D03*
X610686Y524629D02*
G54D43*
D03*
X615766Y524629D02*
G54D43*
D03*
X620706Y524623D02*
G54D43*
D03*
X625783Y524623D02*
G54D43*
D03*
X630704Y524623D02*
G54D43*
D03*
X635784Y524623D02*
G54D43*
D03*
X640724Y524617D02*
G54D43*
D03*
X645794Y524623D02*
G54D43*
D03*
X650716Y524623D02*
G54D43*
D03*
X655796Y524623D02*
G54D43*
D03*
X660736Y524617D02*
G54D43*
D03*
X665806Y524682D02*
G54D43*
D03*
X670728Y524682D02*
G54D43*
D03*
X675808Y524682D02*
G54D43*
D03*
X680748Y524676D02*
G54D43*
D03*
X685700Y524623D02*
G54D43*
D03*
X691721Y524623D02*
G54D44*
D03*
X605748Y463570D02*
G54D43*
D03*
X599764Y463569D02*
G54D44*
D03*
X610669Y463570D02*
G54D43*
D03*
X615749Y463570D02*
G54D43*
D03*
X620689Y463564D02*
G54D43*
D03*
X625765Y463564D02*
G54D43*
D03*
X630687Y463564D02*
G54D43*
D03*
X635767Y463564D02*
G54D43*
D03*
X640706Y463558D02*
G54D43*
D03*
X645777Y463564D02*
G54D43*
D03*
X650698Y463564D02*
G54D43*
D03*
X655778Y463564D02*
G54D43*
D03*
X660718Y463558D02*
G54D43*
D03*
X665789Y463623D02*
G54D43*
D03*
X670710Y463623D02*
G54D43*
D03*
X675790Y463623D02*
G54D43*
D03*
X680730Y463617D02*
G54D43*
D03*
X685683Y463564D02*
G54D43*
D03*
X691704Y463564D02*
G54D44*
D03*
X644820Y494197D02*
G54D45*
D03*
X245045Y396175D02*
G54D14*
D03*
X287272Y389825D02*
G54D14*
D03*
X328865Y383475D02*
G54D14*
D03*
X371727Y365695D02*
G54D14*
D03*
X444500Y358775D02*
G54D14*
D03*
X487045Y352425D02*
G54D14*
D03*
X528955Y346075D02*
G54D14*
D03*
X571500Y339725D02*
G54D14*
D03*
X650875Y333375D02*
G54D14*
D03*
X692150Y327025D02*
G54D14*
D03*
X730250Y320675D02*
G54D14*
D03*
X765175Y314325D02*
G54D14*
D03*
X739775Y711200D02*
G54D14*
D03*
X727075Y704850D02*
G54D14*
D03*
X708025Y698500D02*
G54D14*
D03*
X679450Y692150D02*
G54D14*
D03*
X565150Y685800D02*
G54D14*
D03*
X520700Y679450D02*
G54D14*
D03*
X482600Y673100D02*
G54D14*
D03*
X444500Y666750D02*
G54D14*
D03*
X368300Y660400D02*
G54D14*
D03*
X330200Y609600D02*
G54D14*
D03*
X284480Y603250D02*
G54D14*
D03*
X238125Y596900D02*
G54D14*
D03*
X460375Y622300D02*
G54D41*
D03*
X460375Y650875D02*
G54D41*
D03*
X501650Y622300D02*
G54D41*
D03*
X501650Y650875D02*
G54D41*
D03*
X501650Y682625D02*
G54D42*
D03*
X501550Y665925D02*
G54D42*
D03*
X542925Y622300D02*
G54D41*
D03*
X542925Y650875D02*
G54D41*
D03*
X542925Y682625D02*
G54D42*
D03*
X542825Y665925D02*
G54D42*
D03*
X584200Y622300D02*
G54D41*
D03*
X584200Y650875D02*
G54D41*
D03*
X260350Y622300D02*
G54D41*
D03*
X260350Y650875D02*
G54D41*
D03*
X301625Y622300D02*
G54D41*
D03*
X301625Y650875D02*
G54D41*
D03*
X301625Y682625D02*
G54D42*
D03*
X301525Y665925D02*
G54D42*
D03*
X342900Y622300D02*
G54D41*
D03*
X342900Y650875D02*
G54D41*
D03*
X342900Y682625D02*
G54D42*
D03*
X342800Y665925D02*
G54D42*
D03*
X384175Y622300D02*
G54D41*
D03*
X384175Y650875D02*
G54D41*
D03*
X384175Y682625D02*
G54D42*
D03*
X384075Y665925D02*
G54D42*
D03*
X351818Y374702D02*
G54D41*
D03*
X351818Y346127D02*
G54D41*
D03*
X310543Y374702D02*
G54D41*
D03*
X310543Y346127D02*
G54D41*
D03*
X269268Y374702D02*
G54D41*
D03*
X269268Y346127D02*
G54D41*
D03*
X269268Y314377D02*
G54D42*
D03*
X269368Y331077D02*
G54D42*
D03*
X227993Y374702D02*
G54D41*
D03*
X227993Y346127D02*
G54D41*
D03*
X551843Y374702D02*
G54D41*
D03*
X551843Y346127D02*
G54D41*
D03*
X510568Y374702D02*
G54D41*
D03*
X510568Y346127D02*
G54D41*
D03*
X469293Y374702D02*
G54D41*
D03*
X469293Y346127D02*
G54D41*
D03*
X469293Y314377D02*
G54D42*
D03*
X469393Y331077D02*
G54D42*
D03*
X428018Y374702D02*
G54D41*
D03*
X428018Y346127D02*
G54D41*
D03*
X751868Y374702D02*
G54D41*
D03*
X751868Y346127D02*
G54D41*
D03*
X710593Y374702D02*
G54D41*
D03*
X710593Y346127D02*
G54D41*
D03*
X669318Y374702D02*
G54D41*
D03*
X669318Y346127D02*
G54D41*
D03*
X628043Y374702D02*
G54D41*
D03*
X628043Y346127D02*
G54D41*
D03*
X796318Y421692D02*
G54D42*
D03*
X796418Y438392D02*
G54D42*
D03*
X777268Y405182D02*
G54D42*
D03*
X777368Y421882D02*
G54D42*
D03*
X1017358Y475113D02*
G54D14*
D03*
X889000Y463549D02*
G54D25*
D03*
X815468Y570472D02*
G54D42*
D03*
X815368Y553772D02*
G54D42*
D03*
X815468Y570472D02*
G54D14*
D03*
X777368Y421882D02*
G54D14*
D03*
X796318Y421692D02*
G54D14*
D03*
X698500Y447675D02*
G54D14*
D03*
X784225Y622300D02*
G54D14*
D03*
X742950Y622300D02*
G54D14*
D03*
X701675Y622300D02*
G54D14*
D03*
X660400Y622300D02*
G54D14*
D03*
X584200Y622300D02*
G54D14*
D03*
X542925Y622300D02*
G54D14*
D03*
X501650Y622300D02*
G54D14*
D03*
X460375Y622300D02*
G54D14*
D03*
X384175Y622300D02*
G54D14*
D03*
X342900Y622300D02*
G54D14*
D03*
X301625Y622300D02*
G54D14*
D03*
X260350Y622300D02*
G54D14*
D03*
X751868Y374702D02*
G54D14*
D03*
X796418Y393307D02*
G54D42*
D03*
X796318Y376607D02*
G54D42*
D03*
X796318Y376607D02*
G54D14*
D03*
X845609Y394759D02*
G54D14*
D03*
X1053041Y394759D02*
G54D14*
D03*
X873125Y394335D02*
G54D14*
D03*
X1009650Y511175D02*
G54D14*
D03*
X881062Y517525D02*
G54D14*
D03*
X584200Y444500D02*
G54D14*
D03*
G36*
X852392Y733326D02*
X828351Y757368D01*
X873606Y802622D01*
X897647Y778580D01*
X852392Y733326D01*
G37*
G36*
X910764Y791698D02*
X886722Y815740D01*
X931978Y860994D01*
X956019Y836952D01*
X910764Y791698D01*
G37*
X896675Y828591D02*
G54D40*
D03*
X860754Y792670D02*
G54D40*
D03*
X1023675Y768266D02*
G54D40*
D03*
X736600Y460375D02*
G54D46*
D03*
X763600Y460375D02*
G54D46*
D03*
X750100Y503025D02*
G54D47*
D03*
G36*
X906900Y465200D02*
X921900Y465200D01*
X921900Y449200D01*
X906900Y449200D01*
X906900Y465200D01*
G37*
X931400Y457200D02*
G54D21*
D03*
G36*
X228600Y542925D02*
X234950Y549275D01*
X558800Y549275D01*
X565150Y542925D01*
X565150Y460375D01*
X558800Y454025D01*
X234950Y454025D01*
X228600Y460375D01*
X228600Y542925D01*
G37*
G54D48*
X238125Y523875D02*
X238125Y539875D01*
X247725Y523875D01*
X247725Y539875D01*
G54D48*
X262925Y536875D02*
X262925Y526875D01*
X261725Y524875D01*
X259325Y523875D01*
X256925Y523875D01*
X254525Y524875D01*
X253325Y526875D01*
X253325Y536875D01*
X254525Y538875D01*
X256925Y539875D01*
X259325Y539875D01*
X261725Y538875D01*
X262925Y536875D01*
G54D48*
X273325Y523875D02*
X273325Y539875D01*
G54D48*
X268525Y539875D02*
X278125Y539875D01*
G54D48*
X292125Y523875D02*
X283725Y523875D01*
X283725Y539875D01*
X292125Y539875D01*
G54D48*
X283725Y531875D02*
X292125Y531875D01*
G54D48*
X297725Y526875D02*
X298925Y524875D01*
X301325Y523875D01*
X303725Y523875D01*
X306125Y524875D01*
X307325Y526875D01*
X307325Y528875D01*
X306125Y530875D01*
X303725Y531875D01*
X301325Y531875D01*
X298925Y532875D01*
X297725Y534875D01*
X297725Y536875D01*
X298925Y538875D01*
X301325Y539875D01*
X303725Y539875D01*
X306125Y538875D01*
X307325Y536875D01*
X390525Y133350D02*
G54D14*
D03*
X400050Y127000D02*
G54D14*
D03*
X590550Y133350D02*
G54D14*
D03*
X600075Y127000D02*
G54D14*
D03*
X790575Y152400D02*
G54D14*
D03*
X800100Y146050D02*
G54D14*
D03*
X222250Y876300D02*
G54D14*
D03*
X422275Y876300D02*
G54D14*
D03*
X622300Y876300D02*
G54D14*
D03*
X612775Y869950D02*
G54D14*
D03*
X412900Y869800D02*
G54D14*
D03*
X212725Y869950D02*
G54D14*
D03*
X428018Y314377D02*
G54D42*
D03*
X428118Y331077D02*
G54D42*
D03*
X510568Y314377D02*
G54D42*
D03*
X510668Y331077D02*
G54D42*
D03*
X628043Y314377D02*
G54D42*
D03*
X628143Y331077D02*
G54D42*
D03*
X669318Y314377D02*
G54D42*
D03*
X669418Y331077D02*
G54D42*
D03*
X710593Y314377D02*
G54D42*
D03*
X710693Y331077D02*
G54D42*
D03*
X751868Y314377D02*
G54D42*
D03*
X751968Y331077D02*
G54D42*
D03*
X551843Y314377D02*
G54D42*
D03*
X551943Y331077D02*
G54D42*
D03*
X227993Y314377D02*
G54D42*
D03*
X228093Y331077D02*
G54D42*
D03*
X311150Y314325D02*
G54D42*
D03*
X311250Y331025D02*
G54D42*
D03*
X351818Y314377D02*
G54D42*
D03*
X351918Y331077D02*
G54D42*
D03*
X260350Y682625D02*
G54D42*
D03*
X260250Y665925D02*
G54D42*
D03*
X460375Y682625D02*
G54D42*
D03*
X460275Y665925D02*
G54D42*
D03*
X584200Y688975D02*
G54D42*
D03*
X584100Y672275D02*
G54D42*
D03*
X660400Y682625D02*
G54D42*
D03*
X660300Y665925D02*
G54D42*
D03*
X784225Y682625D02*
G54D42*
D03*
X784125Y665925D02*
G54D42*
D03*
X215952Y301677D02*
G54D14*
D03*
X215952Y311202D02*
G54D14*
D03*
X206375Y311150D02*
G54D14*
D03*
X206427Y320727D02*
G54D14*
D03*
X196902Y320727D02*
G54D14*
D03*
X196902Y330252D02*
G54D14*
D03*
X187377Y330252D02*
G54D14*
D03*
X187377Y339777D02*
G54D14*
D03*
X177852Y339777D02*
G54D14*
D03*
X177852Y349302D02*
G54D14*
D03*
X168327Y349302D02*
G54D14*
D03*
X168327Y358827D02*
G54D14*
D03*
X800100Y304800D02*
G54D28*
D03*
X768350Y304800D02*
G54D28*
D03*
X784225Y305435D02*
G54D14*
D03*
X836150Y406400D02*
G54D28*
D03*
X247650Y438150D02*
G54D14*
D03*
X215900Y419100D02*
G54D29*
D03*
X710593Y374702D02*
G54D14*
D03*
X669318Y374702D02*
G54D14*
D03*
X628043Y374702D02*
G54D14*
D03*
X551843Y374702D02*
G54D14*
D03*
X510568Y374702D02*
G54D14*
D03*
X469293Y374702D02*
G54D14*
D03*
X428018Y374702D02*
G54D14*
D03*
X351818Y374702D02*
G54D14*
D03*
X310543Y374702D02*
G54D14*
D03*
X269268Y374702D02*
G54D14*
D03*
X227993Y374702D02*
G54D14*
D03*
X805180Y584200D02*
G54D29*
D03*
G54D49*
X870231Y538654D02*
X870231Y546121D01*
G54D49*
X867120Y542388D02*
X873342Y542388D01*
G54D49*
X865564Y550477D02*
X864009Y551411D01*
X863231Y553277D01*
X863231Y555144D01*
X864009Y557011D01*
X865564Y557944D01*
X867120Y557944D01*
X868675Y557011D01*
X869453Y555144D01*
X870231Y557011D01*
X871786Y557944D01*
X873342Y557944D01*
X874898Y557011D01*
X875675Y555144D01*
X875675Y553277D01*
X874898Y551411D01*
X873342Y550477D01*
G54D49*
X865564Y569767D02*
X864009Y568834D01*
X863231Y566967D01*
X863231Y565100D01*
X864009Y563234D01*
X865564Y562300D01*
X869453Y562300D01*
X870231Y562300D01*
X868675Y565100D01*
X868675Y566967D01*
X869453Y568834D01*
X871009Y569767D01*
X873342Y569767D01*
X874898Y568834D01*
X875675Y566967D01*
X875675Y565100D01*
X874898Y563234D01*
X873342Y562300D01*
X869453Y562300D01*
G54D49*
X863231Y574123D02*
X875675Y578790D01*
X863231Y583457D01*
G54D49*
X875675Y587812D02*
X863231Y595279D01*
G54D49*
X869453Y603369D02*
X869453Y607102D01*
X873342Y607102D01*
X874898Y606169D01*
X875675Y604302D01*
X875675Y602435D01*
X874898Y600569D01*
X873342Y599635D01*
X865564Y599635D01*
X864009Y600569D01*
X863231Y602435D01*
X863231Y604302D01*
X864009Y606169D01*
X865564Y607102D01*
G54D49*
X875675Y611458D02*
X863231Y611458D01*
X875675Y618925D01*
X863231Y618925D01*
G54D49*
X875675Y623281D02*
X863231Y623281D01*
X863231Y627948D01*
X864009Y629815D01*
X865564Y630748D01*
X873342Y630748D01*
X874898Y629815D01*
X875675Y627948D01*
X875675Y623281D01*
G54D49*
X863231Y642447D02*
X864009Y640581D01*
X865564Y639647D01*
X873342Y639647D01*
X874898Y640581D01*
X875675Y642447D01*
G54D49*
X875675Y646803D02*
X863231Y646803D01*
X863231Y651470D01*
X864009Y653337D01*
X865564Y654270D01*
X867120Y654270D01*
X868675Y653337D01*
X869453Y651470D01*
X869453Y646803D01*
G54D49*
X868675Y664226D02*
X875675Y664226D01*
G54D49*
X874120Y664226D02*
X875364Y663293D01*
X875675Y661426D01*
X875364Y659560D01*
X874120Y658626D01*
X868675Y658626D01*
G54D49*
X874898Y668582D02*
X875675Y670449D01*
X875675Y672316D01*
X874898Y674182D01*
X873342Y674182D01*
X872564Y673249D01*
X871786Y669516D01*
X871009Y668582D01*
X869453Y668582D01*
X868675Y670449D01*
X868675Y672316D01*
X869453Y674182D01*
G54D49*
X875675Y678538D02*
X863231Y678538D01*
G54D49*
X870698Y678538D02*
X869142Y679472D01*
X868675Y681338D01*
X869142Y683205D01*
X870698Y684138D01*
X875675Y684138D01*
G54D49*
X863231Y688494D02*
X864009Y690361D01*
X865564Y691294D01*
X873342Y691294D01*
X874898Y690361D01*
X875675Y688494D01*
G54D49*
X894996Y538654D02*
X894996Y546121D01*
G54D49*
X891885Y542388D02*
X898107Y542388D01*
G54D49*
X900440Y557944D02*
X900440Y550477D01*
X899663Y550477D01*
X898107Y551411D01*
X893440Y557011D01*
X891885Y557944D01*
X890329Y557944D01*
X888774Y557011D01*
X887996Y555144D01*
X887996Y553277D01*
X888774Y551411D01*
X890329Y550477D01*
G54D49*
X900440Y567900D02*
X887996Y567900D01*
X895774Y562300D01*
X897329Y562300D01*
X897329Y569767D01*
G54D49*
X900440Y574123D02*
X887996Y581590D01*
G54D49*
X894996Y585946D02*
X894996Y593413D01*
G54D49*
X900440Y605236D02*
X900440Y597769D01*
X899663Y597769D01*
X898107Y598703D01*
X893440Y604303D01*
X891885Y605236D01*
X890329Y605236D01*
X888774Y604303D01*
X887996Y602436D01*
X887996Y600569D01*
X888774Y598703D01*
X890329Y597769D01*
G54D49*
X900440Y615192D02*
X887996Y615192D01*
X895774Y609592D01*
X897329Y609592D01*
X897329Y617059D01*
G54D49*
X887996Y621415D02*
X900440Y626082D01*
X887996Y630749D01*
G54D49*
X887996Y642447D02*
X888774Y640581D01*
X890329Y639647D01*
X898107Y639647D01*
X899663Y640581D01*
X900440Y642447D01*
G54D49*
X900440Y646803D02*
X887996Y646803D01*
X887996Y651470D01*
X888774Y653337D01*
X890329Y654270D01*
X891885Y654270D01*
X893440Y653337D01*
X894218Y651470D01*
X894218Y646803D01*
G54D49*
X893440Y664226D02*
X900440Y664226D01*
G54D49*
X898885Y664226D02*
X900129Y663293D01*
X900440Y661426D01*
X900129Y659560D01*
X898885Y658626D01*
X893440Y658626D01*
G54D49*
X899663Y668582D02*
X900440Y670449D01*
X900440Y672316D01*
X899663Y674182D01*
X898107Y674182D01*
X897329Y673249D01*
X896552Y669516D01*
X895774Y668582D01*
X894218Y668582D01*
X893440Y670449D01*
X893440Y672316D01*
X894218Y674182D01*
G54D49*
X900440Y678538D02*
X887996Y678538D01*
G54D49*
X895463Y678538D02*
X893907Y679472D01*
X893440Y681338D01*
X893907Y683205D01*
X895463Y684138D01*
X900440Y684138D01*
G54D49*
X894996Y688494D02*
X894996Y695961D01*
G36*
X854075Y536575D02*
X860425Y530225D01*
X936625Y530225D01*
X942975Y536575D01*
X942975Y666750D01*
X895350Y714375D01*
X860425Y714375D01*
X854075Y708025D01*
X854075Y536575D01*
G37*
G54D50*
X932826Y551989D02*
X915048Y551989D01*
X926159Y558656D01*
X915048Y565323D01*
X932826Y565323D01*
G54D50*
X932826Y571544D02*
X915048Y578211D01*
X932826Y584878D01*
G54D50*
X926159Y574211D02*
X926159Y582211D01*
G54D50*
X915048Y591099D02*
X932826Y604433D01*
G54D50*
X932826Y591099D02*
X915048Y604433D01*
G54D50*
X915048Y617143D02*
X928381Y617143D01*
G54D50*
X932826Y617143D02*
X932826Y617143D01*
G54D49*
X923936Y640254D02*
X911491Y640254D01*
X911491Y644921D01*
X912269Y646788D01*
X913824Y647721D01*
X915380Y647721D01*
X916936Y646788D01*
X917713Y644921D01*
X917713Y640254D01*
G54D49*
X916936Y657677D02*
X923936Y657677D01*
G54D49*
X922380Y657677D02*
X923624Y656744D01*
X923936Y654877D01*
X923624Y653011D01*
X922380Y652077D01*
X916936Y652077D01*
G54D49*
X923936Y662033D02*
X911491Y662033D01*
G54D49*
X923936Y666389D02*
X911491Y666389D01*
G54D49*
X911491Y670745D02*
X912269Y672612D01*
X913824Y673545D01*
X921602Y673545D01*
X923158Y672612D01*
X923936Y670745D01*
X1047750Y422275D02*
G54D18*
D03*
G54D39*
X1012800Y336700D02*
X1012800Y387325D01*
X1047750Y422275D01*
X838200Y958850D02*
G54D14*
D03*
X844550Y952500D02*
G54D14*
D03*
X1212850Y946150D02*
G54D14*
D03*
X1219200Y939800D02*
G54D14*
D03*
X1206500Y546100D02*
G54D25*
D03*
G54D39*
X1022325Y292250D02*
X1044575Y270000D01*
X1044575Y225425D01*
X1117600Y152400D01*
X1117600Y38100D01*
X1117600Y38100D02*
G54D18*
D03*
X809200Y102025D02*
G54D18*
D03*
G54D39*
X860850Y120350D02*
X860850Y212300D01*
X819150Y254000D01*
X604520Y19050D02*
G54D51*
D03*
X405130Y19050D02*
G54D51*
D03*
X628650Y133350D02*
G54D51*
D03*
X431800Y133350D02*
G54D51*
D03*
X404867Y977002D02*
G54D51*
D03*
X604257Y977002D02*
G54D51*
D03*
X380737Y862702D02*
G54D51*
D03*
X577587Y862702D02*
G54D51*
D03*
X76200Y457200D02*
G54D25*
D03*
X76200Y933450D02*
G54D25*
D03*
X901700Y482600D02*
G54D25*
D03*
X936625Y517525D02*
G54D14*
D03*
X354330Y19050D02*
G54D51*
D03*
X391795Y88900D02*
G54D51*
D03*
X554355Y19050D02*
G54D51*
D03*
X591820Y88900D02*
G54D51*
D03*
X656398Y976611D02*
G54D51*
D03*
X618933Y906761D02*
G54D51*
D03*
X455103Y976611D02*
G54D51*
D03*
X419543Y906761D02*
G54D51*
D03*
X66675Y425450D02*
G54D25*
D03*
X772160Y554356D02*
G54D41*
D03*
X772160Y582931D02*
G54D41*
D03*
X85725Y577850D02*
G54D14*
D03*
X793243Y570472D02*
G54D42*
D03*
X793143Y553772D02*
G54D42*
D03*
X793243Y570472D02*
G54D14*
D03*
X772160Y582931D02*
G54D14*
D03*
G36*
X979392Y673001D02*
X955351Y697043D01*
X1000606Y742297D01*
X1024647Y718255D01*
X979392Y673001D01*
G37*
G36*
X1037764Y731373D02*
X1013722Y755415D01*
X1058978Y800669D01*
X1083019Y776627D01*
X1037764Y731373D01*
G37*
X1023675Y768266D02*
G54D40*
D03*
X987754Y732345D02*
G54D40*
D03*
M02*
