%FSLAX34Y34*%
%MOMM*%
%LNSOLDERMASK_BOTTOM*%
G71*
G01*
%ADD10C,3.200*%
%ADD11C,1.000*%
%ADD12C,0.700*%
%ADD13C,1.900*%
%ADD14C,4.200*%
%ADD15C,2.800*%
%ADD16C,2.400*%
%ADD17C,3.400*%
%ADD18C,0.800*%
%ADD19C,1.400*%
%ADD20C,1.200*%
%ADD21C,1.900*%
%ADD22C,1.300*%
%ADD23C,2.400*%
%ADD24C,3.000*%
%ADD25C,2.400*%
%ADD26C,1.800*%
%LPD*%
X579890Y49750D02*
G54D10*
D03*
X529890Y49750D02*
G54D10*
D03*
X479890Y49750D02*
G54D10*
D03*
X429890Y49750D02*
G54D10*
D03*
X379890Y49750D02*
G54D10*
D03*
X329890Y49750D02*
G54D10*
D03*
X279890Y49750D02*
G54D10*
D03*
X229890Y49750D02*
G54D10*
D03*
X779890Y49750D02*
G54D10*
D03*
X729890Y49750D02*
G54D10*
D03*
X679890Y49750D02*
G54D10*
D03*
X629890Y49750D02*
G54D10*
D03*
X268875Y213450D02*
G54D11*
D03*
X268875Y232500D02*
G54D11*
D03*
X268875Y222975D02*
G54D11*
D03*
X278400Y213450D02*
G54D11*
D03*
X278400Y232500D02*
G54D11*
D03*
X278400Y222975D02*
G54D11*
D03*
X287925Y213450D02*
G54D11*
D03*
X287925Y232500D02*
G54D11*
D03*
X287925Y222975D02*
G54D11*
D03*
X297450Y213450D02*
G54D11*
D03*
X297450Y232500D02*
G54D11*
D03*
X297450Y222975D02*
G54D11*
D03*
X306975Y213450D02*
G54D11*
D03*
X306975Y232500D02*
G54D11*
D03*
X306975Y222975D02*
G54D11*
D03*
X316500Y213450D02*
G54D11*
D03*
X316500Y232500D02*
G54D11*
D03*
X316500Y222975D02*
G54D11*
D03*
X326025Y213450D02*
G54D11*
D03*
X326025Y232500D02*
G54D11*
D03*
X326025Y222975D02*
G54D11*
D03*
X335550Y213450D02*
G54D11*
D03*
X335550Y232500D02*
G54D11*
D03*
X335550Y222975D02*
G54D11*
D03*
G36*
X354600Y188050D02*
X354600Y264249D01*
X249825Y264250D01*
X249825Y188050D01*
X354600Y188050D01*
G37*
G54D12*
X354600Y188050D02*
X354600Y264249D01*
X249825Y264250D01*
X249825Y188050D01*
X354600Y188050D01*
G36*
X1177900Y898500D02*
X1177900Y879500D01*
X1158900Y879500D01*
X1158900Y898500D01*
X1177900Y898500D01*
G37*
X1193800Y889000D02*
G54D13*
D03*
X1168400Y863600D02*
G54D13*
D03*
X1193800Y863600D02*
G54D13*
D03*
X1168400Y838200D02*
G54D13*
D03*
X1193800Y838200D02*
G54D13*
D03*
X1168400Y812800D02*
G54D13*
D03*
X1193800Y812800D02*
G54D13*
D03*
X1168400Y787400D02*
G54D13*
D03*
X1193800Y787400D02*
G54D13*
D03*
X1168400Y762000D02*
G54D13*
D03*
X1193800Y762000D02*
G54D13*
D03*
X1168400Y736600D02*
G54D13*
D03*
X1193800Y736600D02*
G54D13*
D03*
X1168400Y711200D02*
G54D13*
D03*
X1193800Y711200D02*
G54D13*
D03*
X1168400Y685800D02*
G54D13*
D03*
X1193800Y685800D02*
G54D13*
D03*
X1168400Y660400D02*
G54D13*
D03*
X1193800Y660400D02*
G54D13*
D03*
X1168400Y635000D02*
G54D13*
D03*
X1193800Y635000D02*
G54D13*
D03*
X1168400Y609600D02*
G54D13*
D03*
X1193800Y609600D02*
G54D13*
D03*
X1168400Y584200D02*
G54D13*
D03*
X1193800Y584200D02*
G54D13*
D03*
X1193800Y558800D02*
G54D13*
D03*
X1168400Y533400D02*
G54D13*
D03*
X1193800Y533400D02*
G54D13*
D03*
X1168400Y508000D02*
G54D13*
D03*
X1193800Y508000D02*
G54D13*
D03*
X1168400Y482600D02*
G54D13*
D03*
X1193800Y482600D02*
G54D13*
D03*
X1168400Y457200D02*
G54D13*
D03*
X1193800Y457200D02*
G54D13*
D03*
X1168400Y431800D02*
G54D13*
D03*
X1193800Y431800D02*
G54D13*
D03*
X1168400Y406400D02*
G54D13*
D03*
X1193800Y406400D02*
G54D13*
D03*
X1168400Y381000D02*
G54D13*
D03*
X1193800Y381000D02*
G54D13*
D03*
X1168400Y355600D02*
G54D13*
D03*
X1193800Y355600D02*
G54D13*
D03*
X1168400Y330200D02*
G54D13*
D03*
X1193800Y330200D02*
G54D13*
D03*
X1168400Y304800D02*
G54D13*
D03*
X1193800Y304800D02*
G54D13*
D03*
X1168400Y279400D02*
G54D13*
D03*
X1193800Y279400D02*
G54D13*
D03*
X1168400Y254000D02*
G54D13*
D03*
X1193800Y254000D02*
G54D13*
D03*
X1168400Y558800D02*
G54D13*
D03*
X1168400Y228600D02*
G54D13*
D03*
X1193800Y228600D02*
G54D13*
D03*
X1168400Y203200D02*
G54D13*
D03*
X1193800Y203200D02*
G54D13*
D03*
X1168400Y177800D02*
G54D13*
D03*
X1193800Y177800D02*
G54D13*
D03*
X1168400Y152400D02*
G54D13*
D03*
X1193800Y152400D02*
G54D13*
D03*
X1193800Y127000D02*
G54D13*
D03*
X1168400Y101600D02*
G54D13*
D03*
X1193800Y101600D02*
G54D13*
D03*
X1168400Y76200D02*
G54D13*
D03*
X1193800Y76200D02*
G54D13*
D03*
X1168400Y50800D02*
G54D13*
D03*
X1193800Y50800D02*
G54D13*
D03*
X1168400Y25400D02*
G54D13*
D03*
X1193800Y25400D02*
G54D13*
D03*
X1168400Y127000D02*
G54D13*
D03*
X1245088Y920171D02*
G54D14*
D03*
X1257788Y164521D02*
G54D14*
D03*
G36*
X136500Y898500D02*
X136500Y879500D01*
X117500Y879500D01*
X117500Y898500D01*
X136500Y898500D01*
G37*
X101600Y889000D02*
G54D13*
D03*
X127000Y863600D02*
G54D13*
D03*
X101600Y863600D02*
G54D13*
D03*
X127000Y838200D02*
G54D13*
D03*
X101600Y838200D02*
G54D13*
D03*
X127000Y812800D02*
G54D13*
D03*
X101600Y812800D02*
G54D13*
D03*
X127000Y787400D02*
G54D13*
D03*
X101600Y787400D02*
G54D13*
D03*
X127000Y762000D02*
G54D13*
D03*
X101600Y762000D02*
G54D13*
D03*
X127000Y736600D02*
G54D13*
D03*
X101600Y736600D02*
G54D13*
D03*
X127000Y711200D02*
G54D13*
D03*
X101600Y711200D02*
G54D13*
D03*
X127000Y685800D02*
G54D13*
D03*
X101600Y685800D02*
G54D13*
D03*
X127000Y660400D02*
G54D13*
D03*
X101600Y660400D02*
G54D13*
D03*
X127000Y635000D02*
G54D13*
D03*
X101600Y635000D02*
G54D13*
D03*
X127000Y609600D02*
G54D13*
D03*
X101600Y609600D02*
G54D13*
D03*
X127000Y584200D02*
G54D13*
D03*
X101600Y584200D02*
G54D13*
D03*
X101600Y558800D02*
G54D13*
D03*
X127000Y533400D02*
G54D13*
D03*
X101600Y533400D02*
G54D13*
D03*
X127000Y508000D02*
G54D13*
D03*
X101600Y508000D02*
G54D13*
D03*
X127000Y482600D02*
G54D13*
D03*
X101600Y482600D02*
G54D13*
D03*
X127000Y457200D02*
G54D13*
D03*
X101600Y457200D02*
G54D13*
D03*
X127000Y431800D02*
G54D13*
D03*
X101600Y431800D02*
G54D13*
D03*
X127000Y406400D02*
G54D13*
D03*
X101600Y406400D02*
G54D13*
D03*
X127000Y381000D02*
G54D13*
D03*
X101600Y381000D02*
G54D13*
D03*
X127000Y355600D02*
G54D13*
D03*
X101600Y355600D02*
G54D13*
D03*
X127000Y330200D02*
G54D13*
D03*
X101600Y330200D02*
G54D13*
D03*
X127000Y304800D02*
G54D13*
D03*
X101600Y304800D02*
G54D13*
D03*
X127000Y279400D02*
G54D13*
D03*
X101600Y279400D02*
G54D13*
D03*
X127000Y254000D02*
G54D13*
D03*
X101600Y254000D02*
G54D13*
D03*
X127000Y558800D02*
G54D13*
D03*
X127000Y228600D02*
G54D13*
D03*
X101600Y228600D02*
G54D13*
D03*
X127000Y203200D02*
G54D13*
D03*
X101600Y203200D02*
G54D13*
D03*
X127000Y177800D02*
G54D13*
D03*
X101600Y177800D02*
G54D13*
D03*
X127000Y152400D02*
G54D13*
D03*
X101600Y152400D02*
G54D13*
D03*
X101600Y127000D02*
G54D13*
D03*
X127000Y101600D02*
G54D13*
D03*
X101600Y101600D02*
G54D13*
D03*
X127000Y76200D02*
G54D13*
D03*
X101600Y76200D02*
G54D13*
D03*
X127000Y50800D02*
G54D13*
D03*
X101600Y50800D02*
G54D13*
D03*
X127000Y25400D02*
G54D13*
D03*
X101600Y25400D02*
G54D13*
D03*
X127000Y127000D02*
G54D13*
D03*
X50312Y920171D02*
G54D14*
D03*
X37612Y164521D02*
G54D14*
D03*
X579890Y949750D02*
G54D10*
D03*
X529890Y949750D02*
G54D10*
D03*
X479890Y949750D02*
G54D10*
D03*
X429890Y949750D02*
G54D10*
D03*
X379890Y949750D02*
G54D10*
D03*
X329890Y949750D02*
G54D10*
D03*
X279890Y949750D02*
G54D10*
D03*
X229890Y949750D02*
G54D10*
D03*
X779890Y949750D02*
G54D10*
D03*
X729890Y949750D02*
G54D10*
D03*
X679890Y949750D02*
G54D10*
D03*
X629890Y949750D02*
G54D10*
D03*
X962000Y57300D02*
G54D15*
D03*
X988579Y915425D02*
G54D16*
D03*
X950479Y915425D02*
G54D16*
D03*
X988579Y915425D02*
G54D16*
D03*
X950479Y915425D02*
G54D16*
D03*
X1026679Y915425D02*
G54D16*
D03*
X912379Y915425D02*
G54D16*
D03*
X1071652Y915424D02*
G54D17*
D03*
X867420Y915423D02*
G54D17*
D03*
X1026679Y915425D02*
G54D15*
D03*
X988579Y915425D02*
G54D15*
D03*
X950479Y915425D02*
G54D15*
D03*
X912379Y915425D02*
G54D15*
D03*
X962000Y57300D02*
G54D16*
D03*
X1000100Y57300D02*
G54D16*
D03*
X962000Y57300D02*
G54D16*
D03*
X1000100Y57300D02*
G54D16*
D03*
X923900Y57300D02*
G54D16*
D03*
X262525Y118200D02*
G54D11*
D03*
X262525Y137250D02*
G54D11*
D03*
X262525Y127725D02*
G54D11*
D03*
X272050Y118200D02*
G54D11*
D03*
X272050Y137250D02*
G54D11*
D03*
X272050Y127725D02*
G54D11*
D03*
X341900Y118200D02*
G54D11*
D03*
X341900Y137250D02*
G54D11*
D03*
X341900Y127725D02*
G54D11*
D03*
X351425Y118200D02*
G54D11*
D03*
X351425Y137250D02*
G54D11*
D03*
X351425Y127725D02*
G54D11*
D03*
X291710Y178022D02*
G54D11*
D03*
X311460Y178022D02*
G54D11*
D03*
G36*
X256754Y277097D02*
X381537Y277090D01*
X381532Y264397D01*
X250397Y264450D01*
X250404Y270747D01*
X256754Y277097D01*
G37*
G54D18*
X256754Y277097D02*
X381537Y277090D01*
X381532Y264397D01*
X250397Y264450D01*
X250404Y270747D01*
X256754Y277097D01*
X781050Y501650D02*
G54D19*
D03*
X993227Y493212D02*
G54D19*
D03*
X869950Y406400D02*
G54D20*
D03*
X933450Y438150D02*
G54D20*
D03*
X127000Y228600D02*
G54D21*
D03*
X101600Y101600D02*
G54D21*
D03*
X101600Y406400D02*
G54D21*
D03*
X1168400Y660400D02*
G54D21*
D03*
X1193800Y660400D02*
G54D21*
D03*
X1193800Y635000D02*
G54D21*
D03*
X1193800Y152400D02*
G54D21*
D03*
X1168400Y279400D02*
G54D21*
D03*
X1193800Y812800D02*
G54D21*
D03*
X127000Y660400D02*
G54D21*
D03*
X678050Y501998D02*
G54D11*
D03*
X678050Y482948D02*
G54D11*
D03*
X678050Y492473D02*
G54D11*
D03*
X668525Y501998D02*
G54D11*
D03*
X668525Y482948D02*
G54D11*
D03*
X668525Y492473D02*
G54D11*
D03*
X659000Y501998D02*
G54D11*
D03*
X659000Y482948D02*
G54D11*
D03*
X659000Y492473D02*
G54D11*
D03*
X649475Y501998D02*
G54D11*
D03*
X649475Y482948D02*
G54D11*
D03*
X649475Y492473D02*
G54D11*
D03*
X639950Y501998D02*
G54D11*
D03*
X639950Y482948D02*
G54D11*
D03*
X639950Y492473D02*
G54D11*
D03*
X630425Y501998D02*
G54D11*
D03*
X630425Y482948D02*
G54D11*
D03*
X630425Y492473D02*
G54D11*
D03*
X620900Y501998D02*
G54D11*
D03*
X620900Y482948D02*
G54D11*
D03*
X620900Y492473D02*
G54D11*
D03*
X611375Y501998D02*
G54D11*
D03*
X611375Y482948D02*
G54D11*
D03*
X611375Y492473D02*
G54D11*
D03*
G36*
X592325Y527398D02*
X592325Y460723D01*
X697100Y460723D01*
X697100Y527398D01*
X592325Y527398D01*
G37*
G54D12*
X592325Y527398D02*
X592325Y460723D01*
X697100Y460723D01*
X697100Y527398D01*
X592325Y527398D01*
X358820Y270897D02*
G54D11*
D03*
X368344Y274072D02*
G54D11*
D03*
X259350Y235675D02*
G54D11*
D03*
X259350Y226150D02*
G54D11*
D03*
X344440Y216308D02*
G54D11*
D03*
X344440Y206782D02*
G54D11*
D03*
G36*
X373570Y191522D02*
X367220Y201047D01*
X379920Y201047D01*
X373570Y191522D01*
G37*
G54D12*
X373570Y191522D02*
X367220Y201047D01*
X379920Y201047D01*
X373570Y191522D01*
G36*
X373617Y216957D02*
X379967Y207432D01*
X367267Y207432D01*
X373617Y216957D01*
G37*
G54D12*
X373617Y216957D02*
X379967Y207432D01*
X367267Y207432D01*
X373617Y216957D01*
G36*
X389444Y172472D02*
X383094Y181997D01*
X395794Y181997D01*
X389444Y172472D01*
G37*
G54D12*
X389444Y172472D02*
X383094Y181997D01*
X395794Y181997D01*
X389444Y172472D01*
G36*
X389492Y197907D02*
X395842Y188382D01*
X383142Y188382D01*
X389492Y197907D01*
G37*
G54D12*
X389492Y197907D02*
X395842Y188382D01*
X383142Y188382D01*
X389492Y197907D01*
X468900Y213450D02*
G54D11*
D03*
X468900Y232500D02*
G54D11*
D03*
X468900Y222975D02*
G54D11*
D03*
X478425Y213450D02*
G54D11*
D03*
X478425Y232500D02*
G54D11*
D03*
X478425Y222975D02*
G54D11*
D03*
X487950Y213450D02*
G54D11*
D03*
X487950Y232500D02*
G54D11*
D03*
X487950Y222975D02*
G54D11*
D03*
X497475Y213450D02*
G54D11*
D03*
X497475Y232500D02*
G54D11*
D03*
X497475Y222975D02*
G54D11*
D03*
X507000Y213450D02*
G54D11*
D03*
X507000Y232500D02*
G54D11*
D03*
X507000Y222975D02*
G54D11*
D03*
X516525Y213450D02*
G54D11*
D03*
X516525Y232500D02*
G54D11*
D03*
X516525Y222975D02*
G54D11*
D03*
X526050Y213450D02*
G54D11*
D03*
X526050Y232500D02*
G54D11*
D03*
X526050Y222975D02*
G54D11*
D03*
X535575Y213450D02*
G54D11*
D03*
X535575Y232500D02*
G54D11*
D03*
X535575Y222975D02*
G54D11*
D03*
G36*
X554625Y188050D02*
X554625Y264249D01*
X449850Y264250D01*
X449850Y188050D01*
X554625Y188050D01*
G37*
G54D12*
X554625Y188050D02*
X554625Y264249D01*
X449850Y264250D01*
X449850Y188050D01*
X554625Y188050D01*
X462550Y118200D02*
G54D11*
D03*
X462550Y137250D02*
G54D11*
D03*
X462550Y127725D02*
G54D11*
D03*
X472075Y118200D02*
G54D11*
D03*
X472075Y137250D02*
G54D11*
D03*
X472075Y127725D02*
G54D11*
D03*
X541925Y118200D02*
G54D11*
D03*
X541925Y137250D02*
G54D11*
D03*
X541925Y127725D02*
G54D11*
D03*
X551450Y118200D02*
G54D11*
D03*
X551450Y137250D02*
G54D11*
D03*
X551450Y127725D02*
G54D11*
D03*
X491734Y178022D02*
G54D11*
D03*
X511484Y178022D02*
G54D11*
D03*
G36*
X456780Y277097D02*
X581562Y277090D01*
X581557Y264397D01*
X450422Y264450D01*
X450430Y270747D01*
X456780Y277097D01*
G37*
G54D18*
X456780Y277097D02*
X581562Y277090D01*
X581557Y264397D01*
X450422Y264450D01*
X450430Y270747D01*
X456780Y277097D01*
X558844Y270897D02*
G54D11*
D03*
X568370Y274072D02*
G54D11*
D03*
X459375Y235675D02*
G54D11*
D03*
X459375Y226150D02*
G54D11*
D03*
X544465Y216308D02*
G54D11*
D03*
X544465Y206782D02*
G54D11*
D03*
G36*
X573594Y191522D02*
X567244Y201047D01*
X579944Y201047D01*
X573594Y191522D01*
G37*
G54D12*
X573594Y191522D02*
X567244Y201047D01*
X579944Y201047D01*
X573594Y191522D01*
G36*
X573642Y216957D02*
X579992Y207432D01*
X567292Y207432D01*
X573642Y216957D01*
G37*
G54D12*
X573642Y216957D02*
X579992Y207432D01*
X567292Y207432D01*
X573642Y216957D01*
G36*
X589470Y172472D02*
X583120Y181997D01*
X595820Y181997D01*
X589470Y172472D01*
G37*
G54D12*
X589470Y172472D02*
X583120Y181997D01*
X595820Y181997D01*
X589470Y172472D01*
G36*
X589517Y197907D02*
X595867Y188382D01*
X583167Y188382D01*
X589517Y197907D01*
G37*
G54D12*
X589517Y197907D02*
X595867Y188382D01*
X583167Y188382D01*
X589517Y197907D01*
X668925Y213450D02*
G54D11*
D03*
X668925Y232500D02*
G54D11*
D03*
X668925Y222975D02*
G54D11*
D03*
X678450Y213450D02*
G54D11*
D03*
X678450Y232500D02*
G54D11*
D03*
X678450Y222975D02*
G54D11*
D03*
X687975Y213450D02*
G54D11*
D03*
X687975Y232500D02*
G54D11*
D03*
X687975Y222975D02*
G54D11*
D03*
X697500Y213450D02*
G54D11*
D03*
X697500Y232500D02*
G54D11*
D03*
X697500Y222975D02*
G54D11*
D03*
X707025Y213450D02*
G54D11*
D03*
X707025Y232500D02*
G54D11*
D03*
X707025Y222975D02*
G54D11*
D03*
X716550Y213450D02*
G54D11*
D03*
X716550Y232500D02*
G54D11*
D03*
X716550Y222975D02*
G54D11*
D03*
X726075Y213450D02*
G54D11*
D03*
X726075Y232500D02*
G54D11*
D03*
X726075Y222975D02*
G54D11*
D03*
X735600Y213450D02*
G54D11*
D03*
X735600Y232500D02*
G54D11*
D03*
X735600Y222975D02*
G54D11*
D03*
G36*
X754650Y188050D02*
X754650Y264249D01*
X649875Y264250D01*
X649875Y188050D01*
X754650Y188050D01*
G37*
G54D12*
X754650Y188050D02*
X754650Y264249D01*
X649875Y264250D01*
X649875Y188050D01*
X754650Y188050D01*
X662575Y118200D02*
G54D11*
D03*
X662575Y137250D02*
G54D11*
D03*
X662575Y127725D02*
G54D11*
D03*
X672100Y118200D02*
G54D11*
D03*
X672100Y137250D02*
G54D11*
D03*
X672100Y127725D02*
G54D11*
D03*
X741950Y118200D02*
G54D11*
D03*
X741950Y137250D02*
G54D11*
D03*
X741950Y127725D02*
G54D11*
D03*
X751475Y118200D02*
G54D11*
D03*
X751475Y137250D02*
G54D11*
D03*
X751475Y127725D02*
G54D11*
D03*
X691760Y178022D02*
G54D11*
D03*
X711510Y178022D02*
G54D11*
D03*
G36*
X656804Y277097D02*
X781587Y277090D01*
X781582Y264397D01*
X650447Y264450D01*
X650454Y270747D01*
X656804Y277097D01*
G37*
G54D18*
X656804Y277097D02*
X781587Y277090D01*
X781582Y264397D01*
X650447Y264450D01*
X650454Y270747D01*
X656804Y277097D01*
X758870Y270897D02*
G54D11*
D03*
X768394Y274072D02*
G54D11*
D03*
X659400Y235675D02*
G54D11*
D03*
X659400Y226150D02*
G54D11*
D03*
X744490Y216308D02*
G54D11*
D03*
X744490Y206782D02*
G54D11*
D03*
G36*
X773620Y191522D02*
X767270Y201047D01*
X779970Y201047D01*
X773620Y191522D01*
G37*
G54D12*
X773620Y191522D02*
X767270Y201047D01*
X779970Y201047D01*
X773620Y191522D01*
G36*
X773667Y216957D02*
X780017Y207432D01*
X767317Y207432D01*
X773667Y216957D01*
G37*
G54D12*
X773667Y216957D02*
X780017Y207432D01*
X767317Y207432D01*
X773667Y216957D01*
G36*
X789494Y172472D02*
X783144Y181997D01*
X795844Y181997D01*
X789494Y172472D01*
G37*
G54D12*
X789494Y172472D02*
X783144Y181997D01*
X795844Y181997D01*
X789494Y172472D01*
G36*
X789542Y197907D02*
X795892Y188382D01*
X783192Y188382D01*
X789542Y197907D01*
G37*
G54D12*
X789542Y197907D02*
X795892Y188382D01*
X783192Y188382D01*
X789542Y197907D01*
X949300Y336700D02*
G54D22*
D03*
X962000Y336700D02*
G54D22*
D03*
X974700Y336700D02*
G54D22*
D03*
X987400Y336700D02*
G54D22*
D03*
X949300Y324000D02*
G54D22*
D03*
X962000Y324000D02*
G54D22*
D03*
X974700Y324000D02*
G54D22*
D03*
X987400Y324000D02*
G54D22*
D03*
X949300Y311300D02*
G54D22*
D03*
X962000Y311300D02*
G54D22*
D03*
X974700Y311300D02*
G54D22*
D03*
X987400Y311300D02*
G54D22*
D03*
X949300Y298600D02*
G54D22*
D03*
X962000Y298600D02*
G54D22*
D03*
X974700Y298600D02*
G54D22*
D03*
X987400Y298600D02*
G54D22*
D03*
X949300Y285900D02*
G54D22*
D03*
X962000Y285900D02*
G54D22*
D03*
X974700Y285900D02*
G54D22*
D03*
X987400Y285900D02*
G54D22*
D03*
X949300Y273200D02*
G54D22*
D03*
X949300Y260500D02*
G54D22*
D03*
X962000Y273200D02*
G54D22*
D03*
X962000Y260500D02*
G54D22*
D03*
X974700Y273200D02*
G54D22*
D03*
X974700Y260500D02*
G54D22*
D03*
X987400Y273200D02*
G54D22*
D03*
X987400Y260500D02*
G54D22*
D03*
X1000100Y336700D02*
G54D22*
D03*
X1000100Y324000D02*
G54D22*
D03*
X1000100Y311300D02*
G54D22*
D03*
X1000100Y298600D02*
G54D22*
D03*
X1000100Y285900D02*
G54D22*
D03*
X1000100Y273200D02*
G54D22*
D03*
X1000100Y260500D02*
G54D22*
D03*
X1012800Y336700D02*
G54D22*
D03*
X1012800Y324000D02*
G54D22*
D03*
X1012800Y311300D02*
G54D22*
D03*
X1012800Y298600D02*
G54D22*
D03*
X1012800Y285900D02*
G54D22*
D03*
X1012800Y273200D02*
G54D22*
D03*
X1012800Y260500D02*
G54D22*
D03*
X1025500Y336700D02*
G54D22*
D03*
X1025500Y324000D02*
G54D22*
D03*
X1025500Y311300D02*
G54D22*
D03*
X1025500Y298600D02*
G54D22*
D03*
X1025500Y285900D02*
G54D22*
D03*
X1025500Y273200D02*
G54D22*
D03*
X1025500Y260500D02*
G54D22*
D03*
X993994Y454372D02*
G54D11*
D03*
X1041400Y558800D02*
G54D16*
D03*
X1041400Y533400D02*
G54D16*
D03*
X1041400Y508000D02*
G54D16*
D03*
X1041400Y533400D02*
G54D16*
D03*
X1041400Y558800D02*
G54D23*
D03*
X1017758Y454113D02*
G54D11*
D03*
X898500Y308760D02*
G54D23*
D03*
X896675Y828591D02*
G54D24*
D03*
X743074Y783747D02*
G54D11*
D03*
X743074Y764697D02*
G54D11*
D03*
X743074Y774222D02*
G54D11*
D03*
X733550Y783747D02*
G54D11*
D03*
X733550Y764697D02*
G54D11*
D03*
X733550Y774222D02*
G54D11*
D03*
X724024Y783747D02*
G54D11*
D03*
X724024Y764697D02*
G54D11*
D03*
X724024Y774222D02*
G54D11*
D03*
X714500Y783747D02*
G54D11*
D03*
X714500Y764697D02*
G54D11*
D03*
X714500Y774222D02*
G54D11*
D03*
X704974Y783747D02*
G54D11*
D03*
X704975Y764697D02*
G54D11*
D03*
X704974Y774222D02*
G54D11*
D03*
X695450Y783747D02*
G54D11*
D03*
X695450Y764697D02*
G54D11*
D03*
X695450Y774222D02*
G54D11*
D03*
X685924Y783747D02*
G54D11*
D03*
X685925Y764697D02*
G54D11*
D03*
X685925Y774222D02*
G54D11*
D03*
X676400Y783747D02*
G54D11*
D03*
X676400Y764697D02*
G54D11*
D03*
X676400Y774222D02*
G54D11*
D03*
G36*
X657350Y809147D02*
X657349Y732948D01*
X762124Y732947D01*
X762124Y809147D01*
X657350Y809147D01*
G37*
G54D12*
X657350Y809147D02*
X657349Y732948D01*
X762124Y732947D01*
X762124Y809147D01*
X657350Y809147D01*
X749424Y878997D02*
G54D11*
D03*
X749425Y859947D02*
G54D11*
D03*
X749424Y869472D02*
G54D11*
D03*
X739900Y878997D02*
G54D11*
D03*
X739900Y859947D02*
G54D11*
D03*
X739900Y869472D02*
G54D11*
D03*
X670050Y878997D02*
G54D11*
D03*
X670050Y859947D02*
G54D11*
D03*
X670050Y869472D02*
G54D11*
D03*
X660524Y878997D02*
G54D11*
D03*
X660524Y859947D02*
G54D11*
D03*
X660524Y869472D02*
G54D11*
D03*
X720240Y819175D02*
G54D11*
D03*
X700490Y819175D02*
G54D11*
D03*
G36*
X755195Y720100D02*
X630413Y720106D01*
X630418Y732800D01*
X761552Y732747D01*
X761545Y726450D01*
X755195Y720100D01*
G37*
G54D18*
X755195Y720100D02*
X630413Y720106D01*
X630418Y732800D01*
X761552Y732747D01*
X761545Y726450D01*
X755195Y720100D01*
X653130Y726300D02*
G54D11*
D03*
X643605Y723125D02*
G54D11*
D03*
X752600Y761522D02*
G54D11*
D03*
X752600Y771047D02*
G54D11*
D03*
X667510Y780889D02*
G54D11*
D03*
X667510Y790414D02*
G54D11*
D03*
G36*
X638380Y805675D02*
X644730Y796150D01*
X632030Y796150D01*
X638380Y805675D01*
G37*
G54D12*
X638380Y805675D02*
X644730Y796150D01*
X632030Y796150D01*
X638380Y805675D01*
G36*
X638332Y780240D02*
X631982Y789765D01*
X644683Y789765D01*
X638332Y780240D01*
G37*
G54D12*
X638332Y780240D02*
X631982Y789765D01*
X644683Y789765D01*
X638332Y780240D01*
G36*
X622505Y824725D02*
X628855Y815200D01*
X616155Y815200D01*
X622505Y824725D01*
G37*
G54D12*
X622505Y824725D02*
X628855Y815200D01*
X616155Y815200D01*
X622505Y824725D01*
G36*
X622458Y799290D02*
X616107Y808815D01*
X628808Y808815D01*
X622458Y799290D01*
G37*
G54D12*
X622458Y799290D02*
X616107Y808815D01*
X628808Y808815D01*
X622458Y799290D01*
X543050Y783747D02*
G54D11*
D03*
X543050Y764697D02*
G54D11*
D03*
X543050Y774222D02*
G54D11*
D03*
X533525Y783747D02*
G54D11*
D03*
X533524Y764697D02*
G54D11*
D03*
X533525Y774222D02*
G54D11*
D03*
X524000Y783747D02*
G54D11*
D03*
X524000Y764697D02*
G54D11*
D03*
X524000Y774222D02*
G54D11*
D03*
X514474Y783747D02*
G54D11*
D03*
X514474Y764697D02*
G54D11*
D03*
X514474Y774222D02*
G54D11*
D03*
X504950Y783747D02*
G54D11*
D03*
X504950Y764697D02*
G54D11*
D03*
X504950Y774222D02*
G54D11*
D03*
X495424Y783747D02*
G54D11*
D03*
X495424Y764697D02*
G54D11*
D03*
X495424Y774222D02*
G54D11*
D03*
X485900Y783747D02*
G54D11*
D03*
X485900Y764697D02*
G54D11*
D03*
X485900Y774222D02*
G54D11*
D03*
X476374Y783747D02*
G54D11*
D03*
X476374Y764697D02*
G54D11*
D03*
X476374Y774222D02*
G54D11*
D03*
G36*
X457324Y809147D02*
X457324Y732948D01*
X562100Y732947D01*
X562100Y809147D01*
X457324Y809147D01*
G37*
G54D12*
X457324Y809147D02*
X457324Y732948D01*
X562100Y732947D01*
X562100Y809147D01*
X457324Y809147D01*
X549400Y878997D02*
G54D11*
D03*
X549400Y859947D02*
G54D11*
D03*
X549400Y869472D02*
G54D11*
D03*
X539874Y878997D02*
G54D11*
D03*
X539874Y859947D02*
G54D11*
D03*
X539874Y869472D02*
G54D11*
D03*
X470024Y878997D02*
G54D11*
D03*
X470025Y859947D02*
G54D11*
D03*
X470024Y869472D02*
G54D11*
D03*
X460500Y878997D02*
G54D11*
D03*
X460500Y859947D02*
G54D11*
D03*
X460500Y869472D02*
G54D11*
D03*
X520215Y819175D02*
G54D11*
D03*
X500465Y819175D02*
G54D11*
D03*
G36*
X555170Y720100D02*
X430388Y720106D01*
X430393Y732800D01*
X561527Y732747D01*
X561520Y726450D01*
X555170Y720100D01*
G37*
G54D18*
X555170Y720100D02*
X430388Y720106D01*
X430393Y732800D01*
X561527Y732747D01*
X561520Y726450D01*
X555170Y720100D01*
X453105Y726300D02*
G54D11*
D03*
X443580Y723125D02*
G54D11*
D03*
X552575Y761522D02*
G54D11*
D03*
X552575Y771047D02*
G54D11*
D03*
X467484Y780889D02*
G54D11*
D03*
X467484Y790414D02*
G54D11*
D03*
G36*
X438355Y805675D02*
X444705Y796150D01*
X432005Y796150D01*
X438355Y805675D01*
G37*
G54D12*
X438355Y805675D02*
X444705Y796150D01*
X432005Y796150D01*
X438355Y805675D01*
G36*
X438308Y780240D02*
X431957Y789765D01*
X444658Y789765D01*
X438308Y780240D01*
G37*
G54D12*
X438308Y780240D02*
X431957Y789765D01*
X444658Y789765D01*
X438308Y780240D01*
G36*
X422480Y824725D02*
X428830Y815200D01*
X416130Y815200D01*
X422480Y824725D01*
G37*
G54D12*
X422480Y824725D02*
X428830Y815200D01*
X416130Y815200D01*
X422480Y824725D01*
G36*
X422432Y799290D02*
X416082Y808815D01*
X428782Y808815D01*
X422432Y799290D01*
G37*
G54D12*
X422432Y799290D02*
X416082Y808815D01*
X428782Y808815D01*
X422432Y799290D01*
X343024Y783747D02*
G54D11*
D03*
X343024Y764697D02*
G54D11*
D03*
X343024Y774222D02*
G54D11*
D03*
X333500Y783747D02*
G54D11*
D03*
X333500Y764697D02*
G54D11*
D03*
X333500Y774222D02*
G54D11*
D03*
X323974Y783747D02*
G54D11*
D03*
X323974Y764697D02*
G54D11*
D03*
X323974Y774222D02*
G54D11*
D03*
X314450Y783747D02*
G54D11*
D03*
X314450Y764697D02*
G54D11*
D03*
X314450Y774222D02*
G54D11*
D03*
X304924Y783747D02*
G54D11*
D03*
X304924Y764697D02*
G54D11*
D03*
X304924Y774222D02*
G54D11*
D03*
X295400Y783747D02*
G54D11*
D03*
X295400Y764697D02*
G54D11*
D03*
X295400Y774222D02*
G54D11*
D03*
X285875Y783747D02*
G54D11*
D03*
X285875Y764697D02*
G54D11*
D03*
X285875Y774222D02*
G54D11*
D03*
X276350Y783747D02*
G54D11*
D03*
X276350Y764697D02*
G54D11*
D03*
X276350Y774222D02*
G54D11*
D03*
G36*
X257300Y809147D02*
X257299Y732948D01*
X362074Y732947D01*
X362074Y809147D01*
X257300Y809147D01*
G37*
G54D12*
X257300Y809147D02*
X257299Y732948D01*
X362074Y732947D01*
X362074Y809147D01*
X257300Y809147D01*
X349375Y878997D02*
G54D11*
D03*
X349375Y859947D02*
G54D11*
D03*
X349375Y869472D02*
G54D11*
D03*
X339850Y878997D02*
G54D11*
D03*
X339850Y859947D02*
G54D11*
D03*
X339850Y869472D02*
G54D11*
D03*
X270000Y878997D02*
G54D11*
D03*
X270000Y859947D02*
G54D11*
D03*
X270000Y869472D02*
G54D11*
D03*
X260474Y878997D02*
G54D11*
D03*
X260474Y859947D02*
G54D11*
D03*
X260474Y869472D02*
G54D11*
D03*
X320190Y819175D02*
G54D11*
D03*
X300440Y819175D02*
G54D11*
D03*
G36*
X355145Y720100D02*
X230362Y720106D01*
X230368Y732800D01*
X361502Y732747D01*
X361495Y726450D01*
X355145Y720100D01*
G37*
G54D18*
X355145Y720100D02*
X230362Y720106D01*
X230368Y732800D01*
X361502Y732747D01*
X361495Y726450D01*
X355145Y720100D01*
X253080Y726300D02*
G54D11*
D03*
X243555Y723125D02*
G54D11*
D03*
X352550Y761522D02*
G54D11*
D03*
X352550Y771047D02*
G54D11*
D03*
X267460Y780889D02*
G54D11*
D03*
X267460Y790414D02*
G54D11*
D03*
G36*
X238330Y805675D02*
X244680Y796150D01*
X231980Y796150D01*
X238330Y805675D01*
G37*
G54D12*
X238330Y805675D02*
X244680Y796150D01*
X231980Y796150D01*
X238330Y805675D01*
G36*
X238282Y780240D02*
X231932Y789765D01*
X244633Y789765D01*
X238282Y780240D01*
G37*
G54D12*
X238282Y780240D02*
X231932Y789765D01*
X244633Y789765D01*
X238282Y780240D01*
G36*
X222455Y824725D02*
X228805Y815200D01*
X216105Y815200D01*
X222455Y824725D01*
G37*
G54D12*
X222455Y824725D02*
X228805Y815200D01*
X216105Y815200D01*
X222455Y824725D01*
G36*
X222408Y799290D02*
X216057Y808815D01*
X228758Y808815D01*
X222408Y799290D01*
G37*
G54D12*
X222408Y799290D02*
X216057Y808815D01*
X228758Y808815D01*
X222408Y799290D01*
X838834Y582930D02*
G54D19*
D03*
X245045Y396175D02*
G54D11*
D03*
X287272Y389825D02*
G54D11*
D03*
X328865Y383475D02*
G54D11*
D03*
X371727Y365695D02*
G54D11*
D03*
X444500Y358775D02*
G54D11*
D03*
X487045Y352425D02*
G54D11*
D03*
X528955Y346075D02*
G54D11*
D03*
X571500Y339725D02*
G54D11*
D03*
X650875Y333375D02*
G54D11*
D03*
X692150Y327025D02*
G54D11*
D03*
X730250Y320675D02*
G54D11*
D03*
X765175Y314325D02*
G54D11*
D03*
X739775Y711200D02*
G54D11*
D03*
X727075Y704850D02*
G54D11*
D03*
X708025Y698500D02*
G54D11*
D03*
X679450Y692150D02*
G54D11*
D03*
X565150Y685800D02*
G54D11*
D03*
X520700Y679450D02*
G54D11*
D03*
X482600Y673100D02*
G54D11*
D03*
X444500Y666750D02*
G54D11*
D03*
X368300Y660400D02*
G54D11*
D03*
X330200Y609600D02*
G54D11*
D03*
X284480Y603250D02*
G54D11*
D03*
X238125Y596900D02*
G54D11*
D03*
G54D25*
X353615Y729939D02*
X366626Y742950D01*
X793750Y742950D01*
G54D25*
X349250Y254038D02*
X819150Y254000D01*
X1017358Y475113D02*
G54D11*
D03*
X889000Y463549D02*
G54D19*
D03*
X815468Y570472D02*
G54D11*
D03*
X777368Y421882D02*
G54D11*
D03*
X796318Y421692D02*
G54D11*
D03*
X698500Y447675D02*
G54D11*
D03*
X784225Y622300D02*
G54D11*
D03*
X742950Y622300D02*
G54D11*
D03*
X701675Y622300D02*
G54D11*
D03*
X660400Y622300D02*
G54D11*
D03*
X584200Y622300D02*
G54D11*
D03*
X542925Y622300D02*
G54D11*
D03*
X501650Y622300D02*
G54D11*
D03*
X460375Y622300D02*
G54D11*
D03*
X384175Y622300D02*
G54D11*
D03*
X342900Y622300D02*
G54D11*
D03*
X301625Y622300D02*
G54D11*
D03*
X260350Y622300D02*
G54D11*
D03*
X751868Y374702D02*
G54D11*
D03*
X796318Y376607D02*
G54D11*
D03*
X845609Y394759D02*
G54D11*
D03*
X1053041Y394759D02*
G54D11*
D03*
X873125Y394335D02*
G54D11*
D03*
X1009650Y511175D02*
G54D11*
D03*
X881062Y517525D02*
G54D11*
D03*
X584200Y444500D02*
G54D11*
D03*
X896675Y828591D02*
G54D24*
D03*
X860754Y792670D02*
G54D24*
D03*
X1023675Y768266D02*
G54D24*
D03*
X390525Y133350D02*
G54D11*
D03*
X400050Y127000D02*
G54D11*
D03*
X590550Y133350D02*
G54D11*
D03*
X600075Y127000D02*
G54D11*
D03*
X790575Y152400D02*
G54D11*
D03*
X800100Y146050D02*
G54D11*
D03*
X222250Y876300D02*
G54D11*
D03*
X422275Y876300D02*
G54D11*
D03*
X622300Y876300D02*
G54D11*
D03*
X612775Y869950D02*
G54D11*
D03*
X412900Y869800D02*
G54D11*
D03*
X212725Y869950D02*
G54D11*
D03*
X215952Y301677D02*
G54D11*
D03*
X215952Y311202D02*
G54D11*
D03*
X206375Y311150D02*
G54D11*
D03*
X206427Y320727D02*
G54D11*
D03*
X196902Y320727D02*
G54D11*
D03*
X196902Y330252D02*
G54D11*
D03*
X187377Y330252D02*
G54D11*
D03*
X187377Y339777D02*
G54D11*
D03*
X177852Y339777D02*
G54D11*
D03*
X177852Y349302D02*
G54D11*
D03*
X168327Y349302D02*
G54D11*
D03*
X168327Y358827D02*
G54D11*
D03*
X800100Y304800D02*
G54D20*
D03*
X768350Y304800D02*
G54D20*
D03*
X784225Y305435D02*
G54D11*
D03*
X836150Y406400D02*
G54D20*
D03*
X247650Y438150D02*
G54D11*
D03*
X215900Y419100D02*
G54D21*
D03*
X710593Y374702D02*
G54D11*
D03*
X669318Y374702D02*
G54D11*
D03*
X628043Y374702D02*
G54D11*
D03*
X551843Y374702D02*
G54D11*
D03*
X510568Y374702D02*
G54D11*
D03*
X469293Y374702D02*
G54D11*
D03*
X428018Y374702D02*
G54D11*
D03*
X351818Y374702D02*
G54D11*
D03*
X310543Y374702D02*
G54D11*
D03*
X269268Y374702D02*
G54D11*
D03*
X227993Y374702D02*
G54D11*
D03*
X805180Y584200D02*
G54D21*
D03*
G36*
X937745Y346050D02*
X1036955Y346050D01*
X1036955Y250825D01*
X937745Y250825D01*
X937745Y346050D01*
G37*
G54D12*
X937745Y346050D02*
X1036955Y346050D01*
X1036955Y250825D01*
X937745Y250825D01*
X937745Y346050D01*
X1047750Y422275D02*
G54D16*
D03*
X838200Y958850D02*
G54D11*
D03*
X844550Y952500D02*
G54D11*
D03*
X1212850Y946150D02*
G54D11*
D03*
X1219200Y939800D02*
G54D11*
D03*
X1206500Y546100D02*
G54D19*
D03*
X1117600Y38100D02*
G54D16*
D03*
X809200Y102025D02*
G54D16*
D03*
X604520Y19050D02*
G54D26*
D03*
X405130Y19050D02*
G54D26*
D03*
X628650Y133350D02*
G54D26*
D03*
X431800Y133350D02*
G54D26*
D03*
X404867Y977002D02*
G54D26*
D03*
X604257Y977002D02*
G54D26*
D03*
X380737Y862702D02*
G54D26*
D03*
X577587Y862702D02*
G54D26*
D03*
X76200Y457200D02*
G54D19*
D03*
X76200Y933450D02*
G54D19*
D03*
X901700Y482600D02*
G54D19*
D03*
X936625Y517525D02*
G54D11*
D03*
X354330Y19050D02*
G54D26*
D03*
X391795Y88900D02*
G54D26*
D03*
X554355Y19050D02*
G54D26*
D03*
X591820Y88900D02*
G54D26*
D03*
X656398Y976611D02*
G54D26*
D03*
X618933Y906761D02*
G54D26*
D03*
X455103Y976611D02*
G54D26*
D03*
X419543Y906761D02*
G54D26*
D03*
X66675Y425450D02*
G54D19*
D03*
X85725Y577850D02*
G54D11*
D03*
X793243Y570472D02*
G54D11*
D03*
X772160Y582931D02*
G54D11*
D03*
X1023675Y768266D02*
G54D24*
D03*
X987754Y732345D02*
G54D24*
D03*
M02*
