; Drill file
; Format: 2.4 (00.0000)
M48
INCH
T01C0.0118
T02C0.0157
T03C0.0197
T04C0.0276
T05C0.0315
T06C0.0335
T07C0.0354
T08C0.0394
T09C0.0472
T10C0.0512
T11C0.0591
T12C0.0945
T13C0.1252
%
G05
G90
T01
X010340Y004650
X010340Y005030
X010340Y005400
X010710Y005400
X010710Y005030
X010710Y004650
X011480Y007010
X012260Y007010
X012090Y008400
X011710Y008400
X011340Y008400
X010960Y008400
X010590Y008400
X010590Y008780
X010590Y009150
X010960Y009150
X010960Y008780
X011340Y008780
X011340Y009150
X011710Y009150
X011710Y008780
X012090Y008780
X012090Y009150
X012460Y009150
X012460Y008780
X012460Y008400
X012840Y008400
X012840Y008780
X012840Y009150
X013210Y009150
X013210Y008780
X013210Y008400
X013560Y008520
X013560Y008140
X014130Y010670
X014500Y010790
X014630Y014400
X013850Y014750
X012950Y015100
X012230Y014750
X011310Y015350
X010600Y014750
X009650Y015600
X008980Y014750
X007380Y013380
X007380Y013000
X007750Y013000
X007750Y012630
X008130Y012630
X008120Y012250
X008500Y012250
X008500Y011880
X007000Y013380
X007000Y013750
X006630Y013750
X006630Y014130
X009750Y017250
X009380Y023500
X010250Y024500
X011200Y023750
X011880Y024500
X013000Y024000
X013500Y024500
X015120Y024500
X014500Y026000
X017500Y026250
X019000Y026500
X020500Y026750
X022250Y027000
X023000Y024500
X021380Y024500
X019750Y024500
X018120Y024500
X017460Y028470
X017840Y028590
X018750Y030110
X018750Y030480
X019130Y030480
X019130Y030110
X019500Y030110
X019500Y030480
X019880Y030480
X019880Y030110
X020250Y030110
X020250Y030480
X020630Y030480
X020630Y030110
X021000Y030110
X021000Y030480
X021380Y030480
X021380Y030110
X021750Y029980
X021750Y030360
X021380Y030860
X021000Y030860
X020630Y030860
X020250Y030860
X019880Y030860
X019500Y030860
X019130Y030860
X018750Y030860
X018400Y030740
X018400Y031120
X019700Y032250
X020480Y032250
X021250Y033860
X021630Y033860
X021630Y034230
X021630Y034610
X021250Y034610
X021250Y034230
X018500Y034230
X018500Y033860
X018130Y033860
X018130Y034230
X018130Y034610
X018500Y034610
X016630Y034500
X016260Y034240
X013750Y034230
X013750Y034610
X013380Y034610
X013380Y034230
X013380Y033860
X013750Y033860
X012610Y032250
X011830Y032250
X012000Y030860
X011630Y030860
X011630Y030480
X012000Y030480
X012000Y030110
X011630Y030110
X011250Y030110
X011250Y030480
X011250Y030860
X010880Y030860
X010530Y030740
X010530Y031120
X010880Y030480
X010880Y030110
X012380Y030110
X012750Y030110
X013130Y030110
X013500Y030110
X013500Y030480
X013130Y030480
X013130Y030860
X013500Y030860
X013880Y030360
X013880Y029980
X012750Y030480
X012750Y030860
X012380Y030860
X012380Y030480
X009960Y028590
X009590Y028470
X010250Y033860
X010630Y033860
X010630Y034230
X010630Y034610
X010250Y034610
X010250Y034230
X008750Y034500
X008380Y034250
X003380Y022750
X010210Y009280
X010210Y008900
X013460Y005400
X013460Y005030
X013460Y004650
X013840Y004650
X013840Y005030
X013840Y005400
X015380Y005250
X015750Y005000
X018210Y005030
X018210Y004650
X018590Y004650
X018590Y005030
X018590Y005400
X018210Y005400
X019360Y007010
X020140Y007010
X019960Y008400
X019590Y008400
X019210Y008400
X018840Y008400
X018460Y008400
X018460Y008780
X018460Y009150
X018840Y009150
X018840Y008780
X019210Y008780
X019210Y009150
X019590Y009150
X019590Y008780
X019960Y008780
X019960Y009150
X020340Y009150
X020340Y008780
X020340Y008400
X020710Y008400
X020710Y008780
X020710Y009150
X021090Y009150
X021090Y008780
X021090Y008400
X021440Y008520
X021440Y008140
X022000Y010670
X022380Y010790
X022500Y013370
X021730Y014750
X020830Y013630
X020100Y014750
X019170Y013870
X018480Y014750
X017500Y014130
X016850Y014750
X018090Y009280
X018090Y008900
X021340Y005400
X021340Y005030
X021340Y004650
X021710Y004650
X021710Y005030
X021710Y005400
X023250Y005250
X023620Y005000
X026090Y005030
X026090Y004650
X026460Y004650
X026460Y005030
X026460Y005400
X026090Y005400
X027230Y007010
X028010Y007010
X027840Y008400
X027460Y008400
X027090Y008400
X026710Y008400
X026340Y008400
X026340Y008780
X026340Y009150
X026710Y009150
X026710Y008780
X027090Y008780
X027090Y009150
X027460Y009150
X027460Y008780
X027840Y008780
X027840Y009150
X028210Y009150
X028210Y008780
X028210Y008400
X028590Y008400
X028590Y008780
X028590Y009150
X028960Y009150
X028960Y008780
X028960Y008400
X029310Y008520
X029310Y008140
X029880Y010670
X030250Y010790
X030870Y012020
X030130Y012380
X028750Y012620
X027250Y012880
X025620Y013120
X026350Y014750
X027980Y014750
X029600Y014750
X031350Y014830
X031350Y016600
X030610Y016610
X032750Y018250
X032630Y019000
X032500Y021000
X032750Y021250
X032110Y022460
X031230Y022460
X030400Y022950
X030870Y024500
X029250Y024500
X027630Y024500
X026000Y024500
X026660Y021990
X026690Y019760
X026690Y019390
X026690Y019010
X026320Y019010
X025940Y019010
X025570Y019010
X025570Y019390
X025570Y019760
X025940Y019760
X025940Y019390
X026320Y019390
X026320Y019760
X025190Y019760
X025190Y019390
X025190Y019010
X024820Y019010
X024820Y019390
X024820Y019760
X024440Y019760
X024440Y019390
X024070Y019390
X024070Y019760
X024070Y019010
X024440Y019010
X023000Y017500
X024730Y014750
X027500Y017620
X033290Y015540
X034380Y015520
X034690Y020380
X036880Y020380
X039750Y020130
X040050Y018710
X040070Y017880
X039130Y017890
X041460Y015540
X031500Y005750
X031120Y006000
X029590Y005400
X029210Y005400
X029210Y005030
X029210Y004650
X029590Y004650
X029590Y005030
X025960Y008900
X025960Y009280
X026750Y027250
X027880Y027500
X028620Y027750
X029130Y028000
X029630Y029980
X029630Y030360
X029250Y030480
X029250Y030110
X028880Y030110
X028880Y030480
X028880Y030860
X029250Y030860
X028500Y030860
X028130Y030860
X028130Y030480
X028500Y030480
X028500Y030110
X028130Y030110
X027750Y030110
X027750Y030480
X027380Y030480
X027380Y030110
X027000Y030110
X027000Y030480
X027000Y030860
X026630Y030860
X026280Y030740
X026280Y031120
X026630Y030480
X026630Y030110
X027380Y030860
X027750Y030860
X027580Y032250
X028360Y032250
X029130Y033860
X029130Y034230
X029500Y034230
X029500Y033860
X029500Y034610
X029130Y034610
X026380Y034610
X026380Y034230
X026380Y033860
X026000Y033860
X026000Y034230
X026000Y034610
X024500Y034500
X024130Y034250
X025710Y028590
X025340Y028470
X033250Y037500
X033000Y037750
X047750Y037250
X048000Y037000
T02
X030250Y012000
X031500Y012000
X032920Y016000
X034250Y016000
X036750Y017250
X037370Y013260
X037870Y013260
X038370Y013260
X038870Y013260
X038870Y012760
X038370Y012760
X037870Y012760
X037370Y012760
X037370Y012260
X037870Y012260
X038370Y012260
X038870Y012260
X038870Y011760
X038370Y011760
X037870Y011760
X037370Y011760
X037370Y011260
X037870Y011260
X038370Y011260
X038870Y011260
X038870Y010760
X038370Y010760
X037870Y010760
X037370Y010760
X037370Y010260
X037870Y010260
X038370Y010260
X038870Y010260
X039370Y010260
X039370Y010760
X039370Y011260
X039370Y011760
X039370Y012260
X039370Y012760
X039370Y013260
X039870Y013260
X039870Y012760
X039870Y012260
X039870Y011760
X039870Y011260
X039870Y010760
X039870Y010260
X040370Y010260
X040370Y010760
X040370Y011260
X040370Y011760
X040370Y012260
X040370Y012760
X040370Y013260
T03
X002630Y016750
X003000Y018000
X003000Y036750
X030750Y019750
X033020Y022950
X035500Y019000
X035000Y018250
X039100Y019420
X047500Y021500
T04
X013950Y000750
X015950Y000750
X015420Y003500
X017000Y005250
X023300Y003500
X024750Y005250
X023800Y000750
X021830Y000750
X022740Y033960
X024370Y035700
X023790Y038460
X025840Y038450
X017920Y038450
X015940Y038460
X016520Y035700
X014990Y033960
T05
X008500Y016500
X031700Y023000
T06
X004000Y001000
X004000Y002000
X004000Y003000
X004000Y004000
X004000Y005000
X004000Y006000
X004000Y007000
X004000Y008000
X004000Y009000
X004000Y010000
X004000Y011000
X005000Y011000
X005000Y010000
X005000Y009000
X005000Y008000
X005000Y007000
X005000Y006000
X005000Y005000
X005000Y004000
X005000Y003000
X005000Y002000
X005000Y001000
X005000Y012000
X005000Y013000
X005000Y014000
X004000Y014000
X004000Y013000
X004000Y012000
X004000Y015000
X004000Y016000
X004000Y017000
X004000Y018000
X004000Y019000
X005000Y019000
X005000Y018000
X005000Y017000
X005000Y016000
X005000Y015000
X005000Y020000
X005000Y021000
X004000Y021000
X004000Y022000
X004000Y023000
X004000Y024000
X005000Y024000
X005000Y023000
X005000Y022000
X004000Y020000
X004000Y025000
X004000Y026000
X004000Y027000
X004000Y028000
X004000Y029000
X005000Y029000
X005000Y028000
X005000Y027000
X005000Y026000
X005000Y025000
X005000Y030000
X005000Y031000
X005000Y032000
X005000Y033000
X005000Y034000
X005000Y035000
X004000Y035000
X004000Y034000
X004000Y033000
X004000Y032000
X004000Y031000
X004000Y030000
X046000Y030000
X046000Y031000
X046000Y032000
X046000Y033000
X046000Y034000
X046000Y035000
X047000Y035000
X047000Y034000
X047000Y033000
X047000Y032000
X047000Y031000
X047000Y030000
X047000Y029000
X047000Y028000
X046000Y028000
X046000Y029000
X046000Y027000
X047000Y027000
X047000Y026000
X046000Y026000
X046000Y025000
X047000Y025000
X047000Y024000
X047000Y023000
X046000Y023000
X046000Y024000
X046000Y022000
X047000Y022000
X047000Y021000
X046000Y021000
X046000Y020000
X047000Y020000
X047000Y019000
X047000Y018000
X046000Y018000
X046000Y019000
X046000Y017000
X047000Y017000
X047000Y016000
X046000Y016000
X046000Y015000
X047000Y015000
X047000Y014000
X046000Y014000
X046000Y013000
X046000Y012000
X047000Y012000
X047000Y013000
X047000Y011000
X046000Y011000
X046000Y010000
X046000Y009000
X047000Y009000
X047000Y010000
X047000Y008000
X046000Y008000
X046000Y007000
X047000Y007000
X047000Y006000
X046000Y006000
X046000Y005000
X047000Y005000
X047000Y004000
X046000Y004000
X046000Y003000
X047000Y003000
X047000Y002000
X046000Y002000
X046000Y001000
X047000Y001000
T07
X035370Y012160
T08
X031860Y004020
X036370Y002260
X039370Y002260
X044000Y001500
X032250Y010000
X041250Y016630
X041000Y020000
X041000Y021000
X041000Y022000
X031250Y029250
T09
X037870Y002260
X037420Y036040
X035920Y036040
X038920Y036040
X040420Y036040
T10
X033890Y031210
X035300Y032620
X038890Y028830
X040300Y030250
T11
X009050Y001960
X011020Y001960
X012990Y001960
X014960Y001960
X016920Y001960
X018890Y001960
X020860Y001960
X022830Y001960
X024800Y001960
X026770Y001960
X028740Y001960
X030700Y001960
X030700Y037390
X028740Y037390
X026770Y037390
X024800Y037390
X022830Y037390
X020860Y037390
X018890Y037390
X016920Y037390
X014960Y037390
X012990Y037390
X011020Y037390
X009050Y037390
T12
X034150Y036040
X042190Y036040
T13
X001480Y006480
X001980Y036230
X049020Y036230
X049520Y006480
M30
